SplineFontDB: 3.0
FontName: NovaFlat-BoldOblique
FullName: Nova Flat Bold Oblique
FamilyName: Nova Flat
Weight: Bold
Copyright: Copyright (c) 2020-2024 by Wojciech Kalinowski "wmk69" with Reserved Font Name "NovaFlat-BoldOblique".\nThis Font Software is licensed under the SIL Open Font License, Version 1.1.
Version: 3.1.0; 2021-05-23
ItalicAngle: -12
UnderlinePosition: -80
UnderlineWidth: 320
Ascent: 1638
Descent: 410
InvalidEm: 0
LayerCount: 2
Layer: 0 1 "Warstwa t+AUIA-a" 1
Layer: 1 1 "Plan pierwszy" 0
XUID: [1021 783 23647091 8360855]
StyleMap: 0x0021
FSType: 0
OS2Version: 3
OS2_WeightWidthSlopeOnly: 0
OS2_UseTypoMetrics: 1
CreationTime: 1260698820
ModificationTime: 1621761382
PfmFamily: 33
TTFWeight: 700
TTFWidth: 5
LineGap: 200
VLineGap: 0
Panose: 2 12 8 4 2 5 3 13 2 4
OS2TypoAscent: 2000
OS2TypoAOffset: 0
OS2TypoDescent: -500
OS2TypoDOffset: 0
OS2TypoLinegap: 200
OS2WinAscent: 2000
OS2WinAOffset: 0
OS2WinDescent: 500
OS2WinDOffset: 0
HheadAscent: 2000
HheadAOffset: 0
HheadDescent: -500
HheadDOffset: 0
OS2SubXSize: 1434
OS2SubYSize: 1331
OS2SubXOff: 0
OS2SubYOff: 287
OS2SupXSize: 1434
OS2SupYSize: 1331
OS2SupXOff: 0
OS2SupYOff: 977
OS2StrikeYSize: 102
OS2StrikeYPos: 512
OS2CapHeight: 1530
OS2XHeight: 1120
OS2Vendor: '    '
OS2CodePages: 20000093.00000000
OS2UnicodeRanges: 8000002f.4000204b.00000000.00000000
Lookup: 258 0 0 "'kern' Horizontal Kerning lookup 0" { "'kern' Horizontal Kerning lookup 0-1 subtable" [307,0,4] } ['kern' ('DFLT' <'dflt' > 'grek' <'dflt' > 'latn' <'dflt' > ) ]
MarkAttachClasses: 1
DEI: 91125
KernClass2: 65 55 "'kern' Horizontal Kerning lookup 0-1 subtable"
 134 A M N Agrave Aacute Acircumflex Atilde Adieresis Aring Ntilde Amacron Abreve Aogonek Nacute Ncommaaccent Ncaron Eng Aringacute uni1E40
 28 B germandbls uni1E02 uni1E9E
 47 C Ccedilla Cacute Ccircumflex Cdotaccent Ccaron
 122 D O Q Eth Ograve Oacute Ocircumflex Otilde Odieresis Oslash Dcaron Dcroat Omacron Obreve Ohungarumlaut Oslashacute uni1E0A

StartChar: .notdef
Encoding: 65536 -1 0
Width: 1034
Flags: W
HStem: 0 118<323 761> 1392 118<594 1032>
VStem: 110 814<0 814> 431 814<696 1510>
DStem2: 110 0 297.918 0 0.207912 0.978148<159.707 1462.21> 735.918 0 924 0 0.207912 0.978148<120.636 1423.14>
LayerCount: 2
Fore
SplineSet
110 0 m 1,0,-1
 431 1510 l 1,1,-1
 1245 1510 l 1,2,-1
 924 0 l 1,3,-1
 110 0 l 1,0,-1
323 118 m 1,4,-1
 761 118 l 1,5,-1
 1032 1392 l 1,6,-1
 594 1392 l 1,7,-1
 323 118 l 1,4,-1
EndSplineSet
Validated: 1
EndChar

StartChar: exclam
Encoding: 33 33 4
Width: 640
GlyphClass: 2
Flags: W
HStem: -20 365<266.097 442.323> 1510 20G<748.605 805>
VStem: 170 635
DStem2: 155.789 -20 475.543 -20 0.207912 0.978148<641.036 1434.34>
LayerCount: 2
Fore
SplineSet
316 -20 m 0,0,1
 240 -20 240 -20 200 34 c 0,2,3
 170 73 170 73 170 123 c 0,4,5
 170 142 170 142 174 162 c 0,6,7
 190 238 190 238 254 291 c 0,8,9
 318 345 318 345 393 345 c 0,10,11
 469 345 469 345 510 292 c 0,12,13
 539 254 539 254 539 203 c 0,14,15
 539 184 539 184 535 163 c 0,16,17
 519 88 519 88 454.5 34 c 128,-1,18
 390 -20 390 -20 316 -20 c 0,0,1
795 1530 m 1,19,-1
 805 1530 l 1,20,-1
 595 542 l 1,21,-1
 254 395 l 1,22,-1
 244 395 l 1,23,-1
 454 1383 l 1,24,-1
 795 1530 l 1,19,-1
EndSplineSet
Validated: 1
EndChar

StartChar: quotedbl
Encoding: 34 34 5
Width: 510
GlyphClass: 2
Flags: W
HStem: 1100 480
VStem: 264 552
DStem2: 264 1100 443.783 1100 0.207912 0.978148<120.189 407.953> 534 1100 713.783 1100 0.207912 0.978148<120.189 407.953>
LayerCount: 2
Fore
SplineSet
806 1580 m 1,0,-1
 816 1580 l 1,1,-1
 731 1181 l 1,2,-1
 544 1100 l 1,3,-1
 534 1100 l 1,4,-1
 619 1499 l 1,5,-1
 806 1580 l 1,0,-1
536 1580 m 1,6,-1
 546 1580 l 1,7,-1
 461 1181 l 1,8,-1
 274 1100 l 1,9,-1
 264 1100 l 1,10,-1
 349 1499 l 1,11,-1
 536 1580 l 1,6,-1
EndSplineSet
Validated: 1
EndChar

StartChar: numbersign
Encoding: 35 35 6
Width: 1408
GlyphClass: 2
Flags: W
HStem: 460 180<326 506 724 918 1136 1316> 872 180<414 593 812 1005 1224 1403>
DStem2: 442 161 621.783 161 0.207912 0.978148<120.189 305.772 527.164 726.858 948.457 1132.85> 854 161 1033.78 161 0.207912 0.978148<120.189 305.772 527.164 726.858 948.457 1132.85>
LayerCount: 2
Fore
SplineSet
865 1350 m 1,0,-1
 875 1350 l 1,1,-1
 812 1052 l 1,2,-1
 1044 1052 l 1,3,-1
 1090 1269 l 1,4,-1
 1277 1350 l 1,5,-1
 1287 1350 l 1,6,-1
 1224 1052 l 1,7,-1
 1522 1052 l 1,8,-1
 1519 1042 l 1,9,-1
 1403 872 l 1,10,-1
 1185 872 l 1,11,-1
 1136 640 l 1,12,-1
 1434 640 l 1,13,-1
 1432 630 l 1,14,-1
 1316 460 l 1,15,-1
 1098 460 l 1,16,-1
 1051 242 l 1,17,-1
 864 161 l 1,18,-1
 854 161 l 1,19,-1
 918 460 l 1,20,-1
 686 460 l 1,21,-1
 639 242 l 1,22,-1
 452 161 l 1,23,-1
 442 161 l 1,24,-1
 506 460 l 1,25,-1
 208 460 l 1,26,-1
 210 470 l 1,27,-1
 326 640 l 1,28,-1
 544 640 l 1,29,-1
 593 872 l 1,30,-1
 295 872 l 1,31,-1
 297 882 l 1,32,-1
 414 1052 l 1,33,-1
 632 1052 l 1,34,-1
 678 1269 l 1,35,-1
 865 1350 l 1,0,-1
956 640 m 1,36,-1
 1005 872 l 1,37,-1
 773 872 l 1,38,-1
 724 640 l 1,39,-1
 956 640 l 1,36,-1
EndSplineSet
Validated: 1
EndChar

StartChar: dollar
Encoding: 36 36 7
Width: 1150
GlyphClass: 2
Flags: W
VStem: 323 326<915.5 1213.48> 906 333<398.752 729.5>
DStem2: 489 -120 609.16 -120 0.207912 0.978148<77.122 105.323 417.607 817.863 1159.76 1406.85 1706.77 1737.14>
LayerCount: 2
Fore
SplineSet
620 -69 m 1,0,-1
 499 -120 l 1,1,-1
 489 -120 l 1,2,-1
 511 -17 l 1,3,4
 343 -2 343 -2 226 79 c 0,5,6
 106 161 106 161 106 316 c 0,7,8
 106 348 106 348 111 383 c 1,9,-1
 442 526 l 1,10,-1
 452 526 l 1,11,-1
 427 411 l 2,12,13
 422 388 422 388 422 371 c 0,14,15
 422 319 422 319 461 297 c 0,16,17
 508 269 508 269 570 262 c 1,18,-1
 659 680 l 1,19,20
 540 695 540 695 431 774 c 0,21,22
 323 852 323 852 323 979 c 0,23,24
 323 1013 323 1013 332 1055 c 2,25,-1
 365 1208 l 2,26,27
 400 1370 400 1370 526 1440 c 0,28,29
 676 1523 676 1523 840 1529 c 1,30,-1
 851 1579 l 1,31,-1
 971 1630 l 1,32,-1
 981 1630 l 1,33,-1
 959 1525 l 1,34,35
 1089 1509 1089 1509 1179 1446 c 0,36,37
 1286 1371 1286 1371 1286 1242 c 0,38,39
 1286 1221 1286 1221 1283 1199 c 1,40,-1
 964 1061 l 1,41,-1
 954 1061 l 1,42,-1
 972 1148 l 2,43,44
 976 1167 976 1167 976 1181 c 0,45,46
 976 1217 976 1217 953 1232 c 128,-1,47
 930 1247 930 1247 901 1254 c 1,48,-1
 845 990 l 1,49,50
 999 975 999 975 1119 890 c 0,51,52
 1239 804 1239 804 1239 655 c 0,53,54
 1239 609 1239 609 1229 562 c 2,55,-1
 1188 369 l 2,56,57
 1145 166 1145 166 988 82 c 0,58,59
 817 -10 817 -10 631 -19 c 1,60,-1
 620 -69 l 1,0,-1
727 999 m 1,61,-1
 782 1256 l 1,62,63
 745 1249 745 1249 716 1232 c 0,64,65
 675 1209 675 1209 662 1148 c 2,66,-1
 653 1106 l 2,67,68
 649 1087 649 1087 649 1072 c 0,69,70
 649 1036 649 1036 671 1022 c 0,71,72
 695 1006 695 1006 727 999 c 1,61,-1
777 672 m 1,73,-1
 691 264 l 1,74,75
 747 273 747 273 795 297 c 0,76,77
 859 328 859 328 877 411 c 2,78,-1
 901 523 l 2,79,80
 906 546 906 546 906 566 c 0,81,82
 906 616 906 616 872 638 c 0,83,84
 832 663 832 663 777 672 c 1,73,-1
EndSplineSet
Validated: 1
EndChar

StartChar: percent
Encoding: 37 37 8
Width: 1846
GlyphClass: 2
Flags: W
HStem: -20 216<1308.52 1531.54> 504 216<1359.87 1581.12> 790 216<584.515 807.54> 1314 216<635.871 857.125>
VStem: 331 241<961.5 1252.09> 871 242<1073.19 1361.5> 1055 241<151.5 442.092> 1595 242<263.193 551.5>
DStem2: 484 93 707 -20 0.561853 0.827237<31.8155 1737.11>
LayerCount: 2
Fore
SplineSet
1382 -20 m 0,0,1
 1230 -20 1230 -20 1134 48 c 0,2,3
 1055 103 1055 103 1055 200 c 0,4,5
 1055 227 1055 227 1061 258 c 2,6,-1
 1100 442 l 2,7,8
 1132 594 1132 594 1240 652 c 0,9,10
 1364 720 1364 720 1509 720 c 128,-1,11
 1654 720 1654 720 1758 652 c 0,12,13
 1837 600 1837 600 1837 503 c 0,14,15
 1837 474 1837 474 1830 442 c 2,16,-1
 1791 258 l 2,17,18
 1760 106 1760 106 1652 48 c 0,19,20
 1528 -20 1528 -20 1382 -20 c 0,0,1
1478 504 m 128,-1,22
 1414 504 1414 504 1370 479 c 0,23,24
 1335 458 1335 458 1324 410 c 2,25,-1
 1299 290 l 2,26,27
 1296 277 1296 277 1296 265 c 0,28,29
 1296 236 1296 236 1315 221 c 0,30,31
 1350 196 1350 196 1413.5 196 c 128,-1,32
 1477 196 1477 196 1521 221 c 0,33,34
 1556 242 1556 242 1567 290 c 2,35,-1
 1592 410 l 2,36,37
 1595 423 1595 423 1595 435 c 0,38,39
 1595 464 1595 464 1576 479 c 0,40,21
 1542 504 1542 504 1478 504 c 128,-1,22
785 1530 m 128,-1,42
 930 1530 930 1530 1034 1462 c 0,43,44
 1113 1410 1113 1410 1113 1313 c 0,45,46
 1113 1284 1113 1284 1106 1252 c 2,47,-1
 1067 1068 l 2,48,49
 1036 916 1036 916 928 858 c 0,50,51
 804 790 804 790 658 790 c 0,52,53
 506 790 506 790 410 858 c 0,54,55
 331 913 331 913 331 1010 c 0,56,57
 331 1037 331 1037 337 1068 c 2,58,-1
 376 1252 l 2,59,60
 408 1404 408 1404 516 1462 c 0,61,41
 640 1530 640 1530 785 1530 c 128,-1,42
754 1314 m 128,-1,63
 690 1314 690 1314 646 1289 c 0,64,65
 611 1268 611 1268 600 1220 c 2,66,-1
 575 1100 l 2,67,68
 572 1087 572 1087 572 1075 c 0,69,70
 572 1046 572 1046 591 1031 c 0,71,72
 626 1006 626 1006 689.5 1006 c 128,-1,73
 753 1006 753 1006 797 1031 c 0,74,75
 832 1052 832 1052 843 1100 c 2,76,-1
 868 1220 l 2,77,78
 871 1233 871 1233 871 1245 c 0,79,80
 871 1274 871 1274 852 1289 c 0,81,62
 818 1314 818 1314 754 1314 c 128,-1,63
697 -20 m 1,82,-1
 484 93 l 1,83,-1
 1460 1530 l 1,84,-1
 1470 1530 l 1,85,-1
 1682 1417 l 1,86,-1
 707 -20 l 1,87,-1
 697 -20 l 1,82,-1
EndSplineSet
Validated: 1
EndChar

StartChar: ampersand
Encoding: 38 38 9
Width: 1692
GlyphClass: 2
Flags: W
HStem: -20 300<551.777 949.24> 1245 285<781.387 1073.67>
VStem: 186 330<313.996 564.987>
DStem2: 1006 955 786 701 0.561215 -0.82767<61.8663 460.963 770.678 959.068>
LayerCount: 2
Fore
SplineSet
1021 355 m 1,0,1
 786 701 l 1,2,3
 711 701 711 701 631 667 c 0,4,5
 566 640 566 640 549 560 c 2,6,-1
 520 422 l 2,7,8
 516 402 516 402 516 386 c 0,9,10
 516 336 516 336 555 315 c 0,11,12
 623 280 623 280 734 280 c 0,13,14
 903 280 903 280 1021 355 c 1,0,1
686 -20 m 0,15,16
 461 -20 461 -20 311 82 c 0,17,18
 186 167 186 167 186 317 c 0,19,20
 186 359 186 359 197 410 c 2,21,-1
 225 539 l 2,22,23
 286 822 286 822 479 875 c 1,24,25
 418 921 418 921 418 1002 c 0,26,27
 418 1028 418 1028 425 1060 c 2,28,-1
 447 1161 l 2,29,30
 488 1348 488 1348 625 1445 c 24,31,32
 745 1530 745 1530 970 1530 c 24,33,34
 1177 1530 1177 1530 1294 1445 c 0,35,36
 1396 1371 1396 1371 1396 1239 c 0,37,38
 1396 1213 1396 1213 1392 1185 c 1,39,-1
 1078 1050 l 1,40,-1
 1068 1050 l 1,41,-1
 1089 1149 l 2,42,43
 1092 1163 1092 1163 1092 1171 c 0,44,45
 1092 1205 1092 1205 1064 1219 c 0,46,47
 1012 1245 1012 1245 941 1245 c 128,-1,48
 870 1245 870 1245 809 1219 c 0,49,50
 765 1200 765 1200 754 1149 c 2,51,-1
 733 1051 l 2,52,53
 731 1042 731 1042 731 1031 c 0,54,55
 731 997 731 997 759 981 c 0,56,57
 803 955 803 955 878 955 c 2,58,-1
 1006 955 l 1,59,-1
 1264 573 l 1,60,61
 1342 704 1342 704 1391 851 c 1,62,-1
 1738 1000 l 1,63,-1
 1748 1000 l 1,64,65
 1662 597 1662 597 1426 334 c 1,66,-1
 1581 107 l 1,67,-1
 1287 -20 l 1,68,-1
 1277 -20 l 1,69,-1
 1171 134 l 1,70,71
 937 -20 937 -20 686 -20 c 0,15,16
EndSplineSet
Validated: 1
EndChar

StartChar: quotesingle
Encoding: 39 39 10
Width: 240
GlyphClass: 2
Flags: W
HStem: 1100 480
VStem: 264 282
DStem2: 264 1100 443.783 1100 0.207912 0.978148<120.189 407.953>
LayerCount: 2
Fore
SplineSet
536 1580 m 1,0,-1
 546 1580 l 1,1,-1
 461 1181 l 1,2,-1
 274 1100 l 1,3,-1
 264 1100 l 1,4,-1
 349 1499 l 1,5,-1
 536 1580 l 1,0,-1
EndSplineSet
Validated: 1
EndChar

StartChar: parenleft
Encoding: 40 40 11
Width: 756
GlyphClass: 2
Flags: W
HStem: 1449 301<834.56 1034>
VStem: 191 331<22.5 345.672>
DStem2: 109.388 -240 428.949 -240 0.207912 0.978148<497.222 1749.81>
LayerCount: 2
Fore
SplineSet
675 -240 m 1,0,1
 460 -240 460 -240 314 -138 c 0,2,3
 191 -53 191 -53 191 98 c 0,4,5
 191 142 191 142 201 191 c 2,6,-1
 440 1319 l 2,7,8
 492 1564 492 1564 648 1648 c 0,9,10
 838 1750 838 1750 1098 1750 c 1,11,-1
 1034 1449 l 1,12,13
 921 1449 921 1449 837 1408 c 0,14,15
 773 1376 773 1376 753 1284 c 2,16,-1
 528 226 l 2,17,18
 522 200 522 200 522 180 c 0,19,20
 522 126 522 126 560 102 c 0,21,22
 626 61 626 61 739 61 c 1,23,-1
 675 -240 l 1,0,1
EndSplineSet
Validated: 1
EndChar

StartChar: parenright
Encoding: 41 41 12
Width: 756
GlyphClass: 2
Flags: W
HStem: -240 301<43 242.44>
VStem: 555 331<1164.33 1487>
DStem2: 225.064 -240 545.388 -240 0.207912 0.978148<351.092 1603.68>
LayerCount: 2
Fore
SplineSet
-21 -240 m 1,0,1
 43 61 l 1,2,3
 156 61 156 61 240 102 c 0,4,5
 304 134 304 134 324 226 c 2,6,-1
 549 1284 l 2,7,8
 555 1310 555 1310 555 1330 c 0,9,10
 555 1384 555 1384 517 1408 c 0,11,12
 451 1449 451 1449 338 1449 c 1,13,-1
 402 1750 l 1,14,15
 618 1750 618 1750 764 1648 c 0,16,17
 886 1562 886 1562 886 1412 c 0,18,19
 886 1368 886 1368 876 1319 c 2,20,-1
 637 191 l 2,21,22
 585 -54 585 -54 429 -138 c 0,23,24
 239 -240 239 -240 -21 -240 c 1,0,1
EndSplineSet
Validated: 1
EndChar

StartChar: asterisk
Encoding: 42 42 13
Width: 790
GlyphClass: 2
Flags: W
DStem2: 264 1103 400 988 0.889369 0.457191<68.3772 213.28 574.709 719.612>
LayerCount: 2
Fore
SplineSet
811 1580 m 1,0,-1
 821 1580 l 1,1,-1
 775 1366 l 1,2,-1
 904 1432 l 1,3,-1
 1037 1326 l 1,4,-1
 1040 1317 l 1,5,-1
 832 1210 l 1,6,-1
 994 1103 l 1,7,-1
 988 1094 l 1,8,-1
 810 988 l 1,9,-1
 709 1054 l 1,10,-1
 681 921 l 1,11,-1
 494 840 l 1,12,-1
 484 840 l 1,13,-1
 529 1054 l 1,14,-1
 400 988 l 1,15,-1
 268 1094 l 1,16,-1
 264 1103 l 1,17,-1
 472 1210 l 1,18,-1
 310 1317 l 1,19,-1
 317 1326 l 1,20,-1
 494 1432 l 1,21,-1
 595 1366 l 1,22,-1
 624 1499 l 1,23,-1
 811 1580 l 1,0,-1
EndSplineSet
Validated: 1
EndChar

StartChar: plus
Encoding: 43 43 14
Width: 1240
GlyphClass: 2
Flags: W
HStem: 620 270<424 617 944 1137>
DStem2: 537 245 807.43 245 0.207912 0.978148<184.018 383.438 715.525 914.945>
LayerCount: 2
Fore
SplineSet
1014 1265 m 1,0,-1
 1024 1265 l 1,1,-1
 944 890 l 1,2,-1
 1319 890 l 1,3,-1
 1317 880 l 1,4,-1
 1137 620 l 1,5,-1
 887 620 l 1,6,-1
 834 370 l 1,7,-1
 547 245 l 1,8,-1
 537 245 l 1,9,-1
 617 620 l 1,10,-1
 242 620 l 1,11,-1
 244 630 l 1,12,-1
 424 890 l 1,13,-1
 674 890 l 1,14,-1
 727 1140 l 1,15,-1
 1014 1265 l 1,0,-1
EndSplineSet
Validated: 1
EndChar

StartChar: comma
Encoding: 44 44 15
Width: 496
GlyphClass: 2
Flags: W
HStem: -328 666
VStem: 203 283<-42.5039 147.058>
LayerCount: 2
Fore
SplineSet
75 212 m 1,0,-1
 371 338 l 1,1,-1
 381 338 l 1,2,3
 486 259 486 259 486 132 c 0,4,5
 486 95 486 95 477 54 c 0,6,7
 422 -203 422 -203 60 -328 c 1,8,-1
 55 -321 l 1,9,10
 166 -172 166 -172 197 -24 c 0,11,12
 203 3 203 3 203 28 c 0,13,14
 203 146 203 146 75 212 c 1,0,-1
EndSplineSet
Validated: 1
EndChar

StartChar: hyphen
Encoding: 45 45 16
Width: 1240
GlyphClass: 2
Flags: W
HStem: 620 270<424 1137>
LayerCount: 2
Fore
SplineSet
424 890 m 1,0,-1
 1319 890 l 1,1,-1
 1317 880 l 1,2,-1
 1137 620 l 1,3,-1
 242 620 l 1,4,-1
 244 630 l 1,5,-1
 424 890 l 1,0,-1
EndSplineSet
Validated: 1
EndChar

StartChar: period
Encoding: 46 46 17
Width: 420
GlyphClass: 2
Flags: W
HStem: -20 365<156.097 332.323>
VStem: 60 369<75.75 249.936>
LayerCount: 2
Fore
SplineSet
206 -20 m 0,0,1
 130 -20 130 -20 90 34 c 0,2,3
 60 73 60 73 60 123 c 0,4,5
 60 142 60 142 64 162 c 0,6,7
 80 238 80 238 144 291 c 0,8,9
 208 345 208 345 283 345 c 0,10,11
 359 345 359 345 400 292 c 0,12,13
 429 254 429 254 429 203 c 0,14,15
 429 184 429 184 425 163 c 0,16,17
 409 88 409 88 344.5 34 c 128,-1,18
 280 -20 280 -20 206 -20 c 0,0,1
EndSplineSet
Validated: 1
EndChar

StartChar: slash
Encoding: 47 47 18
Width: 1105
GlyphClass: 2
Flags: W
DStem2: -8 -87 214 -200 0.561693 0.827346<31.2057 2172.01>
LayerCount: 2
Fore
SplineSet
204 -200 m 1,0,-1
 -8 -87 l 1,1,-1
 1212 1710 l 1,2,-1
 1222 1710 l 1,3,-1
 1434 1597 l 1,4,-1
 214 -200 l 1,5,-1
 204 -200 l 1,0,-1
EndSplineSet
Validated: 1
EndChar

StartChar: zero
Encoding: 48 48 19
Width: 1370
GlyphClass: 2
Flags: W
HStem: -20 300<564.491 944.65> 1230 300<746.74 1125.94>
VStem: 197 332<242.5 571.594> 1162 333<948.625 1273>
DStem2: 115.388 -20 436.161 -20 0.207912 0.978148<495.504 1300.92> 925.376 -20 1245.39 -20 0.207912 0.978148<351.145 1155.82>
LayerCount: 2
Fore
SplineSet
745 280 m 128,-1,1
 857 280 857 280 940 321 c 0,2,3
 1005 353 1005 353 1025 445 c 2,4,-1
 1156 1065 l 2,5,6
 1162 1091 1162 1091 1162 1112 c 0,7,8
 1162 1166 1162 1166 1125 1189 c 0,9,10
 1059 1230 1059 1230 946.5 1230 c 128,-1,11
 834 1230 834 1230 751 1189 c 0,12,13
 686 1157 686 1157 666 1065 c 2,14,-1
 535 445 l 2,15,16
 529 419 529 419 529 398 c 0,17,18
 529 344 529 344 566 321 c 0,19,0
 633 280 633 280 745 280 c 128,-1,1
711 -20 m 0,20,21
 466 -20 466 -20 320 82 c 0,22,23
 197 167 197 167 197 318 c 0,24,25
 197 362 197 362 207 411 c 2,26,-1
 354 1099 l 2,27,28
 408 1345 408 1345 562 1428 c 0,29,30
 752 1530 752 1530 980 1530 c 128,-1,31
 1208 1530 1208 1530 1370 1428 c 0,32,33
 1495 1349 1495 1349 1495 1197 c 0,34,35
 1495 1151 1495 1151 1484 1099 c 2,36,-1
 1337 411 l 2,37,38
 1286 166 1286 166 1130 82 c 0,39,40
 940 -20 940 -20 711 -20 c 0,20,21
EndSplineSet
Validated: 1
EndChar

StartChar: one
Encoding: 49 49 20
Width: 794
GlyphClass: 2
Flags: W
HStem: -20 21G<260 316.395> 1510 20G<852.612 909>
DStem2: 260 -20 579.754 -20 0.207912 0.978148<216.765 1122.45>
LayerCount: 2
Fore
SplineSet
270 -20 m 1,0,-1
 260 -20 l 1,1,-1
 493 1078 l 1,2,-1
 227 973 l 1,3,-1
 289 1267 l 1,4,-1
 899 1530 l 1,5,-1
 909 1530 l 1,6,-1
 611 127 l 1,7,-1
 270 -20 l 1,0,-1
EndSplineSet
Validated: 1
EndChar

StartChar: two
Encoding: 50 50 21
Width: 1273
GlyphClass: 2
Flags: W
HStem: 0 300<684 1047> 1230 300<689.508 1041.52>
VStem: 1076 332<934.884 1271>
LayerCount: 2
Fore
SplineSet
40 0 m 1,0,-1
 42 10 l 1,1,-1
 256 323 l 1,2,-1
 764 667 l 2,3,4
 1025 844 1025 844 1059 1007 c 2,5,-1
 1071 1065 l 2,6,7
 1076 1089 1076 1089 1076 1109 c 0,8,9
 1076 1163 1076 1163 1040 1189 c 0,10,11
 983 1230 983 1230 877.5 1230 c 128,-1,12
 772 1230 772 1230 696 1189 c 0,13,14
 644 1161 644 1161 622 1100 c 1,15,-1
 277 952 l 1,16,-1
 267 952 l 1,17,-1
 299 1099 l 2,18,19
 352 1345 352 1345 506 1428 c 0,20,21
 696 1530 696 1530 910 1530 c 128,-1,22
 1124 1530 1124 1530 1286 1428 c 0,23,24
 1408 1351 1408 1351 1408 1191 c 0,25,26
 1408 1148 1408 1148 1399 1099 c 2,27,-1
 1384 1016 l 2,28,29
 1323 680 1323 680 1054 520 c 2,30,-1
 684 300 l 1,31,-1
 1247 300 l 1,32,-1
 1245 290 l 1,33,-1
 1047 0 l 1,34,-1
 40 0 l 1,0,-1
EndSplineSet
Validated: 1
EndChar

StartChar: three
Encoding: 51 51 22
Width: 1240
GlyphClass: 2
Flags: W
HStem: -20 300<504.814 856.388> 1210 300<629 861>
VStem: 958 332<403.614 657.805>
LayerCount: 2
Fore
SplineSet
636 -20 m 0,0,1
 409 -20 409 -20 260 82 c 0,2,3
 145 159 145 159 145 314 c 0,4,5
 145 351 145 351 152 392 c 1,6,-1
 484 536 l 1,7,-1
 494 536 l 1,8,-1
 475 445 l 2,9,10
 470 420 470 420 470 400 c 0,11,12
 470 346 470 346 506 321 c 0,13,14
 566 280 566 280 670 280 c 0,15,16
 772 280 772 280 850 321 c 0,17,18
 917 356 917 356 935 445 c 2,19,-1
 953 533 l 2,20,21
 958 559 958 559 958 580 c 0,22,23
 958 635 958 635 922 657 c 0,24,25
 856 698 856 698 761 698 c 0,26,27
 681 698 681 698 606 673 c 1,28,-1
 534 780 l 1,29,-1
 861 1210 l 1,30,-1
 429 1210 l 1,31,-1
 431 1220 l 1,32,-1
 629 1510 l 1,33,-1
 1460 1510 l 1,34,-1
 1015 930 l 1,35,36
 1099 916 1099 916 1162 872 c 0,37,38
 1290 782 1290 782 1290 642 c 0,39,40
 1290 606 1290 606 1281 567 c 2,41,-1
 1247 411 l 2,42,43
 1194 165 1194 165 1040 82 c 0,44,45
 850 -20 850 -20 636 -20 c 0,0,1
EndSplineSet
Validated: 1
EndChar

StartChar: four
Encoding: 52 52 23
Width: 1317
GlyphClass: 2
Flags: W
HStem: -20 21G<783 839.395> 304 300<660 852> 1510 20G<1375.51 1432>
DStem2: 77 314 660 604 0.680769 0.732499<609.313 1099.76>
LayerCount: 2
Fore
SplineSet
660 604 m 5,0,-1
 915 604 l 1,1,-1
 992 965 l 1,2,-1
 660 604 l 5,0,-1
793 -20 m 1,3,-1
 783 -20 l 1,4,-1
 852 304 l 1,5,-1
 75 304 l 1,6,-1
 77 314 l 1,7,-1
 1064 1376 l 1,8,-1
 1422 1530 l 1,9,-1
 1432 1530 l 1,10,-1
 1235 604 l 1,11,-1
 1385 604 l 1,12,-1
 1383 594 l 1,13,-1
 1186 304 l 1,14,-1
 1172 304 l 1,15,-1
 1134 127 l 1,16,-1
 793 -20 l 1,3,-1
EndSplineSet
Validated: 1
EndChar

StartChar: five
Encoding: 53 53 24
Width: 1240
GlyphClass: 2
Flags: W
HStem: -20 300<504.814 856.388> 698 300<699.52 921.624> 1210 300<817 1219>
VStem: 958 334<410.882 733.5>
LayerCount: 2
Fore
SplineSet
636 -20 m 0,0,1
 409 -20 409 -20 260 82 c 0,2,3
 145 159 145 159 145 314 c 0,4,5
 145 351 145 351 152 392 c 1,6,-1
 484 536 l 1,7,-1
 494 536 l 1,8,-1
 475 445 l 2,9,10
 470 420 470 420 470 400 c 0,11,12
 470 346 470 346 506 321 c 0,13,14
 566 280 566 280 668 280 c 0,15,16
 771 280 771 280 850 321 c 0,17,18
 917 355 917 355 935 445 c 2,19,-1
 953 533 l 2,20,21
 958 556 958 556 958 576 c 0,22,23
 958 630 958 630 922 657 c 0,24,25
 867 698 867 698 761 698 c 0,26,27
 629 698 629 698 526 636 c 1,28,-1
 270 761 l 1,29,-1
 619 1510 l 1,30,-1
 1419 1510 l 1,31,-1
 1417 1500 l 1,32,-1
 1219 1210 l 1,33,-1
 817 1210 l 1,34,-1
 697 983 l 1,35,36
 739 998 739 998 821 998 c 0,37,38
 1020 998 1020 998 1166 896 c 0,39,40
 1291 808 1291 808 1292 659 c 0,41,42
 1292 616 1292 616 1281 567 c 2,43,-1
 1247 411 l 2,44,45
 1194 165 1194 165 1040 82 c 0,46,47
 850 -20 850 -20 636 -20 c 0,0,1
EndSplineSet
Validated: 1
EndChar

StartChar: six
Encoding: 54 54 25
Width: 1310
GlyphClass: 2
Flags: W
HStem: -20 300<564.89 915.908> 715 300<649.686 984.463> 1230 300<744.657 1095.88>
VStem: 196 333<237 565.454> 1023 332<426.406 752>
DStem2: 115.388 -20 436.161 -20 0.207912 0.978148<495.504 777.724 1080.85 1300.17>
LayerCount: 2
Fore
SplineSet
696 -20 m 128,-1,1
 483 -20 483 -20 321 82 c 0,2,3
 196 161 196 161 196 313 c 0,4,5
 196 359 196 359 207 411 c 2,6,-1
 354 1099 l 2,7,8
 405 1344 405 1344 561 1428 c 0,9,10
 751 1530 751 1530 965 1530 c 0,11,12
 1191 1530 1191 1530 1341 1428 c 0,13,14
 1458 1349 1458 1349 1458 1202 c 0,15,16
 1458 1187 1458 1187 1457 1172 c 1,17,-1
 1129 1029 l 1,18,-1
 1119 1029 l 1,19,-1
 1126 1065 l 2,20,21
 1131 1090 1131 1090 1131 1110 c 0,22,23
 1131 1166 1131 1166 1095 1189 c 0,24,25
 1029 1230 1029 1230 931.5 1230 c 128,-1,26
 834 1230 834 1230 751 1189 c 0,27,28
 685 1156 685 1156 666 1065 c 2,29,-1
 647 972 l 1,30,31
 758 1015 758 1015 871 1015 c 0,32,33
 1085 1015 1085 1015 1231 913 c 0,34,35
 1355 827 1355 827 1355 677 c 0,36,37
 1355 633 1355 633 1344 584 c 2,38,-1
 1307 411 l 2,39,40
 1253 165 1253 165 1099 82 c 0,41,0
 909 -20 909 -20 696 -20 c 128,-1,1
822 715 m 128,-1,43
 725 715 725 715 641 674 c 0,44,45
 576 642 576 642 557 550 c 2,46,-1
 535 445 l 2,47,48
 529 419 529 419 529 398 c 0,49,50
 529 344 529 344 566 321 c 0,51,52
 632 280 632 280 729.5 280 c 128,-1,53
 827 280 827 280 910 321 c 0,54,55
 975 353 975 353 995 445 c 2,56,-1
 1017 550 l 2,57,58
 1023 576 1023 576 1023 596 c 0,59,60
 1023 650 1023 650 985 674 c 0,61,42
 919 715 919 715 822 715 c 128,-1,43
EndSplineSet
Validated: 1
EndChar

StartChar: seven
Encoding: 55 55 26
Width: 1098
GlyphClass: 2
Flags: W
HStem: -20 21G<128 184.604> 1210 300<467 863>
DStem2: 128 -20 632 192 0.509748 0.860324<439.302 1432.86>
LayerCount: 2
Fore
SplineSet
138 -20 m 1,0,-1
 128 -20 l 1,1,-1
 863 1210 l 1,2,-1
 267 1210 l 1,3,-1
 269 1220 l 1,4,-1
 467 1510 l 1,5,-1
 1409 1510 l 1,6,-1
 1407 1500 l 1,7,-1
 632 192 l 1,8,-1
 138 -20 l 1,0,-1
EndSplineSet
Validated: 1
EndChar

StartChar: eight
Encoding: 56 56 27
Width: 1250
GlyphClass: 2
Flags: W
HStem: -20 300<501.719 885.549> 686 275<711.383 946.865> 1245 285<731.387 1015.88>
VStem: 137 329<314.996 564.65> 990 325<380.659 650.995> 1037 318<1011.28 1298>
LayerCount: 2
Fore
SplineSet
685 280 m 152,-1,1
 797 280 797 280 879 315 c 0,2,3
 943 342 943 342 960 422 c 2,4,-1
 986 544 l 2,5,6
 990 563 990 563 990 579 c 0,7,8
 990 630 990 630 949 651 c 0,9,10
 881 686 881 686 770.5 686 c 152,-1,11
 660 686 660 686 577 651 c 0,12,13
 512 623 512 623 496 544 c 2,14,-1
 470 422 l 2,15,16
 466 402 466 402 466 386 c 0,17,18
 466 336 466 336 505 315 c 0,19,0
 573 280 573 280 685 280 c 152,-1,1
651 -20 m 24,20,21
 410 -20 410 -20 262 82 c 0,22,23
 137 169 137 169 137 319 c 0,24,25
 137 362 137 362 147 410 c 2,26,-1
 175 539 l 2,27,28
 229 787 229 787 440 856 c 1,29,30
 369 916 369 916 369 1005 c 0,31,32
 369 1031 369 1031 375 1060 c 2,33,-1
 397 1161 l 2,34,35
 438 1348 438 1348 575 1445 c 24,36,37
 695 1530 695 1530 920 1530 c 24,38,39
 1129 1530 1129 1530 1244 1445 c 0,40,41
 1355 1362 1355 1362 1355 1234 c 0,42,43
 1355 1199 1355 1199 1347 1161 c 2,44,-1
 1325 1060 l 2,45,46
 1296 926 1296 926 1175 851 c 1,47,48
 1315 775 1315 775 1315 624 c 0,49,50
 1315 584 1315 584 1305 539 c 2,51,-1
 1277 410 l 2,52,53
 1224 166 1224 166 1068 82 c 0,54,55
 878 -20 878 -20 651 -20 c 24,20,21
888.5 1245 m 152,-1,57
 820 1245 820 1245 759 1219 c 0,58,59
 715 1200 715 1200 704 1149 c 2,60,-1
 685 1057 l 2,61,62
 683 1046 683 1046 683 1037 c 0,63,64
 683 1004 683 1004 710 987 c 0,65,66
 754 961 754 961 829 961 c 152,-1,67
 904 961 904 961 960 987 c 0,68,69
 1004 1008 1004 1008 1015 1057 c 2,70,-1
 1034 1149 l 2,71,72
 1037 1161 1037 1161 1037 1171 c 0,73,74
 1037 1205 1037 1205 1009 1219 c 0,75,56
 957 1245 957 1245 888.5 1245 c 152,-1,57
EndSplineSet
Validated: 1
EndChar

StartChar: nine
Encoding: 57 57 28
Width: 1310
GlyphClass: 2
Flags: W
HStem: -20 300<535.121 886.343> 495 300<646.537 981.314> 1230 300<715.202 1066.34>
VStem: 276 332<758 1083.59> 1102 333<944.546 1273>
DStem2: 865.393 -20 1185.39 -20 0.207912 0.978148<351.142 570.466 873.592 1155.81>
LayerCount: 2
Fore
SplineSet
666 -20 m 0,0,1
 440 -20 440 -20 290 82 c 0,2,3
 173 161 173 161 173 308 c 0,4,5
 173 323 173 323 174 338 c 1,6,-1
 502 481 l 1,7,-1
 512 481 l 1,8,-1
 505 445 l 2,9,10
 500 420 500 420 500 400 c 0,11,12
 500 344 500 344 536 321 c 0,13,14
 602 280 602 280 699.5 280 c 128,-1,15
 797 280 797 280 880 321 c 0,16,17
 946 354 946 354 965 445 c 2,18,-1
 984 538 l 1,19,20
 873 495 873 495 760 495 c 0,21,22
 546 495 546 495 400 597 c 0,23,24
 276 683 276 683 276 833 c 0,25,26
 276 877 276 877 287 926 c 2,27,-1
 324 1099 l 2,28,29
 378 1345 378 1345 532 1428 c 0,30,31
 722 1530 722 1530 936 1530 c 0,32,33
 1148 1530 1148 1530 1310 1428 c 0,34,35
 1435 1349 1435 1349 1435 1197 c 0,36,37
 1435 1151 1435 1151 1424 1099 c 2,38,-1
 1277 411 l 2,39,40
 1226 166 1226 166 1070 82 c 0,41,42
 880 -20 880 -20 666 -20 c 0,0,1
809 795 m 128,-1,44
 906 795 906 795 990 836 c 0,45,46
 1055 868 1055 868 1074 960 c 2,47,-1
 1096 1065 l 2,48,49
 1102 1091 1102 1091 1102 1112 c 0,50,51
 1102 1166 1102 1166 1065 1189 c 0,52,53
 999 1230 999 1230 901.5 1230 c 128,-1,54
 804 1230 804 1230 721 1189 c 0,55,56
 656 1157 656 1157 636 1065 c 2,57,-1
 614 960 l 2,58,59
 608 934 608 934 608 914 c 0,60,61
 608 860 608 860 646 836 c 0,62,43
 712 795 712 795 809 795 c 128,-1,44
EndSplineSet
Validated: 1
EndChar

StartChar: colon
Encoding: 58 58 29
Width: 420
GlyphClass: 2
Flags: W
HStem: -20 365<156.097 332.323> 573 365<282.097 458.323>
VStem: 60 495
LayerCount: 2
Fore
SplineSet
206 -20 m 0,0,1
 130 -20 130 -20 90 34 c 0,2,3
 60 73 60 73 60 123 c 0,4,5
 60 142 60 142 64 162 c 0,6,7
 80 238 80 238 144 291 c 0,8,9
 208 345 208 345 283 345 c 0,10,11
 359 345 359 345 400 292 c 0,12,13
 429 254 429 254 429 203 c 0,14,15
 429 184 429 184 425 163 c 0,16,17
 409 88 409 88 344.5 34 c 128,-1,18
 280 -20 280 -20 206 -20 c 0,0,1
409 938 m 0,19,20
 485 938 485 938 526 885 c 0,21,22
 555 847 555 847 555 796 c 0,23,24
 555 777 555 777 551 756 c 0,25,26
 535 681 535 681 470.5 627 c 128,-1,27
 406 573 406 573 332 573 c 0,28,29
 256 573 256 573 216 627 c 0,30,31
 186 666 186 666 186 716 c 0,32,33
 186 735 186 735 190 755 c 0,34,35
 206 831 206 831 270 884 c 0,36,37
 334 938 334 938 409 938 c 0,19,20
EndSplineSet
Validated: 1
EndChar

StartChar: semicolon
Encoding: 59 59 30
Width: 496
GlyphClass: 2
Flags: W
HStem: 573 365<320.097 496.323>
VStem: 203 283<-42.5039 147.058>
LayerCount: 2
Fore
SplineSet
75 212 m 1,0,-1
 371 338 l 1,1,-1
 381 338 l 1,2,3
 486 259 486 259 486 132 c 0,4,5
 486 95 486 95 477 54 c 0,6,7
 422 -203 422 -203 60 -328 c 1,8,-1
 55 -321 l 1,9,10
 166 -172 166 -172 197 -24 c 0,11,12
 203 3 203 3 203 28 c 0,13,14
 203 146 203 146 75 212 c 1,0,-1
447 938 m 0,15,16
 523 938 523 938 564 885 c 0,17,18
 593 847 593 847 593 796 c 0,19,20
 593 777 593 777 589 756 c 0,21,22
 573 681 573 681 508.5 627 c 128,-1,23
 444 573 444 573 370 573 c 0,24,25
 294 573 294 573 254 627 c 0,26,27
 224 666 224 666 224 716 c 0,28,29
 224 735 224 735 228 755 c 0,30,31
 244 831 244 831 308 884 c 0,32,33
 372 938 372 938 447 938 c 0,15,16
EndSplineSet
Validated: 1
EndChar

StartChar: less
Encoding: 60 60 31
Width: 1355
GlyphClass: 2
Flags: W
DStem2: 768 742 246 638 0.933479 -0.358631<0 512.014> 416 891 768 742 0.945892 0.324481<284.606 958.174>
LayerCount: 2
Fore
SplineSet
246 638 m 1,0,-1
 248 648 l 1,1,-1
 416 891 l 1,2,-1
 1343 1209 l 1,3,-1
 1408 968 l 1,4,-1
 1406 958 l 1,5,-1
 768 742 l 1,6,-1
 1310 539 l 1,7,-1
 1307 529 l 1,8,-1
 1144 293 l 1,9,-1
 246 638 l 1,0,-1
EndSplineSet
Validated: 1
EndChar

StartChar: equal
Encoding: 61 61 32
Width: 1240
GlyphClass: 2
Flags: W
HStem: 390 270<375 1088> 850 270<473 1186>
LayerCount: 2
Fore
SplineSet
375 660 m 1,0,-1
 1270 660 l 1,1,-1
 1268 650 l 1,2,-1
 1088 390 l 1,3,-1
 193 390 l 1,4,-1
 195 400 l 1,5,-1
 375 660 l 1,0,-1
473 1120 m 1,6,-1
 1368 1120 l 1,7,-1
 1366 1110 l 1,8,-1
 1186 850 l 1,9,-1
 291 850 l 1,10,-1
 293 860 l 1,11,-1
 473 1120 l 1,6,-1
EndSplineSet
Validated: 1
EndChar

StartChar: greater
Encoding: 62 62 33
Width: 1355
GlyphClass: 2
Flags: W
DStem2: 270 552 333 301 0.945892 0.324481<0 673.567> 532 1217 366 971 0.933479 -0.358631<0 512.014>
LayerCount: 2
Fore
SplineSet
1430 872 m 1,0,-1
 1428 862 l 1,1,-1
 1260 619 l 1,2,-1
 333 301 l 1,3,-1
 268 542 l 1,4,-1
 270 552 l 1,5,-1
 908 768 l 1,6,-1
 366 971 l 1,7,-1
 369 981 l 1,8,-1
 532 1217 l 1,9,-1
 1430 872 l 1,0,-1
EndSplineSet
Validated: 1
EndChar

StartChar: question
Encoding: 63 63 34
Width: 1324
GlyphClass: 2
Flags: W
HStem: -20 365<571.097 747.323> 1230 300<734.839 1086.28>
VStem: 1120 330<946.62 1189.86>
LayerCount: 2
Fore
SplineSet
621 -20 m 0,0,1
 545 -20 545 -20 505 34 c 0,2,3
 475 73 475 73 475 123 c 0,4,5
 475 142 475 142 479 162 c 0,6,7
 495 238 495 238 559 291 c 0,8,9
 623 345 623 345 698 345 c 0,10,11
 774 345 774 345 815 292 c 0,12,13
 844 254 844 254 844 203 c 0,14,15
 844 184 844 184 840 163 c 0,16,17
 824 88 824 88 759.5 34 c 128,-1,18
 695 -20 695 -20 621 -20 c 0,0,1
955 1530 m 128,-1,20
 1168 1530 1168 1530 1330 1428 c 0,21,22
 1450 1352 1450 1352 1450 1181 c 0,23,24
 1450 1142 1450 1142 1444 1099 c 2,25,-1
 1438 1056 l 2,26,27
 1393 733 1393 733 969 558 c 0,28,29
 906 532 906 532 899 506 c 1,30,-1
 554 359 l 1,31,-1
 544 359 l 1,32,33
 615 693 615 693 880 796 c 0,34,35
 1081 874 1081 874 1111 1038 c 2,36,-1
 1116 1065 l 2,37,38
 1120 1087 1120 1087 1120 1106 c 0,39,40
 1120 1161 1120 1161 1085 1189 c 0,41,42
 1030 1230 1030 1230 920 1230 c 0,43,44
 812 1230 812 1230 741 1189 c 0,45,46
 688 1159 688 1159 667 1100 c 1,47,-1
 322 952 l 1,48,-1
 312 952 l 1,49,-1
 344 1099 l 2,50,51
 398 1345 398 1345 552 1428 c 0,52,19
 742 1530 742 1530 955 1530 c 128,-1,20
EndSplineSet
Validated: 19457
EndChar

StartChar: at
Encoding: 64 64 35
Width: 1420
GlyphClass: 2
Flags: W
HStem: -430 280<476.171 615> -20 240<877.536 986> 449 240<892.407 1075> 851 269<680.346 1088.41>
VStem: 129 307<-112.033 155.562> 1126 308<689.866 806.636>
DStem2: 48.8374 -430 348.538 -430 0.207912 0.978148<466.437 1319.04>
LayerCount: 2
Fore
SplineSet
986 -20 m 1,0,-1
 950 -20 l 2,1,2
 782 -20 782 -20 687 76 c 0,3,4
 604 160 604 160 604 256 c 0,5,6
 604 280 604 280 609 304 c 2,7,-1
 632 414 l 2,8,9
 663 561 663 561 759 618 c 0,10,11
 880 689 880 689 1070 689 c 2,12,-1
 1123 689 l 1,13,14
 1126 708 1126 708 1126 724 c 0,15,16
 1126 781 1126 781 1090 806 c 0,17,18
 1026 851 1026 851 889 851 c 0,19,20
 754 851 754 851 668 801 c 0,21,22
 603 763 603 763 586 685 c 2,23,-1
 441 5 l 2,24,25
 436 -18 436 -18 436 -36 c 0,26,27
 436 -89 436 -89 474 -111 c 8,28,29
 543 -150 543 -150 673 -150 c 2,30,-1
 804 -150 l 1,31,-1
 802 -160 l 1,32,-1
 615 -430 l 1,33,34
 388 -430 388 -430 237 -332 c 0,35,36
 129 -262 129 -262 129 -109 c 0,37,38
 129 -54 129 -54 143 13 c 2,39,-1
 283 673 l 2,40,41
 333 910 333 910 494 1014 c 0,42,43
 657 1120 657 1120 919 1120 c 0,44,45
 1164 1120 1164 1120 1310 1010 c 0,46,47
 1434 917 1434 917 1434 767 c 0,48,49
 1434 724 1434 724 1424 677 c 2,50,-1
 1305 118 l 1,51,-1
 986 -20 l 1,0,-1
1027 220 m 1,52,-1
 1075 449 l 1,53,-1
 1041 449 l 2,54,55
 972 449 972 449 920.5 425 c 128,-1,56
 869 401 869 401 859 351 c 2,57,-1
 854 327 l 2,58,59
 851 312 851 312 851 300 c 0,60,61
 851 265 851 265 876 249 c 8,62,63
 925 220 925 220 993 220 c 2,64,-1
 1027 220 l 1,52,-1
EndSplineSet
Validated: 1
EndChar

StartChar: A
Encoding: 65 65 36
Width: 1410
GlyphClass: 2
Flags: W
HStem: -20 21G<136 192.395 946 1002.39> 605 300<652 1079> 1230 300<766.74 1145.94>
VStem: 1182 333<943.562 1273>
DStem2: 136 -20 455.754 -20 0.207912 0.978148<216.765 705.526 1012.07 1300.17> 946 -20 1265.75 -20 0.207912 0.978148<216.765 638.995 945.537 1155.69>
LayerCount: 2
Fore
SplineSet
146 -20 m 1,0,-1
 136 -20 l 1,1,-1
 374 1099 l 2,2,3
 426 1344 426 1344 582 1428 c 0,4,5
 772 1530 772 1530 1000 1530 c 128,-1,6
 1228 1530 1228 1530 1390 1428 c 0,7,8
 1515 1349 1515 1349 1515 1197 c 0,9,10
 1515 1151 1515 1151 1504 1099 c 2,11,-1
 1297 127 l 1,12,-1
 956 -20 l 1,13,-1
 946 -20 l 1,14,-1
 1079 605 l 1,15,-1
 589 605 l 1,16,-1
 487 127 l 1,17,-1
 146 -20 l 1,0,-1
652 905 m 1,18,-1
 1142 905 l 1,19,-1
 1176 1065 l 2,20,21
 1182 1091 1182 1091 1182 1112 c 0,22,23
 1182 1166 1182 1166 1145 1189 c 0,24,25
 1079 1230 1079 1230 966.5 1230 c 128,-1,26
 854 1230 854 1230 771 1189 c 0,27,28
 706 1157 706 1157 686 1065 c 2,29,-1
 652 905 l 1,18,-1
EndSplineSet
Validated: 1
EndChar

StartChar: B
Encoding: 66 66 37
Width: 1290
GlyphClass: 2
Flags: W
HStem: 0 300<544 930.338> 686 275<684 996.865> 1225 285<749 1053.46>
VStem: 1040 325<392.098 650.998> 1083 319<1006.08 1280>
DStem2: 160 0 480.233 0 0.207912 0.978148<373.282 767.896 1048.95 1318.82>
LayerCount: 2
Fore
SplineSet
626 686 m 1,0,-1
 544 300 l 1,1,-1
 739 300 l 2,2,3
 848 300 848 300 933 335 c 0,4,5
 997 362 997 362 1014 442 c 2,6,-1
 1036 544 l 2,7,8
 1040 563 1040 563 1040 579 c 0,9,10
 1040 630 1040 630 999 651 c 0,11,12
 931 686 931 686 821 686 c 2,13,-1
 626 686 l 1,0,-1
160 0 m 1,14,-1
 454 1384 l 1,15,-1
 749 1510 l 1,16,-1
 966 1510 l 2,17,18
 1175 1510 1175 1510 1290 1425 c 16,19,20
 1402 1344 1402 1344 1402 1216 c 0,21,22
 1402 1180 1402 1180 1393 1141 c 2,23,-1
 1375 1060 l 2,24,25
 1350 950 1350 950 1239 855 c 1,26,27
 1365 770 1365 770 1365 625 c 0,28,29
 1365 584 1365 584 1355 539 c 2,30,-1
 1331 430 l 2,31,32
 1276 186 1276 186 1122 102 c 0,33,34
 932 0 932 0 705 0 c 2,35,-1
 160 0 l 1,14,-1
740 1225 m 1,36,-1
 684 961 l 1,37,-1
 869 961 l 2,38,39
 954 961 954 961 1010 987 c 24,40,41
 1054 1007 1054 1007 1065 1057 c 2,42,-1
 1080 1129 l 2,43,44
 1083 1141 1083 1141 1083 1151 c 0,45,46
 1083 1185 1083 1185 1055 1199 c 0,47,48
 1006 1225 1006 1225 925 1225 c 2,49,-1
 740 1225 l 1,36,-1
EndSplineSet
Validated: 1
EndChar

StartChar: C
Encoding: 67 67 38
Width: 1260
GlyphClass: 2
Flags: W
HStem: -20 300<564.523 916.492> 1230 300<749.28 1096.31>
VStem: 196 334<236.5 561.375>
DStem2: 115.388 -20 436.161 -20 0.207912 0.978148<497.637 1300.29>
LayerCount: 2
Fore
SplineSet
696 -20 m 128,-1,1
 482 -20 482 -20 320 82 c 0,2,3
 196 160 196 160 196 313 c 0,4,5
 196 359 196 359 207 411 c 2,6,-1
 354 1099 l 2,7,8
 406 1344 406 1344 562 1428 c 0,9,10
 752 1530 752 1530 965 1530 c 0,11,12
 1192 1530 1192 1530 1341 1428 c 0,13,14
 1455 1351 1455 1351 1455 1198 c 0,15,16
 1455 1160 1455 1160 1448 1118 c 1,17,-1
 1117 974 l 1,18,-1
 1107 974 l 1,19,-1
 1126 1065 l 2,20,21
 1131 1088 1131 1088 1131 1107 c 0,22,23
 1131 1160 1131 1160 1095 1189 c 0,24,25
 1043 1230 1043 1230 932 1230 c 0,26,27
 827 1230 827 1230 751 1189 c 0,28,29
 685 1153 685 1153 666 1065 c 2,30,-1
 535 445 l 2,31,32
 530 420 530 420 530 400 c 0,33,34
 530 346 530 346 566 321 c 0,35,36
 626 280 626 280 730 280 c 0,37,38
 831 280 831 280 910 321 c 0,39,40
 962 348 962 348 984 410 c 1,41,-1
 1329 558 l 1,42,-1
 1339 558 l 1,43,-1
 1307 411 l 2,44,45
 1254 165 1254 165 1100 82 c 0,46,0
 910 -20 910 -20 696 -20 c 128,-1,1
EndSplineSet
Validated: 1
EndChar

StartChar: D
Encoding: 68 68 39
Width: 1390
GlyphClass: 2
Flags: W
HStem: 0 300<544 967.306> 1210 300<749 1137.93>
VStem: 1178 332<922.625 1253.5>
DStem2: 160 0 480.233 0 0.207912 0.978148<373.282 1303.52> 949.878 0 1270.39 0 0.207912 0.978148<351.131 1113.98>
LayerCount: 2
Fore
SplineSet
544 300 m 1,0,-1
 769 300 l 2,1,2
 882 300 882 300 964 341 c 0,3,4
 1029 373 1029 373 1049 465 c 2,5,-1
 1172 1045 l 2,6,7
 1178 1071 1178 1071 1178 1091 c 0,8,9
 1178 1145 1178 1145 1140 1169 c 0,10,11
 1074 1210 1074 1210 962 1210 c 2,12,-1
 737 1210 l 1,13,-1
 544 300 l 1,0,-1
160 0 m 1,14,-1
 454 1383 l 1,15,-1
 749 1510 l 1,16,-1
 996 1510 l 2,17,18
 1224 1510 1224 1510 1386 1408 c 0,19,20
 1510 1330 1510 1330 1510 1177 c 0,21,22
 1510 1131 1510 1131 1499 1079 c 2,23,-1
 1362 431 l 2,24,25
 1310 186 1310 186 1154 102 c 0,26,27
 964 0 964 0 735 0 c 2,28,-1
 160 0 l 1,14,-1
EndSplineSet
Validated: 1
EndChar

StartChar: E
Encoding: 69 69 40
Width: 1100
GlyphClass: 2
Flags: W
HStem: 0 300<544 954> 605 300<672 1033> 1210 300<749 1161>
DStem2: 160 0 480.233 0 0.207912 0.978148<373.282 685.132 991.674 1303.52>
CounterMasks: 1 e0
LayerCount: 2
Fore
SplineSet
160 0 m 1,0,-1
 454 1384 l 1,1,-1
 749 1510 l 1,2,-1
 1361 1510 l 1,3,-1
 1359 1500 l 1,4,-1
 1161 1210 l 1,5,-1
 737 1210 l 1,6,-1
 672 905 l 1,7,-1
 1232 905 l 1,8,-1
 1230 895 l 1,9,-1
 1033 605 l 1,10,-1
 609 605 l 1,11,-1
 544 300 l 1,12,-1
 1154 300 l 1,13,-1
 1152 290 l 1,14,-1
 954 0 l 1,15,-1
 160 0 l 1,0,-1
EndSplineSet
Validated: 1
EndChar

StartChar: F
Encoding: 70 70 41
Width: 1050
GlyphClass: 2
Flags: W
HStem: -20 21G<156 212.395> 605 300<672 1033> 1210 300<749 1161>
DStem2: 156 -20 475.754 -20 0.207912 0.978148<216.765 705.526 1012.07 1323.92>
LayerCount: 2
Fore
SplineSet
166 -20 m 1,0,-1
 156 -20 l 1,1,-1
 454 1384 l 1,2,-1
 749 1510 l 1,3,-1
 1361 1510 l 1,4,-1
 1359 1500 l 1,5,-1
 1161 1210 l 1,6,-1
 737 1210 l 1,7,-1
 672 905 l 1,8,-1
 1232 905 l 1,9,-1
 1230 895 l 1,10,-1
 1033 605 l 1,11,-1
 609 605 l 1,12,-1
 507 127 l 1,13,-1
 166 -20 l 1,0,-1
EndSplineSet
Validated: 1
EndChar

StartChar: G
Encoding: 71 71 42
Width: 1340
GlyphClass: 2
Flags: W
HStem: -20 300<564.447 909.086> 1230 300<749.281 1096.31>
VStem: 196 334<236.5 561.375>
DStem2: 115.388 -20 436.161 -20 0.207912 0.978148<499.593 1300.29>
LayerCount: 2
Fore
SplineSet
696 -20 m 128,-1,1
 482 -20 482 -20 320 82 c 0,2,3
 196 160 196 160 196 313 c 0,4,5
 196 359 196 359 207 411 c 2,6,-1
 354 1099 l 2,7,8
 406 1344 406 1344 562 1428 c 0,9,10
 752 1530 752 1530 965 1530 c 0,11,12
 1192 1530 1192 1530 1341 1428 c 0,13,14
 1455 1351 1455 1351 1455 1198 c 0,15,16
 1455 1160 1455 1160 1448 1118 c 1,17,-1
 1117 974 l 1,18,-1
 1107 974 l 1,19,-1
 1126 1065 l 2,20,21
 1131 1088 1131 1088 1131 1107 c 0,22,23
 1131 1160 1131 1160 1095 1189 c 0,24,25
 1043 1230 1043 1230 933 1230 c 0,26,27
 827 1230 827 1230 751 1189 c 0,28,29
 685 1153 685 1153 666 1065 c 2,30,-1
 535 445 l 2,31,32
 530 422 530 422 530 402 c 0,33,34
 530 348 530 348 566 321 c 0,35,36
 621 280 621 280 731.5 280 c 128,-1,37
 842 280 842 280 910 321 c 0,38,39
 977 361 977 361 995 445 c 2,40,-1
 1029 605 l 1,41,-1
 696 605 l 1,42,-1
 698 615 l 1,43,-1
 895 905 l 1,44,-1
 1412 905 l 1,45,-1
 1307 411 l 2,46,47
 1256 166 1256 166 1100 82 c 0,48,0
 910 -20 910 -20 696 -20 c 128,-1,1
EndSplineSet
Validated: 1
EndChar

StartChar: H
Encoding: 72 72 43
Width: 1440
GlyphClass: 2
Flags: W
HStem: -20 21G<156 212.395 956 1012.39> 605 300<672 1089> 1510 20G<748.605 805 1548.61 1605>
DStem2: 156 -20 475.754 -20 0.207912 0.978148<216.765 705.526 1012.07 1434.3> 956 -20 1275.75 -20 0.207912 0.978148<216.765 638.995 945.537 1434.3>
LayerCount: 2
Fore
SplineSet
166 -20 m 1,0,-1
 156 -20 l 1,1,-1
 454 1383 l 1,2,-1
 795 1530 l 1,3,-1
 805 1530 l 1,4,-1
 672 905 l 1,5,-1
 1152 905 l 1,6,-1
 1254 1383 l 1,7,-1
 1595 1530 l 1,8,-1
 1605 1530 l 1,9,-1
 1307 127 l 1,10,-1
 966 -20 l 1,11,-1
 956 -20 l 1,12,-1
 1089 605 l 1,13,-1
 609 605 l 1,14,-1
 507 127 l 1,15,-1
 166 -20 l 1,0,-1
EndSplineSet
Validated: 1
EndChar

StartChar: I
Encoding: 73 73 44
Width: 640
GlyphClass: 2
Flags: W
HStem: -20 21G<156 212.395> 1510 20G<748.605 805>
VStem: 156 649
DStem2: 156 -20 475.754 -20 0.207912 0.978148<216.765 1434.3>
LayerCount: 2
Fore
SplineSet
166 -20 m 1,0,-1
 156 -20 l 1,1,-1
 454 1383 l 1,2,-1
 795 1530 l 1,3,-1
 805 1530 l 1,4,-1
 507 127 l 1,5,-1
 166 -20 l 1,0,-1
EndSplineSet
Validated: 1
EndChar

StartChar: J
Encoding: 74 74 45
Width: 1191
GlyphClass: 2
Flags: W
HStem: -20 300<445.789 765.955> 1210 300<563 1008>
DStem2: 746.555 -20 1066.39 -20 0.207912 0.978148<351.108 1257.48>
LayerCount: 2
Fore
SplineSet
562 -20 m 0,0,1
 352 -20 352 -20 201 82 c 0,2,3
 88 158 88 158 88 315 c 0,4,5
 88 352 88 352 94 393 c 1,6,-1
 425 535 l 1,7,-1
 435 535 l 1,8,-1
 416 445 l 2,9,10
 411 420 411 420 411 399 c 0,11,12
 411 344 411 344 447 321 c 0,13,14
 513 280 513 280 595.5 280 c 128,-1,15
 678 280 678 280 761 321 c 0,16,17
 827 353 827 353 846 445 c 2,18,-1
 1008 1210 l 1,19,-1
 363 1210 l 1,20,-1
 365 1220 l 1,21,-1
 563 1510 l 1,22,-1
 1392 1510 l 1,23,-1
 1158 411 l 2,24,25
 1107 166 1107 166 951 82 c 0,26,27
 761 -20 761 -20 562 -20 c 0,0,1
EndSplineSet
Validated: 1
EndChar

StartChar: K
Encoding: 75 75 46
Width: 1380
GlyphClass: 2
Flags: W
HStem: -20 21G<156 212.395 936 992.395> 1510 20G<748.605 805 1268.03 1344.1>
VStem: 1084 332<524.328 850.5>
DStem2: 156 -20 475.754 -20 0.207912 0.978148<216.765 876.287 1227.81 1434.3> 717 1116 1129 1091 0.813449 0.581637<320.6 711.784> 936 -20 1255.75 -20 0.207912 0.978148<216.765 728.555>
LayerCount: 2
Fore
SplineSet
166 -20 m 1,0,-1
 156 -20 l 1,1,-1
 454 1383 l 1,2,-1
 795 1530 l 1,3,-1
 805 1530 l 1,4,-1
 717 1116 l 1,5,-1
 1296 1530 l 1,6,-1
 1306 1530 l 1,7,-1
 1567 1393 l 1,8,-1
 1129 1091 l 1,9,10
 1209 1071 1209 1071 1294 1011 c 0,11,12
 1416 925 1416 925 1416 776 c 0,13,14
 1416 732 1416 732 1405 682 c 2,15,-1
 1287 127 l 1,16,-1
 946 -20 l 1,17,-1
 936 -20 l 1,18,-1
 1078 648 l 2,19,20
 1084 674 1084 674 1084 694 c 0,21,22
 1084 748 1084 748 1046 772 c 0,23,24
 980 813 980 813 883 813 c 128,-1,25
 786 813 786 813 702 772 c 0,26,27
 638 740 638 740 618 648 c 2,28,-1
 507 127 l 1,29,-1
 166 -20 l 1,0,-1
EndSplineSet
Validated: 1
EndChar

StartChar: L
Encoding: 76 76 47
Width: 1100
GlyphClass: 2
Flags: W
HStem: 0 300<544 954> 1510 20G<748.288 805>
DStem2: 160 0 480.233 0 0.207912 0.978148<373.282 1414.88>
LayerCount: 2
Fore
SplineSet
160 0 m 1,0,-1
 454 1384 l 1,1,-1
 795 1530 l 1,2,-1
 805 1530 l 1,3,-1
 544 300 l 1,4,-1
 1154 300 l 1,5,-1
 1152 290 l 1,6,-1
 954 0 l 1,7,-1
 160 0 l 1,0,-1
EndSplineSet
Validated: 1
EndChar

StartChar: M
Encoding: 77 77 48
Width: 2220
GlyphClass: 2
Flags: W
HStem: -20 21G<136 192.395 946 1002.39 1756 1812.39> 1230 300<767.015 1143.96 1574.47 1955.72>
VStem: 1992 333<946.727 1273>
DStem2: 136 -20 455.754 -20 0.207912 0.978148<216.765 1300.17> 946 -20 1265.75 -20 0.207912 0.978148<216.765 1155.69> 1756 -20 2075.75 -20 0.207912 0.978148<216.765 1155.69>
LayerCount: 2
Fore
SplineSet
146 -20 m 1,0,-1
 136 -20 l 1,1,-1
 374 1099 l 2,2,3
 426 1344 426 1344 582 1428 c 0,4,5
 772 1530 772 1530 1002.5 1530 c 128,-1,6
 1233 1530 1233 1530 1382 1423 c 1,7,8
 1579 1530 1579 1530 1809 1530 c 0,9,10
 2038 1530 2038 1530 2200 1428 c 0,11,12
 2325 1349 2325 1349 2325 1197 c 0,13,14
 2325 1151 2325 1151 2314 1099 c 2,15,-1
 2107 127 l 1,16,-1
 1766 -20 l 1,17,-1
 1756 -20 l 1,18,-1
 1986 1065 l 2,19,20
 1992 1091 1992 1091 1992 1112 c 0,21,22
 1992 1166 1992 1166 1955 1189 c 0,23,24
 1889 1230 1889 1230 1776.5 1230 c 128,-1,25
 1664 1230 1664 1230 1581 1189 c 0,26,27
 1516 1157 1516 1157 1496 1065 c 2,28,-1
 1297 127 l 1,29,-1
 956 -20 l 1,30,-1
 946 -20 l 1,31,-1
 1176 1065 l 2,32,33
 1182 1091 1182 1091 1182 1112 c 0,34,35
 1182 1166 1182 1166 1145 1189 c 0,36,37
 1079 1230 1079 1230 966.5 1230 c 128,-1,38
 854 1230 854 1230 771 1189 c 0,39,40
 706 1157 706 1157 686 1065 c 2,41,-1
 487 127 l 1,42,-1
 146 -20 l 1,0,-1
EndSplineSet
Validated: 1
EndChar

StartChar: N
Encoding: 78 78 49
Width: 1410
GlyphClass: 2
Flags: W
HStem: -20 21G<136 192.395 946 1002.39> 1230 300<766.74 1145.94>
VStem: 1182 333<946.727 1273>
DStem2: 136 -20 455.754 -20 0.207912 0.978148<216.765 1300.17> 946 -20 1265.75 -20 0.207912 0.978148<216.765 1155.69>
LayerCount: 2
Fore
SplineSet
146 -20 m 1,0,-1
 136 -20 l 1,1,-1
 374 1099 l 2,2,3
 426 1344 426 1344 582 1428 c 0,4,5
 772 1530 772 1530 1000 1530 c 128,-1,6
 1228 1530 1228 1530 1390 1428 c 0,7,8
 1515 1349 1515 1349 1515 1197 c 0,9,10
 1515 1151 1515 1151 1504 1099 c 2,11,-1
 1297 127 l 1,12,-1
 956 -20 l 1,13,-1
 946 -20 l 1,14,-1
 1176 1065 l 2,15,16
 1182 1091 1182 1091 1182 1112 c 0,17,18
 1182 1166 1182 1166 1145 1189 c 0,19,20
 1079 1230 1079 1230 966.5 1230 c 128,-1,21
 854 1230 854 1230 771 1189 c 0,22,23
 706 1157 706 1157 686 1065 c 2,24,-1
 487 127 l 1,25,-1
 146 -20 l 1,0,-1
EndSplineSet
Validated: 1
EndChar

StartChar: O
Encoding: 79 79 50
Width: 1370
GlyphClass: 2
Flags: W
HStem: -20 300<564.491 944.65> 1230 300<746.74 1125.94>
VStem: 197 332<242.5 571.594> 1162 333<948.625 1273>
DStem2: 115.388 -20 436.161 -20 0.207912 0.978148<495.504 1300.92> 925.376 -20 1245.39 -20 0.207912 0.978148<351.145 1155.82>
LayerCount: 2
Fore
SplineSet
745 280 m 128,-1,1
 857 280 857 280 940 321 c 0,2,3
 1005 353 1005 353 1025 445 c 2,4,-1
 1156 1065 l 2,5,6
 1162 1091 1162 1091 1162 1112 c 0,7,8
 1162 1166 1162 1166 1125 1189 c 0,9,10
 1059 1230 1059 1230 946.5 1230 c 128,-1,11
 834 1230 834 1230 751 1189 c 0,12,13
 686 1157 686 1157 666 1065 c 2,14,-1
 535 445 l 2,15,16
 529 419 529 419 529 398 c 0,17,18
 529 344 529 344 566 321 c 0,19,0
 633 280 633 280 745 280 c 128,-1,1
711 -20 m 0,20,21
 466 -20 466 -20 320 82 c 0,22,23
 197 167 197 167 197 318 c 0,24,25
 197 362 197 362 207 411 c 2,26,-1
 354 1099 l 2,27,28
 408 1345 408 1345 562 1428 c 0,29,30
 752 1530 752 1530 980 1530 c 128,-1,31
 1208 1530 1208 1530 1370 1428 c 0,32,33
 1495 1349 1495 1349 1495 1197 c 0,34,35
 1495 1151 1495 1151 1484 1099 c 2,36,-1
 1337 411 l 2,37,38
 1286 166 1286 166 1130 82 c 0,39,40
 940 -20 940 -20 711 -20 c 0,20,21
EndSplineSet
Validated: 1
EndChar

StartChar: P
Encoding: 80 80 51
Width: 1270
GlyphClass: 2
Flags: W
HStem: -20 21G<156 212.395> 440 300<637 1031.31> 1210 300<749 1107.93>
VStem: 1148 332<918.938 1253.5>
DStem2: 156 -20 475.754 -20 0.207912 0.978148<216.765 536.855 843.398 1323.92>
LayerCount: 2
Fore
SplineSet
166 -20 m 1,0,-1
 156 -20 l 1,1,-1
 454 1383 l 1,2,-1
 749 1510 l 1,3,-1
 966 1510 l 2,4,5
 1194 1510 1194 1510 1356 1408 c 0,6,7
 1480 1330 1480 1330 1480 1177 c 0,8,9
 1480 1131 1480 1131 1469 1079 c 2,10,-1
 1425 871 l 2,11,12
 1374 626 1374 626 1218 542 c 0,13,14
 1028 440 1028 440 799 440 c 2,15,-1
 574 440 l 1,16,-1
 507 127 l 1,17,-1
 166 -20 l 1,0,-1
737 1210 m 1,18,-1
 637 740 l 1,19,-1
 832 740 l 2,20,21
 945 740 945 740 1028 781 c 0,22,23
 1093 813 1093 813 1112 905 c 2,24,-1
 1142 1045 l 2,25,26
 1148 1071 1148 1071 1148 1091 c 0,27,28
 1148 1145 1148 1145 1110 1169 c 0,29,30
 1044 1210 1044 1210 932 1210 c 2,31,-1
 737 1210 l 1,18,-1
EndSplineSet
Validated: 1
EndChar

StartChar: Q
Encoding: 81 81 52
Width: 1370
GlyphClass: 2
Flags: W
HStem: -40 21G<880.744 964.505> -20 300<567.915 722.421> 1230 300<746.74 1125.94>
VStem: 197 332<242 571.594> 1162 333<948.625 1273>
DStem2: 111.137 -40 431.91 -40 0.207912 0.978148<515.951 1321.37> 921.125 -40 1241.9 -40 0.207912 0.978148<471.784 1176.26>
LayerCount: 2
Fore
SplineSet
696 -20 m 0,0,1
 469 -20 469 -20 320 82 c 0,2,3
 197 166 197 166 197 318 c 0,4,5
 197 362 197 362 207 411 c 2,6,-1
 354 1099 l 2,7,8
 408 1345 408 1345 562 1428 c 0,9,10
 752 1530 752 1530 980 1530 c 128,-1,11
 1208 1530 1208 1530 1370 1428 c 0,12,13
 1495 1349 1495 1349 1495 1197 c 0,14,15
 1495 1151 1495 1151 1484 1099 c 2,16,-1
 1337 411 l 2,17,18
 1299 232 1299 232 1171 129 c 1,19,-1
 1209 57 l 1,20,-1
 901 -40 l 1,21,-1
 891 -40 l 1,22,-1
 871 -1 l 1,23,24
 780 -20 780 -20 696 -20 c 0,0,1
724 280 m 1,25,-1
 603 512 l 1,26,-1
 910 609 l 1,27,-1
 920 609 l 1,28,-1
 1018 421 l 1,29,30
 1021 432 1021 432 1025 445 c 2,31,-1
 1156 1065 l 2,32,33
 1162 1091 1162 1091 1162 1112 c 0,34,35
 1162 1166 1162 1166 1125 1189 c 0,36,37
 1059 1230 1059 1230 946.5 1230 c 128,-1,38
 834 1230 834 1230 751 1189 c 0,39,40
 686 1157 686 1157 666 1065 c 2,41,-1
 535 445 l 2,42,43
 529 419 529 419 529 398 c 0,44,45
 529 344 529 344 566 321 c 0,46,47
 627 283 627 283 724 280 c 1,25,-1
EndSplineSet
Validated: 1
EndChar

StartChar: R
Encoding: 82 82 53
Width: 1369
GlyphClass: 2
Flags: W
HStem: -20 21G<156 212.395 1044.09 1114.52> 440 300<637 782> 1210 300<749 1107.93>
VStem: 1148 331<915.125 1247>
DStem2: 156 -20 475.754 -20 0.207912 0.978148<216.765 536.855 843.398 1323.92> 1108 504 782 440 0.511747 -0.859136<0 423.577>
LayerCount: 2
Fore
SplineSet
737 1210 m 1,0,-1
 637 740 l 1,1,-1
 832 740 l 2,2,3
 945 740 945 740 1028 781 c 0,4,5
 1093 813 1093 813 1112 905 c 2,6,-1
 1142 1045 l 2,7,8
 1148 1071 1148 1071 1148 1091 c 0,9,10
 1148 1145 1148 1145 1110 1169 c 0,11,12
 1044 1210 1044 1210 932 1210 c 2,13,-1
 737 1210 l 1,0,-1
166 -20 m 1,14,-1
 156 -20 l 1,15,-1
 454 1383 l 1,16,-1
 749 1510 l 1,17,-1
 966 1510 l 2,18,19
 1210 1510 1210 1510 1356 1408 c 0,20,21
 1479 1322 1479 1322 1479 1172 c 0,22,23
 1479 1128 1479 1128 1469 1079 c 2,24,-1
 1425 871 l 2,25,26
 1374 630 1374 630 1217 542 c 0,27,28
 1169 515 1169 515 1108 504 c 1,29,-1
 1362 102 l 1,30,-1
 1066 -20 l 1,31,-1
 1056 -20 l 1,32,-1
 782 440 l 1,33,-1
 574 440 l 1,34,-1
 507 127 l 1,35,-1
 166 -20 l 1,14,-1
EndSplineSet
Validated: 1
EndChar

StartChar: T
Encoding: 84 84 54
Width: 1190
GlyphClass: 2
Flags: W
HStem: -20 21G<431 487.712> 1210 300<467 692 1012 1301>
DStem2: 431 -20 750.967 -20 0.207912 0.978148<215.787 1257.39>
LayerCount: 2
Fore
SplineSet
441 -20 m 1,0,-1
 431 -20 l 1,1,-1
 692 1210 l 1,2,-1
 267 1210 l 1,3,-1
 269 1220 l 1,4,-1
 467 1510 l 1,5,-1
 1501 1510 l 1,6,-1
 1499 1500 l 1,7,-1
 1301 1210 l 1,8,-1
 1012 1210 l 1,9,-1
 782 126 l 1,10,-1
 441 -20 l 1,0,-1
EndSplineSet
Validated: 1
EndChar

StartChar: U
Encoding: 85 85 55
Width: 1410
GlyphClass: 2
Flags: W
HStem: -20 300<584.777 964.65> 1510 20G<728.605 785 1538.61 1595>
VStem: 216 333<236.5 563.273>
DStem2: 135.388 -20 456.161 -20 0.207912 0.978148<495.504 1434.43> 945.783 -20 1265.39 -20 0.207912 0.978148<351.061 1434.34>
LayerCount: 2
Fore
SplineSet
731 -20 m 128,-1,1
 502 -20 502 -20 340 82 c 0,2,3
 216 160 216 160 216 313 c 0,4,5
 216 359 216 359 227 411 c 2,6,-1
 434 1383 l 1,7,-1
 775 1530 l 1,8,-1
 785 1530 l 1,9,-1
 555 445 l 2,10,11
 549 419 549 419 549 398 c 0,12,13
 549 344 549 344 586 321 c 0,14,15
 652 280 652 280 764.5 280 c 128,-1,16
 877 280 877 280 960 321 c 0,17,18
 1025 353 1025 353 1045 445 c 2,19,-1
 1244 1383 l 1,20,-1
 1585 1530 l 1,21,-1
 1595 1530 l 1,22,-1
 1357 411 l 2,23,24
 1306 166 1306 166 1150 82 c 0,25,0
 960 -20 960 -20 731 -20 c 128,-1,1
EndSplineSet
Validated: 1
EndChar

StartChar: V
Encoding: 86 86 56
Width: 1361
GlyphClass: 2
Flags: W
HStem: -20 21G<544.578 604.508> 1510 20G<544.71 604.397 1380.57 1440.59>
DStem2: 601 1530 304 1406 0.168657 -0.985675<72.1326 1015.33> 771 529 851 106 0.52769 0.849437<0 1178.51>
LayerCount: 2
Fore
SplineSet
558 -20 m 1,0,-1
 548 -20 l 1,1,-1
 304 1406 l 1,2,-1
 591 1530 l 1,3,-1
 601 1530 l 1,4,-1
 771 529 l 1,5,-1
 1393 1530 l 1,6,-1
 1403 1530 l 1,7,-1
 1653 1397 l 1,8,-1
 851 106 l 1,9,-1
 558 -20 l 1,0,-1
EndSplineSet
Validated: 1
EndChar

StartChar: W
Encoding: 87 87 57
Width: 2220
GlyphClass: 2
Flags: W
HStem: -20 300<584.992 966.387 1397.1 1774.43> 1510 20G<728.605 785 1538.61 1595 2348.61 2405>
VStem: 216 333<236.5 563.273>
DStem2: 135.388 -20 456.161 -20 0.207912 0.978148<495.504 1434.43> 946.161 -20 1266.16 -20 0.207912 0.978148<495.343 1434.27> 1755.78 -20 2075.39 -20 0.207912 0.978148<351.061 1434.34>
LayerCount: 2
Fore
SplineSet
732 -20 m 128,-1,1
 502 -20 502 -20 340 82 c 0,2,3
 216 160 216 160 216 313 c 0,4,5
 216 359 216 359 227 411 c 2,6,-1
 434 1383 l 1,7,-1
 775 1530 l 1,8,-1
 785 1530 l 1,9,-1
 555 445 l 2,10,11
 549 419 549 419 549 398 c 0,12,13
 549 344 549 344 586 321 c 0,14,15
 652 280 652 280 764.5 280 c 128,-1,16
 877 280 877 280 960 321 c 0,17,18
 1025 353 1025 353 1045 445 c 2,19,-1
 1244 1383 l 1,20,-1
 1585 1530 l 1,21,-1
 1595 1530 l 1,22,-1
 1365 445 l 2,23,24
 1359 419 1359 419 1359 398 c 0,25,26
 1359 344 1359 344 1396 321 c 0,27,28
 1462 280 1462 280 1574.5 280 c 128,-1,29
 1687 280 1687 280 1770 321 c 0,30,31
 1835 353 1835 353 1855 445 c 2,32,-1
 2054 1383 l 1,33,-1
 2395 1530 l 1,34,-1
 2405 1530 l 1,35,-1
 2167 411 l 2,36,37
 2116 166 2116 166 1960 82 c 0,38,39
 1770 -20 1770 -20 1539 -20 c 128,-1,40
 1308 -20 1308 -20 1158 87 c 1,41,0
 962 -20 962 -20 732 -20 c 128,-1,1
EndSplineSet
Validated: 1
EndChar

StartChar: X
Encoding: 88 88 58
Width: 1254
GlyphClass: 2
Flags: W
HStem: -20 21G<232.92 298.722 973.618 1039.5> 1509 20G<535.898 601.4 1276.28 1341.48>
DStem2: 33 105 281 -20 0.662699 0.748886<70.7385 762.84 1210.72 1902.83> 592 1529 310 1411 0.42534 -0.905033<0 571.26 996.04 1568.2>
LayerCount: 2
Fore
SplineSet
281 -20 m 1,0,-1
 271 -20 l 1,1,-1
 33 105 l 1,2,-1
 615 763 l 1,3,-1
 310 1411 l 1,4,-1
 582 1529 l 1,5,-1
 592 1529 l 1,6,-1
 835 1012 l 1,7,-1
 1294 1530 l 1,8,-1
 1304 1530 l 1,9,-1
 1542 1403 l 1,10,-1
 960 746 l 1,11,-1
 1265 97 l 1,12,-1
 993 -20 l 1,13,-1
 983 -20 l 1,14,-1
 740 498 l 1,15,-1
 281 -20 l 1,0,-1
EndSplineSet
Validated: 1
EndChar

StartChar: Y
Encoding: 89 89 59
Width: 1270
GlyphClass: 2
Flags: W
HStem: -20 21G<471 527.395> 1510 20G<668.605 725 1458.61 1515>
VStem: 243 331<646 974.953>
DStem2: 75.7278 -20 395.501 -20 0.207912 0.978148<908.247 1434.36> 865.783 -20 1185.73 -20 0.207912 0.978148<763.016 1434.34>
LayerCount: 2
Fore
SplineSet
481 -20 m 1,0,-1
 471 -20 l 1,1,-1
 560 398 l 1,2,3
 463 418 463 418 366 485 c 0,4,5
 243 571 243 571 243 721 c 0,6,7
 243 765 243 765 253 814 c 2,8,-1
 374 1383 l 1,9,-1
 715 1530 l 1,10,-1
 725 1530 l 1,11,-1
 580 848 l 2,12,13
 574 822 574 822 574 802 c 0,14,15
 574 748 574 748 612 724 c 0,16,17
 678 683 678 683 780 683 c 128,-1,18
 882 683 882 683 966 724 c 0,19,20
 1030 756 1030 756 1050 848 c 2,21,-1
 1164 1383 l 1,22,-1
 1505 1530 l 1,23,-1
 1515 1530 l 1,24,-1
 1363 814 l 2,25,26
 1311 569 1311 569 1155 485 c 0,27,28
 1030 418 1030 418 880 398 c 1,29,-1
 822 127 l 1,30,-1
 481 -20 l 1,0,-1
EndSplineSet
Validated: 1
EndChar

StartChar: Z
Encoding: 90 90 60
Width: 1138
GlyphClass: 2
Flags: W
HStem: 0 300<585 992> 1210 300<498 874>
DStem2: 12 10 585 300 0.583413 0.812176<569.827 1477.51>
LayerCount: 2
Fore
SplineSet
10 0 m 1,0,-1
 12 10 l 1,1,-1
 874 1210 l 1,2,-1
 298 1210 l 1,3,-1
 300 1220 l 1,4,-1
 498 1510 l 1,5,-1
 1449 1510 l 1,6,-1
 1447 1500 l 1,7,-1
 585 300 l 1,8,-1
 1192 300 l 1,9,-1
 1190 290 l 1,10,-1
 992 0 l 1,11,-1
 10 0 l 1,0,-1
EndSplineSet
Validated: 1
EndChar

StartChar: bracketleft
Encoding: 91 91 61
Width: 920
GlyphClass: 2
Flags: W
HStem: -240 300<493 723> 1450 300<800 1082>
DStem2: 109 -240 429.233 -240 0.207912 0.978148<373.282 1794.24>
LayerCount: 2
Fore
SplineSet
109 -240 m 1,0,-1
 505 1624 l 1,1,-1
 800 1750 l 1,2,-1
 1282 1750 l 1,3,-1
 1280 1740 l 1,4,-1
 1082 1450 l 1,5,-1
 788 1450 l 1,6,-1
 493 60 l 1,7,-1
 923 60 l 1,8,-1
 921 50 l 1,9,-1
 723 -240 l 1,10,-1
 109 -240 l 1,0,-1
EndSplineSet
Validated: 1
EndChar

StartChar: backslash
Encoding: 92 92 62
Width: 1069
GlyphClass: 2
Flags: W
DStem2: 601 1710 351 1606 0.235692 -0.971828<42.147 1858.35>
LayerCount: 2
Fore
SplineSet
797 -200 m 1,0,-1
 787 -200 l 1,1,-1
 351 1606 l 1,2,-1
 591 1710 l 1,3,-1
 601 1710 l 1,4,-1
 1039 -96 l 1,5,-1
 797 -200 l 1,0,-1
EndSplineSet
Validated: 1
EndChar

StartChar: bracketright
Encoding: 93 93 63
Width: 920
GlyphClass: 2
Flags: W
HStem: -240 300<159 441> 1450 300<518 748>
DStem2: 389.233 -240 709.218 -240 0.207912 0.978148<306.702 1727.66>
LayerCount: 2
Fore
SplineSet
441 -240 m 1,0,-1
 -41 -240 l 1,1,-1
 -39 -230 l 1,2,-1
 159 60 l 1,3,-1
 453 60 l 1,4,-1
 748 1450 l 1,5,-1
 318 1450 l 1,6,-1
 320 1460 l 1,7,-1
 518 1750 l 1,8,-1
 1132 1750 l 1,9,-1
 736 -114 l 1,10,-1
 441 -240 l 1,0,-1
EndSplineSet
Validated: 1
EndChar

StartChar: asciicircum
Encoding: 94 94 64
Width: 1009
GlyphClass: 2
Flags: W
HStem: 1039 531
LayerCount: 2
Fore
SplineSet
538 1039 m 1,0,-1
 528 1039 l 1,1,-1
 279 1172 l 1,2,-1
 604 1442 l 1,3,-1
 900 1570 l 1,4,-1
 910 1570 l 1,5,-1
 1226 1160 l 1,6,-1
 947 1039 l 1,7,-1
 937 1039 l 1,8,-1
 778 1246 l 1,9,-1
 538 1039 l 1,0,-1
EndSplineSet
Validated: 1
EndChar

StartChar: underscore
Encoding: 95 95 65
Width: 1404
GlyphClass: 2
Flags: W
HStem: -410 200<156 1116>
LayerCount: 2
Fore
SplineSet
23 -410 m 1,0,-1
 25 -400 l 1,1,-1
 156 -210 l 1,2,-1
 1249 -210 l 1,3,-1
 1247 -220 l 1,4,-1
 1116 -410 l 1,5,-1
 23 -410 l 1,0,-1
EndSplineSet
Validated: 1
EndChar

StartChar: grave
Encoding: 96 96 66
Width: 405
GlyphClass: 2
Flags: W
HStem: 1160 410
VStem: 346 293
DStem2: 554 1570 346 1485 0.252301 -0.967649<29.7715 336.899>
LayerCount: 2
Fore
SplineSet
544 1570 m 1,0,-1
 554 1570 l 1,1,-1
 639 1244 l 1,2,-1
 444 1160 l 1,3,-1
 434 1160 l 1,4,-1
 346 1485 l 1,5,-1
 544 1570 l 1,0,-1
EndSplineSet
Validated: 1
EndChar

StartChar: a
Encoding: 97 97 67
Width: 1100
GlyphClass: 2
Flags: W
HStem: -20 220<426.139 666> 485 229<469.181 725.482> 820 280<563 790.394>
VStem: 808 317<682.609 864.5>
LayerCount: 2
Fore
SplineSet
666 -20 m 1,0,-1
 656 -20 l 1,1,-1
 663 16 l 1,2,3
 593 -20 593 -20 511 -20 c 0,4,5
 333 -20 333 -20 216 61 c 16,6,7
 103 140 103 140 103 264 c 0,8,9
 103 295 103 295 110 328 c 2,10,-1
 122 385 l 2,11,12
 158 564 158 564 286 630 c 0,13,14
 446 714 446 714 622 714 c 0,15,16
 750 714 750 714 804 682 c 1,17,18
 808 702 808 702 808 719 c 0,19,20
 808 820 808 820 659 820 c 2,21,-1
 374 820 l 1,22,-1
 376 830 l 1,23,-1
 563 1100 l 1,24,-1
 689 1100 l 2,25,26
 882 1100 882 1100 998 1017 c 16,27,28
 1125 928 1125 928 1125 801 c 0,29,30
 1125 772 1125 772 1118 741 c 2,31,-1
 985 118 l 1,32,-1
 666 -20 l 1,0,-1
546 200 m 0,33,34
 617 200 617 200 675 233 c 0,35,36
 721 259 721 259 733 322 c 2,37,-1
 742 363 l 2,38,39
 746 382 746 382 746 397 c 0,40,41
 746 435 746 435 721 452 c 0,42,43
 672 485 672 485 605 485 c 0,44,45
 535 485 535 485 476 452 c 0,46,47
 430 426 430 426 417 363 c 2,48,-1
 408 322 l 2,49,50
 404 304 404 304 404 289 c 0,51,52
 404 250 404 250 430 233 c 0,53,54
 479 200 479 200 546 200 c 0,33,34
EndSplineSet
Validated: 1
EndChar

StartChar: b
Encoding: 98 98 68
Width: 1210
GlyphClass: 2
Flags: W
HStem: -20 280<537.538 819.322> 840 280<673.011 924.745> 1510 20G<708.768 765>
VStem: 204 313<205.5 508.812> 947 313<590.688 895>
DStem2: 135.48 -20 435.552 -20 0.207912 0.978148<441.696 915.218 1196.11 1443.63> 786.133 -20 1085.48 -20 0.207912 0.978148<312.639 786.161>
LayerCount: 2
Fore
SplineSet
670 260 m 128,-1,1
 754 260 754 260 812 293 c 0,2,3
 858 319 858 319 871 382 c 2,4,-1
 943 718 l 2,5,6
 947 735 947 735 947 750 c 0,7,8
 947 788 947 788 922 807 c 0,9,10
 878 840 878 840 794 840 c 128,-1,11
 710 840 710 840 652 807 c 0,12,13
 606 781 606 781 593 718 c 2,14,-1
 521 382 l 2,15,16
 517 365 517 365 517 350 c 0,17,18
 517 312 517 312 542 293 c 0,19,0
 586 260 586 260 670 260 c 128,-1,1
641 -20 m 0,20,21
 435 -20 435 -20 312 67 c 0,22,23
 204 143 204 143 204 268 c 0,24,25
 204 302 204 302 212 340 c 2,26,-1
 436 1392 l 1,27,-1
 755 1530 l 1,28,-1
 765 1530 l 1,29,-1
 671 1089 l 1,30,31
 745 1120 745 1120 838 1120 c 0,32,33
 1028 1120 1028 1120 1152 1033 c 0,34,35
 1260 958 1260 958 1260 832 c 0,36,37
 1260 798 1260 798 1252 760 c 2,38,-1
 1162 340 l 2,39,40
 1118 136 1118 136 991 67 c 0,41,42
 830 -20 830 -20 641 -20 c 0,20,21
EndSplineSet
Validated: 1
EndChar

StartChar: c
Encoding: 99 99 69
Width: 1080
GlyphClass: 2
Flags: W
HStem: -20 280<517.098 777.622> 840 280<616.58 876.865>
VStem: 183 314<199 506.031>
DStem2: 115.48 -20 415.552 -20 0.207912 0.978148<441.696 916.798>
LayerCount: 2
Fore
SplineSet
606 -20 m 128,-1,1
 432 -20 432 -20 292 67 c 0,2,3
 183 135 183 135 183 263 c 0,4,5
 183 299 183 299 192 340 c 2,6,-1
 282 760 l 2,7,8
 326 964 326 964 453 1033 c 0,9,10
 614 1120 614 1120 788 1120 c 0,11,12
 975 1120 975 1120 1102 1033 c 0,13,14
 1200 967 1200 967 1200 838 c 0,15,16
 1200 814 1200 814 1197 787 c 1,17,-1
 889 653 l 1,18,-1
 879 653 l 1,19,-1
 893 718 l 2,20,21
 897 735 897 735 897 750 c 0,22,23
 897 788 897 788 872 807 c 0,24,25
 828 840 828 840 759 840 c 128,-1,26
 690 840 690 840 632 807 c 0,27,28
 586 781 586 781 573 718 c 2,29,-1
 501 382 l 2,30,31
 497 365 497 365 497 350 c 0,32,33
 497 312 497 312 522 293 c 0,34,35
 566 260 566 260 635 260 c 128,-1,36
 704 260 704 260 762 293 c 0,37,38
 781 304 781 304 794 321 c 1,39,-1
 1129 465 l 1,40,-1
 1139 465 l 1,41,-1
 1112 340 l 2,42,43
 1068 136 1068 136 941 67 c 0,44,0
 780 -20 780 -20 606 -20 c 128,-1,1
EndSplineSet
Validated: 1
EndChar

StartChar: d
Encoding: 100 100 70
Width: 1210
GlyphClass: 2
Flags: W
HStem: -20 280<518.242 799.322> 840 280<624.678 906.254> 1510 20G<1338.77 1395>
VStem: 183 314<199 506.031>
DStem2: 115.48 -20 415.552 -20 0.207912 0.978148<441.696 915.218> 766.133 -20 1065.48 -20 0.207912 0.978148<312.639 786.161 1133.6 1443.49>
LayerCount: 2
Fore
SplineSet
650 260 m 128,-1,1
 734 260 734 260 792 293 c 0,2,3
 838 319 838 319 851 382 c 2,4,-1
 923 718 l 2,5,6
 927 735 927 735 927 750 c 0,7,8
 927 788 927 788 902 807 c 0,9,10
 858 840 858 840 774 840 c 128,-1,11
 690 840 690 840 632 807 c 0,12,13
 586 781 586 781 573 718 c 2,14,-1
 501 382 l 2,15,16
 497 365 497 365 497 350 c 0,17,18
 497 312 497 312 522 293 c 0,19,0
 566 260 566 260 650 260 c 128,-1,1
621 -20 m 128,-1,21
 432 -20 432 -20 292 67 c 0,22,23
 183 135 183 135 183 263 c 0,24,25
 183 299 183 299 192 340 c 2,26,-1
 282 760 l 2,27,28
 326 964 326 964 453 1033 c 0,29,30
 614 1120 614 1120 803 1120 c 0,31,32
 928 1120 928 1120 1001 1089 c 1,33,-1
 1066 1392 l 1,34,-1
 1385 1530 l 1,35,-1
 1395 1530 l 1,36,-1
 1142 340 l 2,37,38
 1099 136 1099 136 971 67 c 0,39,20
 810 -20 810 -20 621 -20 c 128,-1,21
EndSplineSet
Validated: 1
EndChar

StartChar: e
Encoding: 101 101 71
Width: 1170
GlyphClass: 2
Flags: W
HStem: -20 280<517.884 786.997> 840 280<626.158 885.61>
VStem: 907 314<716.703 901>
DStem2: 541 568 499 346 0.918868 0.394565<0 408.757>
LayerCount: 2
Fore
SplineSet
611 -20 m 0,0,1
 416 -20 416 -20 292 67 c 0,2,3
 184 142 184 142 184 268 c 0,4,5
 184 302 184 302 192 340 c 2,6,-1
 282 760 l 2,7,8
 326 964 326 964 453 1033 c 0,9,10
 614 1120 614 1120 793 1120 c 128,-1,11
 972 1120 972 1120 1112 1033 c 0,12,13
 1221 964 1221 964 1221 838 c 0,14,15
 1221 802 1221 802 1212 760 c 2,16,-1
 1186 641 l 1,17,-1
 499 346 l 1,18,19
 500 310 500 310 522 293 c 0,20,21
 565 260 565 260 640 260 c 0,22,23
 714 260 714 260 772 293 c 0,24,25
 791 304 791 304 804 321 c 1,26,-1
 1139 465 l 1,27,-1
 1149 465 l 1,28,-1
 1122 340 l 2,29,30
 1078 136 1078 136 951 67 c 0,31,32
 790 -20 790 -20 611 -20 c 0,0,1
541 568 m 1,33,-1
 904 725 l 1,34,35
 907 740 907 740 907 752 c 0,36,37
 907 788 907 788 882 807 c 0,38,39
 838 840 838 840 764 840 c 128,-1,40
 690 840 690 840 632 807 c 0,41,42
 586 781 586 781 573 718 c 2,43,-1
 541 568 l 1,33,-1
EndSplineSet
Validated: 1
EndChar

StartChar: f
Encoding: 102 102 72
Width: 860
GlyphClass: 2
Flags: W
HStem: -20 21G<136 192.232> 662 280<640 823> 1230 280<735.822 982>
DStem2: 136 -20 435.667 -20 0.207912 0.978148<203.387 759.617 1045.77 1313.68>
LayerCount: 2
Fore
SplineSet
146 -20 m 1,0,-1
 136 -20 l 1,1,-1
 384 1150 l 2,2,3
 427 1354 427 1354 556 1423 c 0,4,5
 717 1510 717 1510 906 1510 c 2,6,-1
 1171 1510 l 1,7,-1
 1169 1500 l 1,8,-1
 982 1230 l 1,9,-1
 887 1230 l 2,10,11
 792 1230 792 1230 734 1197 c 0,12,13
 690 1172 690 1172 676 1108 c 2,14,-1
 640 942 l 1,15,-1
 1011 942 l 1,16,-1
 1009 932 l 1,17,-1
 823 662 l 1,18,-1
 581 662 l 1,19,-1
 465 118 l 1,20,-1
 146 -20 l 1,0,-1
EndSplineSet
Validated: 1
EndChar

StartChar: g
Encoding: 103 103 73
Width: 1210
GlyphClass: 2
Flags: W
HStem: -410 250<341 701.178> -20 280<519.255 770.596> 840 280<624.678 905.758>
VStem: 184 313<205 509.312> 927 314<593.734 901>
DStem2: 32.5826 -410 332.655 -410 0.207912 0.978148<840.409 1313.93> 682.514 -410 982.48 -410 0.207912 0.978148<282.176 430.405 711.502 1185.02>
LayerCount: 2
Fore
SplineSet
650 260 m 128,-1,1
 734 260 734 260 792 293 c 0,2,3
 838 319 838 319 851 382 c 2,4,-1
 923 718 l 2,5,6
 927 735 927 735 927 750 c 0,7,8
 927 788 927 788 902 807 c 0,9,10
 858 840 858 840 774 840 c 128,-1,11
 690 840 690 840 632 807 c 0,12,13
 586 781 586 781 573 718 c 2,14,-1
 501 382 l 2,15,16
 497 365 497 365 497 350 c 0,17,18
 497 312 497 312 522 293 c 0,19,0
 566 260 566 260 650 260 c 128,-1,1
173 -410 m 1,20,-1
 175 -400 l 1,21,-1
 341 -160 l 1,22,-1
 550 -160 l 2,23,24
 645 -160 645 -160 703 -127 c 0,25,26
 749 -101 749 -101 762 -38 c 2,27,-1
 772 11 l 1,28,29
 705 -20 705 -20 606 -20 c 0,30,31
 416 -20 416 -20 292 67 c 0,32,33
 184 142 184 142 184 268 c 0,34,35
 184 302 184 302 192 340 c 2,36,-1
 282 760 l 2,37,38
 326 964 326 964 453 1033 c 0,39,40
 614 1120 614 1120 803 1120 c 128,-1,41
 992 1120 992 1120 1132 1033 c 0,42,43
 1241 965 1241 965 1241 837 c 0,44,45
 1241 801 1241 801 1232 760 c 2,46,-1
 1059 -50 l 2,47,48
 1015 -254 1015 -254 888 -323 c 0,49,50
 727 -410 727 -410 538 -410 c 2,51,-1
 173 -410 l 1,20,-1
EndSplineSet
Validated: 1
EndChar

StartChar: h
Encoding: 104 104 74
Width: 1250
GlyphClass: 2
Flags: W
HStem: -20 21G<156 212.232 806 862.232> 840 280<693.042 944.745> 1510 20G<728.768 785>
VStem: 967 313<590.312 895>
DStem2: 156 -20 455.667 -20 0.207912 0.978148<203.387 915.11 1196 1443.52> 806 -20 1105.67 -20 0.207912 0.978148<203.387 786.188>
LayerCount: 2
Fore
SplineSet
166 -20 m 1,0,-1
 156 -20 l 1,1,-1
 456 1392 l 1,2,-1
 775 1530 l 1,3,-1
 785 1530 l 1,4,-1
 691 1089 l 1,5,6
 767 1120 767 1120 858 1120 c 0,7,8
 1048 1120 1048 1120 1172 1033 c 0,9,10
 1280 958 1280 958 1280 832 c 0,11,12
 1280 798 1280 798 1272 760 c 2,13,-1
 1135 118 l 1,14,-1
 816 -20 l 1,15,-1
 806 -20 l 1,16,-1
 963 718 l 2,17,18
 967 735 967 735 967 750 c 0,19,20
 967 788 967 788 942 807 c 0,21,22
 898 840 898 840 814 840 c 128,-1,23
 730 840 730 840 672 807 c 0,24,25
 626 781 626 781 613 718 c 2,26,-1
 485 118 l 1,27,-1
 166 -20 l 1,0,-1
EndSplineSet
Validated: 1
EndChar

StartChar: i
Encoding: 105 105 75
Width: 620
GlyphClass: 2
Flags: W
HStem: -20 21G<156 212.232> 1100 20G<641.768 698> 1179 365<511.097 687.323>
VStem: 156 628
DStem2: 156 -20 455.667 -20 0.207912 0.978148<203.387 1024.39>
LayerCount: 2
Fore
SplineSet
638 1544 m 0,0,1
 714 1544 714 1544 755 1491 c 0,2,3
 784 1453 784 1453 784 1402 c 0,4,5
 784 1383 784 1383 780 1362 c 0,6,7
 764 1287 764 1287 699.5 1233 c 128,-1,8
 635 1179 635 1179 561 1179 c 0,9,10
 485 1179 485 1179 445 1233 c 0,11,12
 415 1272 415 1272 415 1322 c 0,13,14
 415 1341 415 1341 419 1361 c 0,15,16
 435 1437 435 1437 499 1490 c 0,17,18
 563 1544 563 1544 638 1544 c 0,0,1
166 -20 m 1,19,-1
 156 -20 l 1,20,-1
 369 982 l 1,21,-1
 688 1120 l 1,22,-1
 698 1120 l 1,23,-1
 485 118 l 1,24,-1
 166 -20 l 1,19,-1
EndSplineSet
Validated: 1
EndChar

StartChar: j
Encoding: 106 106 76
Width: 620
GlyphClass: 2
Flags: W
HStem: -410 21G<-162 22.5> 1100 20G<641.768 698> 1179 365<511.097 687.323>
DStem2: 73.1213 -410 372.48 -410 0.207912 0.978148<279.768 1423.1>
LayerCount: 2
Fore
SplineSet
638 1544 m 0,0,1
 714 1544 714 1544 755 1491 c 0,2,3
 784 1453 784 1453 784 1402 c 0,4,5
 784 1383 784 1383 780 1362 c 0,6,7
 764 1287 764 1287 699.5 1233 c 128,-1,8
 635 1179 635 1179 561 1179 c 0,9,10
 485 1179 485 1179 445 1233 c 0,11,12
 415 1272 415 1272 415 1322 c 0,13,14
 415 1341 415 1341 419 1361 c 0,15,16
 435 1437 435 1437 499 1490 c 0,17,18
 563 1544 563 1544 638 1544 c 0,0,1
-162 -410 m 1,19,-1
 -160 -400 l 1,20,-1
 9 -155 l 1,21,22
 58 -147 58 -147 93 -127 c 0,23,24
 139 -101 139 -101 152 -38 c 2,25,-1
 369 982 l 1,26,-1
 688 1120 l 1,27,-1
 698 1120 l 1,28,-1
 449 -50 l 2,29,30
 406 -254 406 -254 278 -323 c 0,31,32
 117 -410 117 -410 -72 -410 c 2,33,-1
 -162 -410 l 1,19,-1
EndSplineSet
Validated: 1
EndChar

StartChar: k
Encoding: 107 107 77
Width: 1210
GlyphClass: 2
Flags: W
HStem: -20 21G<156 212.232 786 842.232> 1100 20G<1020.46 1099.85> 1510 20G<728.768 785>
VStem: 887 313<309.125 614>
DStem2: 156 -20 455.667 -20 0.207912 0.978148<203.387 627.776 961.815 1443.52>
LayerCount: 2
Fore
SplineSet
166 -20 m 1,0,-1
 156 -20 l 1,1,-1
 456 1392 l 1,2,-1
 775 1530 l 1,3,-1
 785 1530 l 1,4,-1
 642 860 l 1,5,-1
 1052 1120 l 1,6,-1
 1062 1120 l 1,7,-1
 1308 990 l 1,8,-1
 999 802 l 1,9,10
 1049 782 1049 782 1092 752 c 0,11,12
 1200 677 1200 677 1200 551 c 0,13,14
 1200 517 1200 517 1192 479 c 2,15,-1
 1115 118 l 1,16,-1
 796 -20 l 1,17,-1
 786 -20 l 1,18,-1
 883 437 l 2,19,20
 887 454 887 454 887 469 c 0,21,22
 887 507 887 507 862 526 c 0,23,24
 818 559 818 559 744 559 c 128,-1,25
 670 559 670 559 612 526 c 0,26,27
 566 500 566 500 553 437 c 2,28,-1
 485 118 l 1,29,-1
 166 -20 l 1,0,-1
EndSplineSet
Validated: 1
EndChar

StartChar: l
Encoding: 108 108 78
Width: 620
GlyphClass: 2
Flags: W
HStem: -20 21G<156 212.232> 1510 20G<728.768 785>
VStem: 156 629
DStem2: 156 -20 455.667 -20 0.207912 0.978148<203.387 1443.52>
LayerCount: 2
Fore
SplineSet
166 -20 m 1,0,-1
 156 -20 l 1,1,-1
 456 1392 l 1,2,-1
 775 1530 l 1,3,-1
 785 1530 l 1,4,-1
 485 118 l 1,5,-1
 166 -20 l 1,0,-1
EndSplineSet
Validated: 1
EndChar

StartChar: m
Encoding: 109 109 79
Width: 1880
GlyphClass: 2
Flags: W
HStem: -20 21G<136 192.232 786 842.232 1436 1492.23> 840 280<644.678 926.329 1296.86 1575.76>
VStem: 1597 314<595.328 901>
DStem2: 136 -20 435.667 -20 0.207912 0.978148<203.387 915.11> 786 -20 1085.67 -20 0.207912 0.978148<203.387 786.188> 1436 -20 1735.67 -20 0.207912 0.978148<203.387 786.188>
LayerCount: 2
Fore
SplineSet
146 -20 m 1,0,-1
 136 -20 l 1,1,-1
 302 760 l 2,2,3
 345 964 345 964 473 1033 c 0,4,5
 634 1120 634 1120 823 1120 c 0,6,7
 1007 1120 1007 1120 1130 1037 c 1,8,9
 1289 1120 1289 1120 1473 1120 c 0,10,11
 1662 1120 1662 1120 1802 1033 c 0,12,13
 1911 965 1911 965 1911 837 c 0,14,15
 1911 801 1911 801 1902 760 c 2,16,-1
 1765 118 l 1,17,-1
 1446 -20 l 1,18,-1
 1436 -20 l 1,19,-1
 1593 718 l 2,20,21
 1597 735 1597 735 1597 750 c 0,22,23
 1597 788 1597 788 1572 807 c 0,24,25
 1528 840 1528 840 1444 840 c 128,-1,26
 1360 840 1360 840 1302 807 c 0,27,28
 1256 781 1256 781 1243 718 c 2,29,-1
 1115 118 l 1,30,-1
 796 -20 l 1,31,-1
 786 -20 l 1,32,-1
 943 718 l 2,33,34
 947 735 947 735 947 750 c 0,35,36
 947 788 947 788 922 807 c 0,37,38
 878 840 878 840 794 840 c 128,-1,39
 710 840 710 840 652 807 c 0,40,41
 606 781 606 781 593 718 c 2,42,-1
 465 118 l 1,43,-1
 146 -20 l 1,0,-1
EndSplineSet
Validated: 1
EndChar

StartChar: n
Encoding: 110 110 80
Width: 1230
GlyphClass: 2
Flags: W
HStem: -20 21G<136 192.232 786 842.232> 840 280<644.678 925.758>
VStem: 947 314<595.328 901>
DStem2: 136 -20 435.667 -20 0.207912 0.978148<203.387 915.11> 786 -20 1085.67 -20 0.207912 0.978148<203.387 786.188>
LayerCount: 2
Fore
SplineSet
146 -20 m 1,0,-1
 136 -20 l 1,1,-1
 302 760 l 2,2,3
 345 964 345 964 473 1033 c 0,4,5
 634 1120 634 1120 823 1120 c 128,-1,6
 1012 1120 1012 1120 1152 1033 c 0,7,8
 1261 965 1261 965 1261 837 c 0,9,10
 1261 801 1261 801 1252 760 c 2,11,-1
 1115 118 l 1,12,-1
 796 -20 l 1,13,-1
 786 -20 l 1,14,-1
 943 718 l 2,15,16
 947 735 947 735 947 750 c 0,17,18
 947 788 947 788 922 807 c 0,19,20
 878 840 878 840 794 840 c 128,-1,21
 710 840 710 840 652 807 c 0,22,23
 606 781 606 781 593 718 c 2,24,-1
 465 118 l 1,25,-1
 146 -20 l 1,0,-1
EndSplineSet
Validated: 1
EndChar

StartChar: o
Encoding: 111 111 81
Width: 1190
GlyphClass: 2
Flags: W
HStem: -20 280<517.74 799.322> 840 280<624.678 905.758>
VStem: 184 313<205 509.312> 927 314<593.969 901>
DStem2: 115.48 -20 415.552 -20 0.207912 0.978148<441.696 915.218> 766.133 -20 1065.48 -20 0.207912 0.978148<312.639 786.161>
LayerCount: 2
Fore
SplineSet
621 -20 m 0,0,1
 416 -20 416 -20 292 67 c 0,2,3
 184 142 184 142 184 268 c 0,4,5
 184 302 184 302 192 340 c 2,6,-1
 282 760 l 2,7,8
 326 964 326 964 453 1033 c 0,9,10
 614 1120 614 1120 803 1120 c 128,-1,11
 992 1120 992 1120 1132 1033 c 0,12,13
 1241 965 1241 965 1241 837 c 0,14,15
 1241 801 1241 801 1232 760 c 2,16,-1
 1142 340 l 2,17,18
 1098 136 1098 136 971 67 c 0,19,20
 810 -20 810 -20 621 -20 c 0,0,1
650 260 m 128,-1,22
 734 260 734 260 792 293 c 0,23,24
 838 319 838 319 851 382 c 2,25,-1
 923 718 l 2,26,27
 927 735 927 735 927 750 c 0,28,29
 927 788 927 788 902 807 c 0,30,31
 858 840 858 840 774 840 c 128,-1,32
 690 840 690 840 632 807 c 0,33,34
 586 781 586 781 573 718 c 2,35,-1
 501 382 l 2,36,37
 497 365 497 365 497 350 c 0,38,39
 497 312 497 312 522 293 c 0,40,21
 566 260 566 260 650 260 c 128,-1,22
EndSplineSet
Validated: 1
EndChar

StartChar: p
Encoding: 112 112 82
Width: 1210
GlyphClass: 2
Flags: W
HStem: -430 21G<49 105.232> -20 280<537.628 819.322> 840 280<644.678 925.758>
VStem: 947 314<593.969 901>
DStem2: 49 -430 348.667 -430 0.207912 0.978148<203.387 513.072 860.717 1334.24> 698.985 -430 998.331 -430 0.207912 0.978148<731.799 1205.32>
LayerCount: 2
Fore
SplineSet
794 840 m 128,-1,1
 710 840 710 840 652 807 c 0,2,3
 606 781 606 781 593 718 c 2,4,-1
 521 382 l 2,5,6
 517 365 517 365 517 350 c 0,7,8
 517 312 517 312 542 293 c 0,9,10
 586 260 586 260 670 260 c 128,-1,11
 754 260 754 260 812 293 c 0,12,13
 858 319 858 319 871 382 c 2,14,-1
 943 718 l 2,15,16
 947 735 947 735 947 750 c 0,17,18
 947 788 947 788 922 807 c 0,19,0
 878 840 878 840 794 840 c 128,-1,1
641 -20 m 0,20,21
 516 -20 516 -20 442 11 c 1,22,-1
 378 -292 l 1,23,-1
 59 -430 l 1,24,-1
 49 -430 l 1,25,-1
 302 760 l 2,26,27
 345 964 345 964 473 1033 c 0,28,29
 634 1120 634 1120 823 1120 c 128,-1,30
 1012 1120 1012 1120 1152 1033 c 0,31,32
 1261 965 1261 965 1261 837 c 0,33,34
 1261 801 1261 801 1252 760 c 2,35,-1
 1162 340 l 2,36,37
 1118 136 1118 136 991 67 c 0,38,39
 830 -20 830 -20 641 -20 c 0,20,21
EndSplineSet
Validated: 1
EndChar

StartChar: q
Encoding: 113 113 83
Width: 1210
GlyphClass: 2
Flags: W
HStem: -430 21G<679 735.232> -20 280<519.255 770.55> 840 280<624.678 906.462>
VStem: 184 313<205 509.312> 927 313<591.188 894.5>
DStem2: 28.3314 -430 328.404 -430 0.207912 0.978148<860.856 1334.38> 679 -430 978.667 -430 0.207912 0.978148<203.387 450.699 731.796 1205.32>
LayerCount: 2
Fore
SplineSet
774 840 m 128,-1,1
 690 840 690 840 632 807 c 0,2,3
 586 781 586 781 573 718 c 2,4,-1
 501 382 l 2,5,6
 497 365 497 365 497 350 c 0,7,8
 497 312 497 312 522 293 c 0,9,10
 566 260 566 260 650 260 c 128,-1,11
 734 260 734 260 792 293 c 0,12,13
 838 319 838 319 851 382 c 2,14,-1
 923 718 l 2,15,16
 927 735 927 735 927 750 c 0,17,18
 927 788 927 788 902 807 c 0,19,0
 858 840 858 840 774 840 c 128,-1,1
606 -20 m 0,20,21
 416 -20 416 -20 292 67 c 0,22,23
 184 142 184 142 184 268 c 0,24,25
 184 302 184 302 192 340 c 2,26,-1
 282 760 l 2,27,28
 326 964 326 964 453 1033 c 0,29,30
 614 1120 614 1120 803 1120 c 0,31,32
 1009 1120 1009 1120 1132 1033 c 0,33,34
 1240 957 1240 957 1240 832 c 0,35,36
 1240 798 1240 798 1232 760 c 2,37,-1
 1008 -292 l 1,38,-1
 689 -430 l 1,39,-1
 679 -430 l 1,40,-1
 772 11 l 1,41,42
 702 -20 702 -20 606 -20 c 0,20,21
EndSplineSet
Validated: 1
EndChar

StartChar: r
Encoding: 114 114 84
Width: 860
GlyphClass: 2
Flags: W
HStem: -20 21G<136 192.232> 820 280<648.822 895>
DStem2: 136 -20 435.667 -20 0.207912 0.978148<203.387 894.507>
LayerCount: 2
Fore
SplineSet
146 -20 m 1,0,-1
 136 -20 l 1,1,-1
 297 740 l 2,2,3
 340 944 340 944 468 1013 c 0,4,5
 630 1100 630 1100 819 1100 c 2,6,-1
 1084 1100 l 1,7,-1
 1082 1090 l 1,8,-1
 895 820 l 1,9,-1
 800 820 l 2,10,11
 705 820 705 820 647 787 c 0,12,13
 601 761 601 761 588 698 c 2,14,-1
 465 118 l 1,15,-1
 146 -20 l 1,0,-1
EndSplineSet
Validated: 1
EndChar

StartChar: t
Encoding: 116 116 85
Width: 890
GlyphClass: 2
Flags: W
HStem: -20 21G<296 352.316> 820 280<373 474 824 925> 1510 20G<858.684 915>
DStem2: 296 -20 585.73 -20 0.207912 0.978148<196.21 858.652 1205.3 1448.62>
LayerCount: 2
Fore
SplineSet
306 -20 m 1,0,-1
 296 -20 l 1,1,-1
 474 820 l 1,2,-1
 184 820 l 1,3,-1
 186 830 l 1,4,-1
 373 1100 l 1,5,-1
 534 1100 l 1,6,-1
 597 1397 l 1,7,-1
 905 1530 l 1,8,-1
 915 1530 l 1,9,-1
 824 1100 l 1,10,-1
 1114 1100 l 1,11,-1
 1112 1090 l 1,12,-1
 925 820 l 1,13,-1
 764 820 l 1,14,-1
 614 113 l 1,15,-1
 306 -20 l 1,0,-1
EndSplineSet
Validated: 1
EndChar

StartChar: u
Encoding: 117 117 86
Width: 1230
GlyphClass: 2
Flags: W
HStem: -20 280<538.242 819.322> 1100 20G<621.768 678 1271.77 1328>
VStem: 203 314<199 504.672>
DStem2: 135.48 -20 435.552 -20 0.207912 0.978148<441.696 1024.5> 786.018 -20 1085.48 -20 0.207912 0.978148<312.663 1024.39>
LayerCount: 2
Fore
SplineSet
641 -20 m 128,-1,1
 452 -20 452 -20 312 67 c 0,2,3
 203 135 203 135 203 263 c 0,4,5
 203 299 203 299 212 340 c 2,6,-1
 349 982 l 1,7,-1
 668 1120 l 1,8,-1
 678 1120 l 1,9,-1
 521 382 l 2,10,11
 517 365 517 365 517 350 c 0,12,13
 517 312 517 312 542 293 c 0,14,15
 586 260 586 260 670 260 c 128,-1,16
 754 260 754 260 812 293 c 0,17,18
 858 319 858 319 871 382 c 2,19,-1
 999 982 l 1,20,-1
 1318 1120 l 1,21,-1
 1328 1120 l 1,22,-1
 1162 340 l 2,23,24
 1119 136 1119 136 991 67 c 0,25,0
 830 -20 830 -20 641 -20 c 128,-1,1
EndSplineSet
Validated: 1
EndChar

StartChar: v
Encoding: 118 118 87
Width: 1084
GlyphClass: 2
Flags: W
HStem: -20 21G<408.207 468.25> 1100 20G<441.846 501.324 1029.46 1091.18>
DStem2: 498 1120 218 1003 0.186318 -0.98249<62.7823 695.228> 612 434 718 108 0.54133 0.84081<0 809.568>
LayerCount: 2
Fore
SplineSet
422 -20 m 1,0,-1
 412 -20 l 1,1,-1
 218 1003 l 1,2,-1
 488 1120 l 1,3,-1
 498 1120 l 1,4,-1
 612 434 l 1,5,-1
 1042 1120 l 1,6,-1
 1052 1120 l 1,7,-1
 1291 998 l 1,8,-1
 718 108 l 1,9,-1
 422 -20 l 1,0,-1
EndSplineSet
Validated: 1
EndChar

StartChar: w
Encoding: 119 119 88
Width: 1880
GlyphClass: 2
Flags: W
HStem: -20 280<538.242 819.672 1187.62 1469.32> 1100 20G<621.768 678 1271.77 1328 1921.77 1978>
VStem: 203 314<199 504.672>
DStem2: 135.48 -20 435.552 -20 0.207912 0.978148<441.696 1024.5> 785.552 -20 1085.55 -20 0.207912 0.978148<441.681 1024.48> 1436.02 -20 1735.48 -20 0.207912 0.978148<312.663 1024.39>
LayerCount: 2
Fore
SplineSet
641 -20 m 0,0,1
 452 -20 452 -20 312 67 c 0,2,3
 203 135 203 135 203 263 c 0,4,5
 203 299 203 299 212 340 c 2,6,-1
 349 982 l 1,7,-1
 668 1120 l 1,8,-1
 678 1120 l 1,9,-1
 521 382 l 2,10,11
 517 365 517 365 517 350 c 0,12,13
 517 312 517 312 542 293 c 0,14,15
 586 260 586 260 670 260 c 128,-1,16
 754 260 754 260 812 293 c 0,17,18
 858 319 858 319 871 382 c 2,19,-1
 999 982 l 1,20,-1
 1318 1120 l 1,21,-1
 1328 1120 l 1,22,-1
 1171 382 l 2,23,24
 1167 365 1167 365 1167 350 c 0,25,26
 1167 312 1167 312 1192 293 c 0,27,28
 1236 260 1236 260 1320 260 c 128,-1,29
 1404 260 1404 260 1462 293 c 0,30,31
 1508 319 1508 319 1521 382 c 2,32,-1
 1649 982 l 1,33,-1
 1968 1120 l 1,34,-1
 1978 1120 l 1,35,-1
 1812 340 l 2,36,37
 1769 136 1769 136 1641 67 c 0,38,39
 1480 -20 1480 -20 1291 -20 c 0,40,41
 1107 -20 1107 -20 983 63 c 1,42,43
 825 -20 825 -20 641 -20 c 0,0,1
EndSplineSet
Validated: 1
EndChar

StartChar: x
Encoding: 120 120 89
Width: 985
GlyphClass: 2
Flags: W
HStem: -20 21G<212.069 278.16 722.148 788.667> 1100 20G<430.761 496.822 940.893 1006.44>
DStem2: 30 96 260 -20 0.671916 0.740627<68.6281 523.826 926.674 1382.61> 487 1120 225 1011 0.440941 -0.897536<0 376.563 755.556 1131.22>
LayerCount: 2
Fore
SplineSet
260 -20 m 1,0,-1
 250 -20 l 1,1,-1
 30 96 l 1,2,-1
 448 557 l 1,3,-1
 225 1011 l 1,4,-1
 477 1120 l 1,5,-1
 487 1120 l 1,6,-1
 653 782 l 1,7,-1
 959 1120 l 1,8,-1
 969 1120 l 1,9,-1
 1188 1003 l 1,10,-1
 771 543 l 1,11,-1
 994 88 l 1,12,-1
 742 -20 l 1,13,-1
 732 -20 l 1,14,-1
 566 317 l 1,15,-1
 260 -20 l 1,0,-1
EndSplineSet
Validated: 1
EndChar

StartChar: y
Encoding: 121 121 90
Width: 1250
GlyphClass: 2
Flags: W
HStem: -410 250<361 721.178> -20 280<537.137 790.52> 1100 20G<621.768 678 1271.77 1328>
VStem: 204 313<204.5 509.688>
DStem2: 52.5826 -410 352.655 -410 0.207912 0.978148<840.409 1423.21> 702.514 -410 1002.48 -410 0.207912 0.978148<282.176 430.405 711.496 1423.22>
LayerCount: 2
Fore
SplineSet
193 -410 m 1,0,-1
 195 -400 l 1,1,-1
 361 -160 l 1,2,-1
 570 -160 l 2,3,4
 665 -160 665 -160 723 -127 c 0,5,6
 769 -101 769 -101 782 -38 c 2,7,-1
 792 11 l 1,8,9
 720 -20 720 -20 626 -20 c 0,10,11
 439 -20 439 -20 312 67 c 0,12,13
 204 141 204 141 204 268 c 0,14,15
 204 302 204 302 212 340 c 2,16,-1
 349 982 l 1,17,-1
 668 1120 l 1,18,-1
 678 1120 l 1,19,-1
 521 382 l 2,20,21
 517 365 517 365 517 350 c 0,22,23
 517 312 517 312 542 293 c 0,24,25
 586 260 586 260 670 260 c 128,-1,26
 754 260 754 260 812 293 c 0,27,28
 857 319 857 319 871 382 c 2,29,-1
 999 982 l 1,30,-1
 1318 1120 l 1,31,-1
 1328 1120 l 1,32,-1
 1079 -50 l 2,33,34
 1036 -254 1036 -254 908 -323 c 0,35,36
 747 -410 747 -410 558 -410 c 2,37,-1
 193 -410 l 1,0,-1
EndSplineSet
Validated: 1
EndChar

StartChar: z
Encoding: 122 122 91
Width: 975
GlyphClass: 2
Flags: W
HStem: 0 280<561 835> 820 280<405 647>
DStem2: 647 820 561 280 0.616963 0.786992<-478.035 0>
LayerCount: 2
Fore
SplineSet
10 0 m 1,0,-1
 12 10 l 1,1,-1
 647 820 l 1,2,-1
 216 820 l 1,3,-1
 218 830 l 1,4,-1
 405 1100 l 1,5,-1
 1198 1100 l 1,6,-1
 1196 1090 l 1,7,-1
 561 280 l 1,8,-1
 1024 280 l 1,9,-1
 1021 270 l 1,10,-1
 835 0 l 1,11,-1
 10 0 l 1,0,-1
EndSplineSet
Validated: 1
EndChar

StartChar: braceleft
Encoding: 123 123 92
Width: 830
GlyphClass: 2
Flags: W
HStem: 1449 301<908.56 1108>
VStem: 265 331<22.5 346.797>
DStem2: 183.388 -240 502.949 -240 0.207912 0.978148<497.222 879.174 1155.12 1749.81>
LayerCount: 2
Fore
SplineSet
749 -240 m 1,0,1
 534 -240 534 -240 388 -138 c 0,2,3
 265 -53 265 -53 265 98 c 0,4,5
 265 142 265 142 275 191 c 2,6,-1
 366 620 l 1,7,-1
 142 620 l 1,8,-1
 144 630 l 1,9,-1
 324 890 l 1,10,-1
 423 890 l 1,11,-1
 514 1319 l 2,12,13
 566 1564 566 1564 722 1648 c 0,14,15
 912 1750 912 1750 1172 1750 c 1,16,-1
 1108 1449 l 1,17,18
 995 1449 995 1449 911 1408 c 0,19,20
 847 1376 847 1376 827 1284 c 2,21,-1
 602 226 l 2,22,23
 596 200 596 200 596 180 c 0,24,25
 596 126 596 126 634 102 c 0,26,27
 700 61 700 61 813 61 c 1,28,-1
 749 -240 l 1,0,1
EndSplineSet
Validated: 1
EndChar

StartChar: bar
Encoding: 124 124 93
Width: 690
GlyphClass: 2
Flags: W
VStem: 167 676
DStem2: 167 -200 437.643 -200 0.207912 0.978148<183.04 1825.98>
LayerCount: 2
Fore
SplineSet
167 -200 m 1,0,-1
 547 1586 l 1,1,-1
 833 1710 l 1,2,-1
 843 1710 l 1,3,-1
 464 -76 l 1,4,-1
 177 -200 l 1,5,-1
 167 -200 l 1,0,-1
EndSplineSet
Validated: 1
EndChar

StartChar: braceright
Encoding: 125 125 94
Width: 830
GlyphClass: 2
Flags: W
HStem: -240 301<43 242.44>
VStem: 555 331<1163.2 1487.5>
DStem2: 224.949 -240 545.201 -240 0.207912 0.978148<351.116 945.797 1221.75 1603.7>
LayerCount: 2
Fore
SplineSet
-21 -240 m 1,0,-1
 43 61 l 1,1,2
 156 61 156 61 240 102 c 0,3,4
 304 134 304 134 324 226 c 2,5,-1
 549 1284 l 2,6,7
 555 1310 555 1310 555 1330 c 0,8,9
 555 1384 555 1384 517 1408 c 0,10,11
 451 1449 451 1449 338 1449 c 1,12,-1
 402 1750 l 1,13,14
 618 1750 618 1750 764 1648 c 0,15,16
 886 1563 886 1563 886 1412 c 0,17,18
 886 1368 886 1368 876 1319 c 2,19,-1
 785 890 l 1,20,-1
 1009 890 l 1,21,-1
 1007 880 l 1,22,-1
 827 620 l 1,23,-1
 728 620 l 1,24,-1
 637 191 l 2,25,26
 585 -54 585 -54 429 -138 c 0,27,28
 239 -240 239 -240 -21 -240 c 1,0,-1
EndSplineSet
Validated: 1
EndChar

StartChar: asciitilde
Encoding: 126 126 95
Width: 1178
GlyphClass: 2
Flags: W
HStem: 515 482<742.748 756.534>
LayerCount: 2
Fore
SplineSet
1270 997 m 1,0,-1
 1280 997 l 1,1,2
 1178 515 1178 515 891 515 c 0,3,4
 735 515 735 515 641 666 c 0,5,6
 614 709 614 709 607 718 c 0,7,8
 598 729 598 729 586 729 c 0,9,10
 553 729 553 729 534 647 c 1,11,-1
 229 515 l 1,12,-1
 219 515 l 1,13,14
 321 997 321 997 608 997 c 0,15,16
 764 997 764 997 859 846 c 0,17,18
 886 803 886 803 893 794 c 0,19,20
 902 783 902 783 913 783 c 0,21,22
 946 783 946 783 965 865 c 1,23,-1
 1270 997 l 1,0,-1
EndSplineSet
Validated: 1
EndChar

StartChar: exclamdown
Encoding: 161 161 97
Width: 640
GlyphClass: 2
Flags: W
HStem: -430 21G<69 125.395> 755 365<431.097 607.323>
VStem: 69 635
DStem2: 69 -430 388.754 -430 0.207912 0.978148<216.765 1010.07>
LayerCount: 2
Fore
SplineSet
558 1120 m 0,0,1
 634 1120 634 1120 675 1067 c 0,2,3
 704 1029 704 1029 704 978 c 0,4,5
 704 959 704 959 700 938 c 0,6,7
 684 863 684 863 619.5 809 c 128,-1,8
 555 755 555 755 481 755 c 0,9,10
 405 755 405 755 365 809 c 0,11,12
 335 848 335 848 335 898 c 0,13,14
 335 917 335 917 339 937 c 0,15,16
 355 1013 355 1013 419 1066 c 0,17,18
 483 1120 483 1120 558 1120 c 0,0,1
79 -430 m 1,19,-1
 69 -430 l 1,20,-1
 279 558 l 1,21,-1
 620 705 l 1,22,-1
 630 705 l 1,23,-1
 420 -283 l 1,24,-1
 79 -430 l 1,19,-1
EndSplineSet
Validated: 1
EndChar

StartChar: cent
Encoding: 162 162 98
Width: 1080
GlyphClass: 2
Flags: W
VStem: 183 314<199 506.031>
DStem2: 94.224 -120 394.297 -120 0.207912 0.978148<543.93 1019.03> 509 -120 629.16 -120 0.207912 0.978148<77.122 106.301 424.662 977.315 1285.48 1317.8>
LayerCount: 2
Fore
SplineSet
640 -69 m 1,0,-1
 519 -120 l 1,1,-1
 509 -120 l 1,2,-1
 531 -16 l 1,3,4
 401 -1 401 -1 292 67 c 128,-1,5
 183 135 183 135 183 263 c 0,6,7
 183 299 183 299 192 340 c 2,8,-1
 282 760 l 2,9,10
 326 964 326 964 453 1033 c 0,11,12
 607 1116 607 1116 773 1120 c 1,13,-1
 783 1169 l 1,14,-1
 904 1220 l 1,15,-1
 914 1220 l 1,16,-1
 891 1113 l 1,17,18
 1012 1095 1012 1095 1102 1033 c 0,19,20
 1200 967 1200 967 1200 838 c 0,21,22
 1200 814 1200 814 1197 787 c 1,23,-1
 889 653 l 1,24,-1
 879 653 l 1,25,-1
 893 718 l 2,26,27
 897 735 897 735 897 750 c 0,28,29
 897 788 897 788 872 807 c 0,30,31
 854 821 854 821 831 829 c 1,32,-1
 712 271 l 1,33,34
 738 279 738 279 762 293 c 0,35,36
 781 304 781 304 794 321 c 1,37,-1
 1129 465 l 1,38,-1
 1139 465 l 1,39,-1
 1112 340 l 2,40,41
 1068 136 1068 136 941 67 c 0,42,43
 801 -9 801 -9 651 -19 c 1,44,-1
 640 -69 l 1,0,-1
591 264 m 1,45,-1
 712 836 l 1,46,47
 670 829 670 829 632 807 c 0,48,49
 586 781 586 781 573 718 c 2,50,-1
 501 382 l 2,51,52
 497 365 497 365 497 350 c 0,53,54
 497 312 497 312 522 293 c 0,55,56
 551 271 551 271 591 264 c 1,45,-1
EndSplineSet
Validated: 1
EndChar

StartChar: sterling
Encoding: 163 163 99
Width: 1375
GlyphClass: 2
Flags: W
HStem: 0 300<310 324 644 1129> 550 300<761 976> 1250 280<862.74 1115.44>
DStem2: 260.233 0 580.233 0 0.207912 0.978148<373.234 562.258 935.541 1320.66>
LayerCount: 2
Fore
SplineSet
110 0 m 1,0,-1
 112 10 l 1,1,-1
 310 300 l 1,2,-1
 324 300 l 1,3,-1
 377 550 l 1,4,-1
 228 550 l 1,5,-1
 230 560 l 1,6,-1
 428 850 l 1,7,-1
 441 850 l 1,8,-1
 509 1170 l 2,9,10
 552 1374 552 1374 680 1443 c 0,11,12
 842 1530 842 1530 1022 1530 c 0,13,14
 1216 1530 1216 1530 1342 1443 c 0,15,16
 1440 1377 1440 1377 1440 1248 c 0,17,18
 1440 1224 1440 1224 1437 1197 c 1,19,-1
 1129 1063 l 1,20,-1
 1119 1063 l 1,21,-1
 1133 1128 l 2,22,23
 1137 1145 1137 1145 1137 1160 c 0,24,25
 1137 1198 1137 1198 1112 1217 c 0,26,27
 1068 1250 1068 1250 1002.5 1250 c 128,-1,28
 937 1250 937 1250 879 1217 c 0,29,30
 833 1191 833 1191 820 1128 c 2,31,-1
 761 850 l 1,32,-1
 1176 850 l 1,33,-1
 1174 840 l 1,34,-1
 976 550 l 1,35,-1
 697 550 l 1,36,-1
 644 300 l 1,37,-1
 1329 300 l 1,38,-1
 1327 290 l 1,39,-1
 1129 0 l 1,40,-1
 110 0 l 1,0,-1
EndSplineSet
Validated: 1
EndChar

StartChar: currency
Encoding: 164 164 100
Width: 1535
GlyphClass: 2
Flags: W
HStem: 180 300<689.67 1071.56> 1028 300<784.759 1164.31>
VStem: 320 333<489 763.578> 1201 333<740.484 1020.5>
LayerCount: 2
Fore
SplineSet
869 480 m 128,-1,1
 981 480 981 480 1065 521 c 0,2,3
 1130 553 1130 553 1149 645 c 2,4,-1
 1195 863 l 2,5,6
 1201 889 1201 889 1201 910 c 0,7,8
 1201 964 1201 964 1164 987 c 0,9,10
 1098 1028 1098 1028 986 1028 c 128,-1,11
 874 1028 874 1028 790 987 c 0,12,13
 725 955 725 955 705 863 c 2,14,-1
 659 645 l 2,15,16
 653 619 653 619 653 599 c 0,17,18
 653 545 653 545 691 521 c 0,19,0
 757 480 757 480 869 480 c 128,-1,1
1049 1328 m 128,-1,21
 1214 1328 1214 1328 1336 1275 c 1,22,-1
 1394 1323 l 1,23,-1
 1676 1215 l 1,24,-1
 1682 1208 l 1,25,-1
 1525 1079 l 1,26,27
 1534 1042 1534 1042 1534 999 c 0,28,29
 1534 952 1534 952 1523 897 c 2,30,-1
 1462 611 l 2,31,32
 1440 509 1440 509 1390 432 c 1,33,-1
 1490 305 l 1,34,-1
 1481 298 l 1,35,-1
 1152 190 l 1,36,-1
 1118 234 l 1,37,38
 973 180 973 180 805 180 c 0,39,40
 631 180 631 180 506 239 c 1,41,-1
 467 206 l 1,42,-1
 184 314 l 1,43,-1
 178 321 l 1,44,-1
 326 442 l 1,45,46
 320 472 320 472 320 506 c 0,47,48
 320 555 320 555 332 611 c 2,49,-1
 393 897 l 2,50,51
 415 1002 415 1002 468 1080 c 1,52,-1
 367 1209 l 1,53,-1
 375 1216 l 1,54,-1
 702 1323 l 1,55,-1
 740 1275 l 1,56,20
 884 1328 884 1328 1049 1328 c 128,-1,21
EndSplineSet
Validated: 1
EndChar

StartChar: yen
Encoding: 165 165 101
Width: 1270
GlyphClass: 2
Flags: W
HStem: -20 21G<471 527.316> 94 140<321 495 845 1019> 294 140<363 458 1026 1061> 1510 20G<668.605 725 1458.61 1515>
VStem: 243 331<646 974.953>
DStem2: 75.7278 -20 395.501 -20 0.207912 0.978148<908.247 1434.36> 865.783 -20 1185.73 -20 0.207912 0.978148<760.975 1434.34>
LayerCount: 2
Fore
SplineSet
481 -20 m 1,0,-1
 471 -20 l 1,1,-1
 495 94 l 1,2,-1
 230 94 l 1,3,-1
 232 104 l 1,4,-1
 321 234 l 1,5,-1
 525 234 l 1,6,-1
 537 294 l 1,7,-1
 272 294 l 1,8,-1
 275 304 l 1,9,-1
 363 434 l 1,10,-1
 458 434 l 1,11,12
 408 455 408 455 366 485 c 0,13,14
 243 571 243 571 243 721 c 0,15,16
 243 765 243 765 253 814 c 2,17,-1
 374 1383 l 1,18,-1
 715 1530 l 1,19,-1
 725 1530 l 1,20,-1
 580 848 l 2,21,22
 574 822 574 822 574 802 c 0,23,24
 574 748 574 748 612 724 c 0,25,26
 678 683 678 683 780 683 c 128,-1,27
 882 683 882 683 966 724 c 0,28,29
 1030 756 1030 756 1050 848 c 2,30,-1
 1164 1383 l 1,31,-1
 1505 1530 l 1,32,-1
 1515 1530 l 1,33,-1
 1363 814 l 2,34,35
 1313 579 1313 579 1140 485 c 0,36,37
 1085 455 1085 455 1026 434 c 1,38,-1
 1152 434 l 1,39,-1
 1150 424 l 1,40,-1
 1061 294 l 1,41,-1
 857 294 l 1,42,-1
 845 234 l 1,43,-1
 1110 234 l 1,44,-1
 1108 224 l 1,45,-1
 1019 94 l 1,46,-1
 745 94 l 1,47,-1
 481 -20 l 1,0,-1
EndSplineSet
Validated: 1
EndChar

StartChar: brokenbar
Encoding: 166 166 102
Width: 690
GlyphClass: 2
Flags: W
VStem: 167 676
DStem2: 167 -200 437.643 -200 0.207912 0.978148<183.04 806.688 1194.09 1825.98>
LayerCount: 2
Fore
SplineSet
167 -200 m 1,0,-1
 335 589 l 1,1,-1
 622 713 l 1,2,-1
 632 713 l 1,3,-1
 464 -76 l 1,4,-1
 177 -200 l 1,5,-1
 167 -200 l 1,0,-1
833 1710 m 1,6,-1
 843 1710 l 1,7,-1
 674 913 l 1,8,-1
 388 789 l 1,9,-1
 378 789 l 1,10,-1
 547 1586 l 1,11,-1
 833 1710 l 1,6,-1
EndSplineSet
Validated: 1
EndChar

StartChar: section
Encoding: 167 167 103
Width: 1109
GlyphClass: 2
Flags: W
HStem: -20 233<522.224 690.979> 383 264<571.336 709.424> 863 264<720.576 858.664> 1297 233<739.021 907.776>
VStem: 257 308<659.57 777.87> 414 293<1063 1276.68> 723 293<233.317 447> 865 308<732.13 850.43>
LayerCount: 2
Fore
SplineSet
575 -20 m 0,0,1
 405 -20 405 -20 308 56 c 0,2,3
 220 125 220 125 220 216 c 0,4,5
 220 225 220 225 221 235 c 1,6,-1
 519 364 l 1,7,-1
 529 364 l 1,8,-1
 513 289 l 2,9,10
 511 280 511 280 511 268 c 0,11,12
 511 241 511 241 530 227 c 0,13,14
 550 213 550 213 594 213 c 0,15,16
 652 213 652 213 680 232 c 0,17,18
 707 250 707 250 713 279 c 2,19,-1
 722 319 l 2,20,21
 723 323 723 323 723 333 c 0,22,23
 723 353 723 353 710 365 c 0,24,25
 692 383 692 383 617 383 c 0,26,27
 450 383 450 383 349 472 c 0,28,29
 257 553 257 553 257 663 c 0,30,31
 257 695 257 695 264 727 c 2,32,-1
 288 837 l 2,33,34
 302 901 302 901 339 950 c 1,35,-1
 592 816 l 1,36,37
 578 795 578 795 572 766 c 2,38,-1
 567 741 l 2,39,40
 565 731 565 731 565 719 c 0,41,42
 565 647 565 647 679 647 c 0,43,44
 835 647 835 647 930 570 c 0,45,46
 1016 500 1016 500 1016 394 c 0,47,48
 1016 365 1016 365 1009 332 c 2,49,-1
 990 242 l 2,50,51
 963 114 963 114 863 56 c 0,52,53
 732 -20 732 -20 575 -20 c 0,0,1
855 1530 m 0,54,55
 1025 1530 1025 1530 1122 1454 c 0,56,57
 1210 1385 1210 1385 1210 1294 c 0,58,59
 1210 1285 1210 1285 1209 1275 c 1,60,-1
 911 1146 l 1,61,-1
 901 1146 l 1,62,-1
 917 1221 l 2,63,64
 919 1230 919 1230 919 1242 c 0,65,66
 919 1269 919 1269 900 1283 c 0,67,68
 880 1297 880 1297 836 1297 c 0,69,70
 778 1297 778 1297 750 1278 c 0,71,72
 723 1260 723 1260 717 1231 c 2,73,-1
 708 1191 l 2,74,75
 707 1187 707 1187 707 1177 c 0,76,77
 707 1157 707 1157 720 1145 c 0,78,79
 738 1127 738 1127 813 1127 c 0,80,81
 980 1127 980 1127 1081 1038 c 0,82,83
 1173 957 1173 957 1173 847 c 0,84,85
 1173 815 1173 815 1166 783 c 2,86,-1
 1142 673 l 2,87,88
 1128 609 1128 609 1091 560 c 1,89,-1
 838 694 l 1,90,91
 852 715 852 715 858 744 c 2,92,-1
 863 769 l 2,93,94
 865 779 865 779 865 791 c 0,95,96
 865 863 865 863 751 863 c 0,97,98
 595 863 595 863 500 940 c 0,99,100
 414 1010 414 1010 414 1116 c 0,101,102
 414 1145 414 1145 421 1178 c 2,103,-1
 440 1268 l 2,104,105
 467 1396 467 1396 567 1454 c 0,106,107
 698 1530 698 1530 855 1530 c 0,54,55
EndSplineSet
Validated: 1
EndChar

StartChar: dieresis
Encoding: 168 168 104
Width: 690
GlyphClass: 2
Flags: W
HStem: 1210 297<383.468 545.489 722.984 883.99>
VStem: 315 300<1278.5 1438.97> 653 300<1278.5 1437.11>
LayerCount: 2
Fore
SplineSet
834 1507 m 128,-1,1
 894 1507 894 1507 928 1463 c 0,2,3
 952 1432 952 1432 953 1391 c 0,4,5
 953 1374 953 1374 949 1358 c 0,6,7
 936 1298 936 1298 884 1254 c 128,-1,8
 832 1210 832 1210 771 1210 c 128,-1,9
 710 1210 710 1210 677 1254 c 0,10,11
 653 1286 653 1286 653 1325 c 0,12,13
 653 1341 653 1341 657 1358 c 0,14,15
 669 1417 669 1417 722 1462 c 0,16,0
 774 1507 774 1507 834 1507 c 128,-1,1
495.5 1507 m 128,-1,18
 556 1507 556 1507 590 1463 c 0,19,20
 615 1431 615 1431 615 1391 c 0,21,22
 615 1376 615 1376 611 1358 c 0,23,24
 598 1298 598 1298 545.5 1254 c 128,-1,25
 493 1210 493 1210 433 1210 c 0,26,27
 372 1210 372 1210 339 1254 c 0,28,29
 315 1286 315 1286 315 1325 c 0,30,31
 315 1341 315 1341 319 1358 c 0,32,33
 332 1419 332 1419 383 1462 c 0,34,17
 435 1507 435 1507 495.5 1507 c 128,-1,18
EndSplineSet
Validated: 1
EndChar

StartChar: copyright
Encoding: 169 169 105
Width: 1340
GlyphClass: 2
Flags: W
HStem: 386 52<604.584 925.646> 544 191<755.659 937.571> 1168 190<834.391 1001.93> 1478 52<824.632 1143.39>
VStem: 302 59<686.575 1015.56> 542 207<686.5 961.719> 1009 208<1108.59 1217> 1386 59<900.437 1234>
DStem2: 464.465 386 663.639 386 0.207912 0.978148<443.815 825.774>
LayerCount: 2
Fore
SplineSet
754 386 m 0,0,1
 528 386 528 386 398 549 c 0,2,3
 302 669 302 669 302 841 c 0,4,5
 302 890 302 890 310 943 c 0,6,7
 345 1183 345 1183 555 1362 c 0,8,9
 752 1530 752 1530 993 1530 c 0,10,11
 1219 1530 1219 1530 1349 1367 c 0,12,13
 1445 1247 1445 1247 1445 1075 c 0,14,15
 1445 1026 1445 1026 1437 973 c 0,16,17
 1402 733 1402 733 1192 554 c 0,18,19
 994 386 994 386 754 386 c 0,0,1
983 1478 m 0,20,21
 783 1478 783 1478 603 1330 c 0,22,23
 421 1181 421 1181 373 953 c 0,24,25
 361 897 361 897 361 843 c 0,26,27
 361 704 361 704 442 587 c 0,28,29
 545 438 545 438 764 438 c 0,30,31
 964 438 964 438 1144 586 c 0,32,33
 1326 735 1326 735 1374 963 c 0,34,35
 1386 1022 1386 1022 1386 1077 c 0,36,37
 1386 1216 1386 1216 1308 1329 c 0,38,39
 1205 1478 1205 1478 983 1478 c 0,20,21
951 1358 m 0,40,41
 1069 1358 1069 1358 1148 1304 c 0,42,43
 1217 1257 1217 1257 1217 1177 c 0,44,45
 1217 1157 1217 1157 1213 1135 c 2,46,-1
 1209 1115 l 1,47,-1
 1003 1040 l 1,48,-1
 993 1040 l 1,49,-1
 1007 1106 l 2,50,51
 1009 1115 1009 1115 1009 1123 c 0,52,53
 1009 1141 1009 1141 997 1150 c 0,54,55
 975 1168 975 1168 924 1168 c 0,56,57
 879 1168 879 1168 844 1150 c 0,58,59
 824 1140 824 1140 817 1106 c 2,60,-1
 751 797 l 2,61,62
 749 787 749 787 749 779 c 0,63,64
 749 761 749 761 760 753 c 0,65,66
 786 735 786 735 833 735 c 0,67,68
 928 735 928 735 938 781 c 2,69,-1
 940 790 l 1,70,-1
 1148 873 l 1,71,-1
 1158 873 l 1,72,-1
 1138 779 l 2,73,74
 1110 646 1110 646 1022 599 c 0,75,76
 920 544 920 544 808 544 c 0,77,78
 688 544 688 544 608 600 c 0,79,80
 542 646 542 646 542 727 c 0,81,82
 542 751 542 751 548 779 c 2,83,-1
 621 1124 l 2,84,85
 649 1257 649 1257 735 1303 c 0,86,87
 838 1358 838 1358 951 1358 c 0,40,41
EndSplineSet
Validated: 19457
EndChar

StartChar: ordfeminine
Encoding: 170 170 106
Width: 581
GlyphClass: 2
Flags: W
HStem: 733 180<295 626> 969 131<453.086 589.922> 1225 120<467.586 618.152> 1406 164<541 648.715>
VStem: 295 154<1113.19 1211.78> 649 197<1335 1405.25>
LayerCount: 2
Fore
SplineSet
541 1570 m 1,0,-1
 612 1570 l 2,1,2
 713 1570 713 1570 781 1521 c 0,3,4
 846 1475 846 1475 846 1405 c 0,5,6
 846 1388 846 1388 842 1370 c 2,7,-1
 772 1040 l 1,8,-1
 577 969 l 1,9,-1
 567 969 l 1,10,-1
 570 984 l 1,11,12
 544 969 544 969 511 969 c 0,13,14
 418 970 418 970 356 1018 c 0,15,16
 295 1066 295 1066 295 1132 c 0,17,18
 295 1147 295 1147 298 1163 c 2,19,-1
 299 1168 l 2,20,21
 318 1261 318 1261 394 1302 c 0,22,23
 473 1345 473 1345 560 1345 c 0,24,25
 618 1345 618 1345 646 1335 c 1,26,27
 649 1348 649 1348 649 1358 c 0,28,29
 649 1406 649 1406 592 1406 c 2,30,-1
 445 1406 l 1,31,-1
 447 1416 l 1,32,-1
 541 1570 l 1,0,-1
523 1100 m 0,33,34
 603 1100 603 1100 612 1141 c 2,35,-1
 621 1184 l 2,36,37
 622 1190 622 1190 622 1195 c 0,38,39
 622 1206 622 1206 616 1211 c 0,40,41
 601 1225 601 1225 548 1225 c 0,42,43
 496 1225 496 1225 475 1212 c 0,44,45
 464 1205 464 1205 459 1185 c 2,46,-1
 450 1142 l 2,47,48
 449 1136 449 1136 449 1131 c 0,49,50
 449 1119 449 1119 455 1113 c 0,51,52
 469 1100 469 1100 523 1100 c 0,33,34
295 913 m 1,53,-1
 745 913 l 1,54,-1
 743 903 l 1,55,-1
 626 733 l 1,56,-1
 176 733 l 1,57,-1
 178 743 l 1,58,-1
 295 913 l 1,53,-1
EndSplineSet
Validated: 1
EndChar

StartChar: guillemotleft
Encoding: 171 171 107
Width: 1292
GlyphClass: 2
Flags: W
DStem2: 563 731 270 755 0.35398 -0.935253<0 402.274> 270 755 563 731 0.62602 0.779807<164.709 643.749> 1044 731 751 755 0.35398 -0.935253<0 402.274> 751 755 1044 731 0.62602 0.779807<164.709 643.749>
LayerCount: 2
Fore
SplineSet
751 755 m 1,0,-1
 1154 1257 l 1,1,-1
 1164 1257 l 1,2,-1
 1375 1145 l 1,3,-1
 1044 731 l 1,4,-1
 1187 355 l 1,5,-1
 951 253 l 1,6,-1
 941 253 l 1,7,-1
 751 755 l 1,0,-1
270 755 m 1,8,-1
 673 1257 l 1,9,-1
 683 1257 l 1,10,-1
 894 1145 l 1,11,-1
 563 731 l 1,12,-1
 706 355 l 1,13,-1
 470 253 l 1,14,-1
 460 253 l 1,15,-1
 270 755 l 1,8,-1
EndSplineSet
Validated: 1
EndChar

StartChar: logicalnot
Encoding: 172 172 108
Width: 1240
GlyphClass: 2
Flags: W
HStem: 620 270<424 891>
VStem: 709 246<358 604>
LayerCount: 2
Fore
SplineSet
424 890 m 1,0,-1
 1319 890 l 1,1,-1
 1317 880 l 1,2,-1
 955 358 l 1,3,-1
 709 358 l 1,4,-1
 891 620 l 1,5,-1
 242 620 l 1,6,-1
 244 630 l 1,7,-1
 424 890 l 1,0,-1
EndSplineSet
Validated: 1
EndChar

StartChar: uni00AD
Encoding: 173 173 109
Width: 1240
GlyphClass: 2
Flags: W
HStem: 620 270<424 1137>
LayerCount: 2
Fore
SplineSet
424 890 m 1,0,-1
 1319 890 l 1,1,-1
 1317 880 l 1,2,-1
 1137 620 l 1,3,-1
 242 620 l 1,4,-1
 244 630 l 1,5,-1
 424 890 l 1,0,-1
EndSplineSet
Validated: 1
EndChar

StartChar: registered
Encoding: 174 174 110
Width: 1340
GlyphClass: 2
Flags: W
HStem: 386 52<604.584 925.646> 1164 191<860 1002.06> 1478 52<824.632 1143.39>
VStem: 302 59<686.575 1015.56> 1014 207<987.423 1206> 1386 59<900.437 1234>
DStem2: 479.566 386 679.624 386 0.207912 0.978148<283.889 442.363 637.714 836.977>
LayerCount: 2
Fore
SplineSet
754 386 m 0,0,1
 528 386 528 386 398 549 c 0,2,3
 302 669 302 669 302 841 c 0,4,5
 302 890 302 890 310 943 c 0,6,7
 345 1183 345 1183 555 1362 c 0,8,9
 752 1530 752 1530 993 1530 c 0,10,11
 1219 1530 1219 1530 1349 1367 c 0,12,13
 1445 1247 1445 1247 1445 1075 c 0,14,15
 1445 1026 1445 1026 1437 973 c 0,16,17
 1402 733 1402 733 1192 554 c 0,18,19
 994 386 994 386 754 386 c 0,0,1
983 1478 m 0,20,21
 783 1478 783 1478 603 1330 c 0,22,23
 421 1181 421 1181 373 953 c 0,24,25
 361 897 361 897 361 843 c 0,26,27
 361 704 361 704 442 587 c 0,28,29
 545 438 545 438 764 438 c 0,30,31
 964 438 964 438 1144 586 c 0,32,33
 1326 735 1326 735 1374 963 c 0,34,35
 1386 1022 1386 1022 1386 1077 c 0,36,37
 1386 1216 1386 1216 1308 1329 c 0,38,39
 1205 1478 1205 1478 983 1478 c 0,20,21
845 1164 m 1,40,-1
 804 969 l 1,41,-1
 882 969 l 2,42,43
 933 969 933 969 969 987 c 0,44,45
 990 999 990 999 997 1032 c 2,46,-1
 1012 1101 l 2,47,48
 1014 1111 1014 1111 1014 1119 c 0,49,50
 1014 1139 1014 1139 1003 1146 c 0,51,52
 973 1164 973 1164 923 1164 c 2,53,-1
 845 1164 l 1,40,-1
860 1355 m 1,54,-1
 949 1355 l 2,55,56
 1068 1355 1068 1355 1148 1299 c 0,57,58
 1221 1247 1221 1247 1221 1165 c 0,59,60
 1221 1143 1221 1143 1216 1119 c 2,61,-1
 1194 1015 l 2,62,63
 1162 863 1162 863 1038 821 c 1,64,-1
 1170 624 l 1,65,-1
 988 558 l 1,66,-1
 978 558 l 1,67,-1
 837 778 l 1,68,-1
 763 778 l 1,69,-1
 730 623 l 1,70,-1
 524 548 l 1,71,-1
 514 548 l 1,72,-1
 670 1278 l 1,73,-1
 860 1355 l 1,54,-1
EndSplineSet
Validated: 19457
EndChar

StartChar: macron
Encoding: 175 175 111
Width: 680
GlyphClass: 2
Flags: W
HStem: 1288 190<430 838>
VStem: 304 660
LayerCount: 2
Fore
SplineSet
430 1478 m 1,0,-1
 964 1478 l 1,1,-1
 962 1468 l 1,2,-1
 838 1288 l 1,3,-1
 304 1288 l 1,4,-1
 306 1298 l 1,5,-1
 430 1478 l 1,0,-1
EndSplineSet
Validated: 1
EndChar

StartChar: degree
Encoding: 176 176 112
Width: 724
GlyphClass: 2
Flags: W
HStem: 898 196<499.709 704.722> 1374 196<543.617 749.278>
VStem: 268 220<1053.5 1331.01> 760 220<1136.99 1418.5>
LayerCount: 2
Fore
SplineSet
681 1570 m 0,0,1
 814 1570 814 1570 908 1509 c 0,2,3
 980 1463 980 1463 980 1374 c 0,4,5
 980 1348 980 1348 974 1318 c 2,6,-1
 938 1150 l 2,7,8
 908 1011 908 1011 812 959 c 0,9,10
 700 898 700 898 568 898 c 0,11,12
 428 898 428 898 341 959 c 0,13,14
 268 1010 268 1010 268 1097 c 0,15,16
 268 1122 268 1122 274 1150 c 2,17,-1
 310 1318 l 2,18,19
 340 1457 340 1457 436 1509 c 0,20,21
 549 1570 549 1570 681 1570 c 0,0,1
654 1374 m 128,-1,23
 596 1374 596 1374 555 1351 c 0,24,25
 523 1333 523 1333 514 1289 c 2,26,-1
 491 1179 l 2,27,28
 488 1167 488 1167 488 1156 c 0,29,30
 488 1130 488 1130 505 1117 c 0,31,32
 536 1094 536 1094 594.5 1094 c 128,-1,33
 653 1094 653 1094 693 1117 c 0,34,35
 725 1135 725 1135 735 1179 c 2,36,-1
 758 1289 l 2,37,38
 760 1301 760 1301 760 1311 c 0,39,40
 760 1338 760 1338 743 1351 c 0,41,22
 712 1374 712 1374 654 1374 c 128,-1,23
EndSplineSet
Validated: 1
EndChar

StartChar: plusminus
Encoding: 177 177 113
Width: 1240
GlyphClass: 2
Flags: W
HStem: 154 270<325 1038> 828 270<468 661 988 1181>
DStem2: 517.446 154 787.876 154 0.207912 0.978148<489.698 689.118 1021.21 1220.83>
LayerCount: 2
Fore
SplineSet
325 424 m 1,0,-1
 1220 424 l 1,1,-1
 1218 414 l 1,2,-1
 1038 154 l 1,3,-1
 143 154 l 1,4,-1
 145 164 l 1,5,-1
 325 424 l 1,0,-1
1058 1473 m 1,6,-1
 1068 1473 l 1,7,-1
 988 1098 l 1,8,-1
 1363 1098 l 1,9,-1
 1361 1088 l 1,10,-1
 1181 828 l 1,11,-1
 931 828 l 1,12,-1
 878 578 l 1,13,-1
 591 453 l 1,14,-1
 581 453 l 1,15,-1
 661 828 l 1,16,-1
 286 828 l 1,17,-1
 288 838 l 1,18,-1
 468 1098 l 1,19,-1
 718 1098 l 1,20,-1
 772 1348 l 1,21,-1
 1058 1473 l 1,6,-1
EndSplineSet
Validated: 1
EndChar

StartChar: uni00B2
Encoding: 178 178 114
Width: 671
GlyphClass: 2
Flags: W
HStem: 764 191<588 731> 1381 189<527.285 708.433>
VStem: 714 206<1220.75 1424.5>
LayerCount: 2
Fore
SplineSet
656 1570 m 0,0,1
 776 1570 776 1570 855 1514 c 0,2,3
 920 1468 920 1468 920 1381 c 0,4,5
 920 1358 920 1358 916 1335 c 2,6,-1
 909 1294 l 2,7,8
 879 1116 879 1116 707 1021 c 2,9,-1
 588 955 l 1,10,-1
 844 955 l 1,11,-1
 842 945 l 1,12,-1
 731 764 l 1,13,-1
 192 764 l 1,14,-1
 195 774 l 1,15,-1
 320 966 l 1,16,-1
 570 1135 l 2,17,18
 691 1217 691 1217 706 1288 c 2,19,-1
 712 1318 l 2,20,21
 714 1327 714 1327 714 1334 c 0,22,23
 714 1351 714 1351 704 1362 c 0,24,25
 686 1381 686 1381 631 1381 c 0,26,27
 534 1381 534 1381 525 1332 c 2,28,-1
 522 1316 l 1,29,-1
 316 1241 l 1,30,-1
 306 1241 l 1,31,-1
 326 1335 l 2,32,33
 355 1469 355 1469 441 1516 c 0,34,35
 542 1570 542 1570 656 1570 c 0,0,1
EndSplineSet
Validated: 1
EndChar

StartChar: uni00B3
Encoding: 179 179 115
Width: 645
GlyphClass: 2
Flags: W
HStem: 753 191<439.158 606.229> 1369 191<489 579>
VStem: 235 198<891 998.015> 636 208<961.554 1161.5>
LayerCount: 2
Fore
SplineSet
489 1560 m 1,0,-1
 947 1560 l 1,1,-1
 716 1277 l 1,2,3
 756 1267 756 1267 782 1248 c 0,4,5
 844 1202 844 1202 844 1121 c 0,6,7
 844 1095 844 1095 838 1067 c 2,8,-1
 821 989 l 2,9,10
 792 855 792 855 706 808 c 0,11,12
 603 753 603 753 491 753 c 0,13,14
 373 753 373 753 294 808 c 0,15,16
 235 849 235 849 235 933 c 0,17,18
 235 960 235 960 241 991 c 1,19,-1
 439 1071 l 1,20,-1
 449 1071 l 1,21,-1
 435 1006 l 2,22,23
 433 995 433 995 433 987 c 0,24,25
 433 969 433 969 443 962 c 0,26,27
 471 944 471 944 517 944 c 128,-1,28
 563 944 563 944 596 962 c 0,29,30
 618 974 618 974 625 1006 c 2,31,-1
 634 1050 l 2,32,33
 636 1061 636 1061 636 1069 c 0,34,35
 636 1088 636 1088 625 1095 c 0,36,37
 597 1113 597 1113 555 1113 c 0,38,39
 515 1113 515 1113 469 1097 c 1,40,-1
 419 1171 l 1,41,-1
 579 1369 l 1,42,-1
 368 1369 l 1,43,-1
 370 1379 l 1,44,-1
 489 1560 l 1,0,-1
EndSplineSet
Validated: 1
EndChar

StartChar: acute
Encoding: 180 180 116
Width: 401
GlyphClass: 2
Flags: W
HStem: 1160 410
VStem: 296 389
DStem2: 296 1250 478 1160 0.541289 0.840837<22.8392 380.573>
LayerCount: 2
Fore
SplineSet
512 1570 m 1,0,-1
 685 1478 l 1,1,-1
 478 1160 l 1,2,-1
 468 1160 l 1,3,-1
 296 1250 l 1,4,-1
 502 1570 l 1,5,-1
 512 1570 l 1,0,-1
EndSplineSet
Validated: 1
EndChar

StartChar: uni00B5
Encoding: 181 181 117
Width: 1230
GlyphClass: 2
Flags: W
HStem: -430 21G<49 105.232> -20 280<537.893 819.322> 1100 20G<621.768 678 1271.77 1328>
DStem2: 49 -430 348.667 -430 0.207912 0.978148<203.387 502.875 860.717 1443.52> 698.87 -430 998.331 -430 0.207912 0.978148<731.823 1443.54>
LayerCount: 2
Fore
SplineSet
349 982 m 1,0,-1
 668 1120 l 1,1,-1
 678 1120 l 1,2,-1
 521 382 l 2,3,4
 517 365 517 365 517 350 c 0,5,6
 517 312 517 312 542 293 c 0,7,8
 586 260 586 260 670 260 c 128,-1,9
 754 260 754 260 812 293 c 0,10,11
 858 319 858 319 871 382 c 2,12,-1
 999 982 l 1,13,-1
 1318 1120 l 1,14,-1
 1328 1120 l 1,15,-1
 1162 340 l 2,16,17
 1119 136 1119 136 991 67 c 0,18,19
 830 -20 830 -20 641 -20 c 0,20,21
 518 -20 518 -20 440 1 c 1,22,-1
 378 -292 l 1,23,-1
 59 -430 l 1,24,-1
 49 -430 l 1,25,-1
 349 982 l 1,0,-1
EndSplineSet
Validated: 1
EndChar

StartChar: paragraph
Encoding: 182 182 118
Width: 1220
GlyphClass: 2
Flags: W
HStem: -20 21G<736 792.538> 1510 20G<785.5 974>
DStem2: 736 -20 855.947 -20 0.207912 0.978148<78.1001 481.499> 939.445 -20 1055.75 -20 0.207912 0.978148<174.466 1190.03>
LayerCount: 2
Fore
SplineSet
746 -20 m 1,0,-1
 736 -20 l 1,1,-1
 836 451 l 1,2,3
 759 428 759 428 691 428 c 0,4,5
 502 428 502 428 378 515 c 0,6,7
 269 591 269 591 269 716 c 0,8,9
 269 750 269 750 277 788 c 2,10,-1
 359 1170 l 2,11,12
 403 1374 403 1374 530 1443 c 0,13,14
 691 1530 691 1530 880 1530 c 0,15,16
 1068 1530 1068 1530 1208 1443 c 0,17,18
 1318 1374 1318 1374 1318 1247 c 0,19,20
 1318 1211 1318 1211 1309 1170 c 2,21,-1
 1087 127 l 1,22,-1
 959 72 l 1,23,-1
 1187 1144 l 1,24,-1
 1095 1106 l 1,25,-1
 867 32 l 1,26,-1
 746 -20 l 1,0,-1
EndSplineSet
Validated: 1
EndChar

StartChar: periodcentered
Encoding: 183 183 119
Width: 420
GlyphClass: 2
Flags: W
HStem: 573 365<282.097 458.323>
VStem: 186 369<668.75 842.936>
LayerCount: 2
Fore
SplineSet
409 938 m 0,0,1
 485 938 485 938 526 885 c 0,2,3
 555 847 555 847 555 796 c 0,4,5
 555 777 555 777 551 756 c 0,6,7
 535 681 535 681 470.5 627 c 128,-1,8
 406 573 406 573 332 573 c 0,9,10
 256 573 256 573 216 627 c 0,11,12
 186 666 186 666 186 716 c 0,13,14
 186 735 186 735 190 755 c 0,15,16
 206 831 206 831 270 884 c 0,17,18
 334 938 334 938 409 938 c 0,0,1
EndSplineSet
Validated: 1
EndChar

StartChar: cedilla
Encoding: 184 184 120
Width: 440
GlyphClass: 2
Flags: W
HStem: -410 410 -20 20G<136 294.5>
VStem: 172 199<-200.312 -79.297>
LayerCount: 2
Fore
SplineSet
-57 -410 m 1,0,-1
 -55 -400 l 1,1,-1
 69 -220 l 1,2,3
 158 -204 158 -204 171 -145 c 0,4,5
 172 -139 172 -139 172 -133 c 0,6,7
 172 -97 172 -97 120 -76 c 1,8,-1
 136 0 l 1,9,-1
 299 0 l 1,10,-1
 290 -40 l 1,11,12
 371 -82 371 -82 371 -166 c 0,13,14
 371 -176 371 -176 370 -187 c 0,15,16
 346 -410 346 -410 -57 -410 c 1,0,-1
EndSplineSet
Validated: 1
EndChar

StartChar: uni00B9
Encoding: 185 185 121
Width: 412
GlyphClass: 2
Flags: W
VStem: 294 392
DStem2: 313 756 513.058 756 0.207912 0.978148<118.27 549.945>
LayerCount: 2
Fore
SplineSet
676 1570 m 1,0,-1
 686 1570 l 1,1,-1
 529 831 l 1,2,-1
 323 756 l 1,3,-1
 313 756 l 1,4,-1
 427 1294 l 1,5,-1
 294 1242 l 1,6,-1
 334 1432 l 1,7,-1
 676 1570 l 1,0,-1
EndSplineSet
Validated: 1
EndChar

StartChar: ordmasculine
Encoding: 186 186 122
Width: 594
GlyphClass: 2
Flags: W
HStem: 733 180<295 639> 960 182<493.505 615.826> 1389 181<535.495 660.484>
VStem: 292 198<1082.5 1351.56> 662 198<1179.51 1449>
LayerCount: 2
Fore
SplineSet
627 1570 m 0,0,1
 732 1570 732 1570 803 1522 c 0,2,3
 860 1484 860 1484 860 1414 c 0,4,5
 860 1394 860 1394 855 1371 c 2,6,-1
 811 1160 l 2,7,8
 787 1047 787 1047 715 1008 c 0,9,10
 626 960 626 960 526 960 c 0,11,12
 420 960 420 960 349 1009 c 0,13,14
 292 1048 292 1048 292 1117 c 0,15,16
 292 1137 292 1137 297 1160 c 2,17,-1
 341 1371 l 2,18,19
 366 1484 366 1484 438 1522 c 0,20,21
 528 1570 528 1570 627 1570 c 0,0,1
602 1389 m 0,22,23
 565 1389 565 1389 543 1376 c 0,24,25
 530 1368 530 1368 527 1349 c 2,26,-1
 491 1182 l 2,27,28
 490 1176 490 1176 490 1171 c 0,29,30
 490 1160 490 1160 496 1155 c 0,31,32
 509 1142 509 1142 550 1142 c 0,33,34
 590 1142 590 1142 609 1155 c 0,35,36
 622 1164 622 1164 625 1182 c 2,37,-1
 661 1349 l 2,38,39
 662 1353 662 1353 662 1357 c 0,40,41
 662 1389 662 1389 602 1389 c 0,22,23
295 913 m 1,42,-1
 758 913 l 1,43,-1
 756 903 l 1,44,-1
 639 733 l 1,45,-1
 176 733 l 1,46,-1
 178 743 l 1,47,-1
 295 913 l 1,42,-1
EndSplineSet
Validated: 1
EndChar

StartChar: guillemotright
Encoding: 187 187 123
Width: 1292
GlyphClass: 2
Flags: W
DStem2: 238 365 459 253 0.62602 0.779807<51.0121 530.053> 672 1257 426 1155 0.35398 -0.935253<8.31667 410.591> 719 365 940 253 0.62602 0.779807<51.0121 530.053> 1153 1257 907 1155 0.35398 -0.935253<8.31667 410.591>
LayerCount: 2
Fore
SplineSet
862 755 m 1,0,-1
 459 253 l 1,1,-1
 449 253 l 1,2,-1
 238 365 l 1,3,-1
 569 779 l 1,4,-1
 426 1155 l 1,5,-1
 662 1257 l 1,6,-1
 672 1257 l 1,7,-1
 862 755 l 1,0,-1
1343 755 m 1,8,-1
 940 253 l 1,9,-1
 930 253 l 1,10,-1
 719 365 l 1,11,-1
 1050 779 l 1,12,-1
 907 1155 l 1,13,-1
 1143 1257 l 1,14,-1
 1153 1257 l 1,15,-1
 1343 755 l 1,8,-1
EndSplineSet
Validated: 1
EndChar

StartChar: onequarter
Encoding: 188 188 124
Width: 1543
GlyphClass: 2
Flags: W
HStem: -20 21G<450.301 511.57 1154 1218.93> 1510 20G<697.58 757 1237.42 1298.52>
DStem2: 227.558 -20 427.617 -20 0.207912 0.978148<870.713 1302.6> 275 93 498 -20 0.561853 0.827237<31.8155 1737.11>
LayerCount: 2
Fore
SplineSet
747 1530 m 1,0,-1
 757 1530 l 1,1,-1
 600 791 l 1,2,-1
 394 716 l 1,3,-1
 384 716 l 1,4,-1
 499 1254 l 1,5,-1
 365 1202 l 1,6,-1
 406 1392 l 1,7,-1
 747 1530 l 1,0,-1
488 -20 m 1,8,-1
 275 93 l 1,9,-1
 1251 1530 l 1,10,-1
 1261 1530 l 1,11,-1
 1473 1417 l 1,12,-1
 498 -20 l 1,13,-1
 488 -20 l 1,8,-1
1141 333 m 1,14,-1
 1229 333 l 1,15,-1
 1254 450 l 1,16,-1
 1141 333 l 1,14,-1
1164 -20 m 1,17,-1
 1154 -20 l 1,18,-1
 1188 142 l 1,19,-1
 800 142 l 1,20,-1
 802 152 l 1,21,-1
 1303 708 l 1,22,-1
 1517 794 l 1,23,-1
 1527 794 l 1,24,-1
 1429 333 l 1,25,-1
 1504 333 l 1,26,-1
 1502 323 l 1,27,-1
 1386 133 l 1,28,-1
 1370 55 l 1,29,-1
 1164 -20 l 1,17,-1
EndSplineSet
Validated: 1
EndChar

StartChar: onehalf
Encoding: 189 189 125
Width: 1677
GlyphClass: 2
Flags: W
HStem: -20 21G<450.301 511.57> 0 191<1352 1495> 617 189<1291.28 1472.43> 1510 20G<697.58 757 1237.42 1298.52>
VStem: 1478 206<456.747 660.5>
DStem2: 227.558 -20 427.617 -20 0.207912 0.978148<870.713 1302.6> 275 93 498 -20 0.561853 0.827237<31.8155 1737.11>
LayerCount: 2
Fore
SplineSet
1420 806 m 0,0,1
 1540 806 1540 806 1619 750 c 0,2,3
 1684 704 1684 704 1684 617 c 0,4,5
 1684 594 1684 594 1680 571 c 2,6,-1
 1673 530 l 2,7,8
 1643 352 1643 352 1471 257 c 2,9,-1
 1352 191 l 1,10,-1
 1608 191 l 1,11,-1
 1606 181 l 1,12,-1
 1495 0 l 1,13,-1
 956 0 l 1,14,-1
 959 10 l 1,15,-1
 1084 202 l 1,16,-1
 1334 371 l 2,17,18
 1455 453 1455 453 1470 524 c 2,19,-1
 1476 554 l 2,20,21
 1478 563 1478 563 1478 570 c 0,22,23
 1478 587 1478 587 1468 598 c 0,24,25
 1450 617 1450 617 1395 617 c 0,26,27
 1298 617 1298 617 1289 568 c 2,28,-1
 1286 552 l 1,29,-1
 1080 477 l 1,30,-1
 1070 477 l 1,31,-1
 1090 571 l 2,32,33
 1119 705 1119 705 1205 752 c 0,34,35
 1306 806 1306 806 1420 806 c 0,0,1
747 1530 m 1,36,-1
 757 1530 l 1,37,-1
 600 791 l 1,38,-1
 394 716 l 1,39,-1
 384 716 l 1,40,-1
 499 1254 l 1,41,-1
 365 1202 l 1,42,-1
 406 1392 l 1,43,-1
 747 1530 l 1,36,-1
488 -20 m 1,44,-1
 275 93 l 1,45,-1
 1251 1530 l 1,46,-1
 1261 1530 l 1,47,-1
 1473 1417 l 1,48,-1
 498 -20 l 1,49,-1
 488 -20 l 1,44,-1
EndSplineSet
Validated: 1
EndChar

StartChar: threequarters
Encoding: 190 190 126
Width: 1780
GlyphClass: 2
Flags: W
HStem: -20 21G<687.301 748.57 1391 1455.93> 723 191<521.158 688.229> 1339 191<571 661>
VStem: 317 198<861 968.015> 718 208<931.554 1131.5>
DStem2: 512 93 735 -20 0.561853 0.827237<31.8155 1737.11>
LayerCount: 2
Fore
SplineSet
571 1530 m 1,0,-1
 1029 1530 l 1,1,-1
 798 1247 l 1,2,3
 838 1237 838 1237 864 1218 c 0,4,5
 926 1172 926 1172 926 1091 c 0,6,7
 926 1065 926 1065 920 1037 c 2,8,-1
 903 959 l 2,9,10
 874 825 874 825 788 778 c 0,11,12
 685 723 685 723 573 723 c 0,13,14
 455 723 455 723 376 778 c 0,15,16
 317 819 317 819 317 903 c 0,17,18
 317 930 317 930 323 961 c 1,19,-1
 521 1041 l 1,20,-1
 531 1041 l 1,21,-1
 517 976 l 2,22,23
 515 965 515 965 515 957 c 0,24,25
 515 939 515 939 525 932 c 0,26,27
 553 914 553 914 599 914 c 128,-1,28
 645 914 645 914 678 932 c 0,29,30
 700 944 700 944 707 976 c 2,31,-1
 716 1020 l 2,32,33
 718 1031 718 1031 718 1039 c 0,34,35
 718 1058 718 1058 707 1065 c 0,36,37
 679 1083 679 1083 637 1083 c 0,38,39
 597 1083 597 1083 551 1067 c 1,40,-1
 501 1141 l 1,41,-1
 661 1339 l 1,42,-1
 450 1339 l 1,43,-1
 452 1349 l 1,44,-1
 571 1530 l 1,0,-1
725 -20 m 1,45,-1
 512 93 l 1,46,-1
 1488 1530 l 1,47,-1
 1498 1530 l 1,48,-1
 1710 1417 l 1,49,-1
 735 -20 l 1,50,-1
 725 -20 l 1,45,-1
1378 333 m 1,51,-1
 1466 333 l 1,52,-1
 1491 450 l 1,53,-1
 1378 333 l 1,51,-1
1401 -20 m 1,54,-1
 1391 -20 l 1,55,-1
 1425 142 l 1,56,-1
 1037 142 l 1,57,-1
 1039 152 l 1,58,-1
 1540 708 l 1,59,-1
 1754 794 l 1,60,-1
 1764 794 l 1,61,-1
 1666 333 l 1,62,-1
 1741 333 l 1,63,-1
 1739 323 l 1,64,-1
 1623 133 l 1,65,-1
 1607 55 l 1,66,-1
 1401 -20 l 1,54,-1
EndSplineSet
Validated: 1
EndChar

StartChar: questiondown
Encoding: 191 191 127
Width: 1323
GlyphClass: 2
Flags: W
HStem: -430 300<470.721 822.161> 755 365<809.677 985.903>
VStem: 107 330<-89.8566 153.38>
LayerCount: 2
Fore
SplineSet
936 1120 m 0,0,1
 1012 1120 1012 1120 1052 1066 c 0,2,3
 1082 1027 1082 1027 1082 977 c 0,4,5
 1082 958 1082 958 1078 938 c 0,6,7
 1062 862 1062 862 998 809 c 0,8,9
 934 755 934 755 859 755 c 0,10,11
 783 755 783 755 742 808 c 0,12,13
 713 846 713 846 713 897 c 0,14,15
 713 916 713 916 717 937 c 0,16,17
 733 1012 733 1012 797.5 1066 c 128,-1,18
 862 1120 862 1120 936 1120 c 0,0,1
602 -430 m 128,-1,20
 389 -430 389 -430 227 -328 c 0,21,22
 107 -252 107 -252 107 -81 c 0,23,24
 107 -42 107 -42 113 1 c 2,25,-1
 119 44 l 2,26,27
 164 367 164 367 588 542 c 0,28,29
 651 568 651 568 658 594 c 1,30,-1
 1003 741 l 1,31,-1
 1013 741 l 1,32,33
 942 407 942 407 677 304 c 0,34,35
 476 226 476 226 446 62 c 2,36,-1
 441 35 l 2,37,38
 437 13 437 13 437 -6 c 0,39,40
 437 -61 437 -61 472 -89 c 0,41,42
 527 -130 527 -130 637 -130 c 0,43,44
 745 -130 745 -130 816 -89 c 0,45,46
 869 -59 869 -59 890 0 c 1,47,-1
 1235 148 l 1,48,-1
 1245 148 l 1,49,-1
 1213 1 l 2,50,51
 1159 -245 1159 -245 1005 -328 c 0,52,19
 815 -430 815 -430 602 -430 c 128,-1,20
EndSplineSet
Validated: 19457
EndChar

StartChar: endash
Encoding: 8211 8211 128
Width: 1240
GlyphClass: 2
Flags: W
HStem: 620 270<424 1137>
LayerCount: 2
Fore
SplineSet
424 890 m 1,0,-1
 1319 890 l 1,1,-1
 1317 880 l 1,2,-1
 1137 620 l 1,3,-1
 242 620 l 1,4,-1
 244 630 l 1,5,-1
 424 890 l 1,0,-1
EndSplineSet
Validated: 1
EndChar

StartChar: emdash
Encoding: 8212 8212 129
Width: 1570
GlyphClass: 2
Flags: W
HStem: 620 270<424 1467>
LayerCount: 2
Fore
SplineSet
424 890 m 1,0,-1
 1649 890 l 1,1,-1
 1647 880 l 1,2,-1
 1467 620 l 1,3,-1
 242 620 l 1,4,-1
 244 630 l 1,5,-1
 424 890 l 1,0,-1
EndSplineSet
Validated: 1
EndChar

StartChar: afii00208
Encoding: 8213 8213 130
Width: 1570
GlyphClass: 2
Flags: W
HStem: 620 270<424 1467>
LayerCount: 2
Fore
SplineSet
424 890 m 1,0,-1
 1649 890 l 1,1,-1
 1647 880 l 1,2,-1
 1467 620 l 1,3,-1
 242 620 l 1,4,-1
 244 630 l 1,5,-1
 424 890 l 1,0,-1
EndSplineSet
Validated: 1
EndChar

StartChar: quoteleft
Encoding: 8216 8216 131
Width: 496
GlyphClass: 2
Flags: W
HStem: 934 666
VStem: 281 282<1124.94 1316.96>
LayerCount: 2
Fore
SplineSet
706 1600 m 1,0,-1
 712 1593 l 1,1,2
 601 1444 601 1444 569 1296 c 0,3,4
 563 1269 563 1269 563 1244 c 0,5,6
 563 1126 563 1126 691 1060 c 1,7,-1
 396 934 l 1,8,-1
 386 934 l 1,9,10
 281 1014 281 1014 281 1142 c 0,11,12
 281 1178 281 1178 289 1218 c 0,13,14
 343 1475 343 1475 706 1600 c 1,0,-1
EndSplineSet
Validated: 1
EndChar

StartChar: quoteright
Encoding: 8217 8217 132
Width: 496
GlyphClass: 2
Flags: W
HStem: 934 666
VStem: 471 283<1217.04 1409.06>
LayerCount: 2
Fore
SplineSet
343 1474 m 1,0,-1
 639 1600 l 1,1,-1
 649 1600 l 1,2,3
 754 1520 754 1520 754 1392 c 0,4,5
 754 1356 754 1356 746 1316 c 0,6,7
 691 1059 691 1059 329 934 c 1,8,-1
 323 941 l 1,9,10
 434 1090 434 1090 465 1238 c 0,11,12
 471 1265 471 1265 471 1290 c 0,13,14
 471 1408 471 1408 343 1474 c 1,0,-1
EndSplineSet
Validated: 1
EndChar

StartChar: quotesinglbase
Encoding: 8218 8218 133
Width: 496
GlyphClass: 2
Flags: W
HStem: -328 666
VStem: 203 283<-42.5039 147.058>
LayerCount: 2
Fore
SplineSet
75 212 m 1,0,-1
 371 338 l 1,1,-1
 381 338 l 1,2,3
 486 259 486 259 486 132 c 0,4,5
 486 95 486 95 477 54 c 0,6,7
 422 -203 422 -203 60 -328 c 1,8,-1
 55 -321 l 1,9,10
 166 -172 166 -172 197 -24 c 0,11,12
 203 3 203 3 203 28 c 0,13,14
 203 146 203 146 75 212 c 1,0,-1
EndSplineSet
Validated: 1
EndChar

StartChar: quotereversed
Encoding: 8219 8219 134
Width: 496
GlyphClass: 2
Flags: W
HStem: 934 666<475.621 537>
VStem: 302 243<1092.94 1320.7>
LayerCount: 2
Fore
SplineSet
779 1474 m 1,0,1
 590 1394 590 1394 557 1238 c 0,2,3
 545 1179 545 1179 545 1120 c 0,4,5
 545 1031 545 1031 573 941 c 1,6,-1
 565 934 l 1,7,8
 302 1040 302 1040 302 1242 c 0,9,10
 302 1277 302 1277 310 1316 c 0,11,12
 349 1498 349 1498 527 1600 c 1,13,-1
 537 1600 l 1,14,-1
 779 1474 l 1,0,1
EndSplineSet
Validated: 1
EndChar

StartChar: quotedblleft
Encoding: 8220 8220 135
Width: 914
GlyphClass: 2
Flags: W
HStem: 934 666
VStem: 281 282<1124.94 1316.96> 699 282<1124.94 1316.96>
LayerCount: 2
Fore
SplineSet
706 1600 m 1,0,-1
 712 1593 l 1,1,2
 601 1444 601 1444 569 1296 c 0,3,4
 563 1269 563 1269 563 1244 c 0,5,6
 563 1126 563 1126 691 1060 c 1,7,-1
 396 934 l 1,8,-1
 386 934 l 1,9,10
 281 1014 281 1014 281 1142 c 0,11,12
 281 1178 281 1178 289 1218 c 0,13,14
 343 1475 343 1475 706 1600 c 1,0,-1
1124 1600 m 1,15,-1
 1130 1593 l 1,16,17
 1019 1444 1019 1444 987 1296 c 0,18,19
 981 1269 981 1269 981 1244 c 0,20,21
 981 1126 981 1126 1109 1060 c 1,22,-1
 814 934 l 1,23,-1
 804 934 l 1,24,25
 699 1014 699 1014 699 1142 c 0,26,27
 699 1178 699 1178 707 1218 c 0,28,29
 761 1475 761 1475 1124 1600 c 1,15,-1
EndSplineSet
Validated: 1
EndChar

StartChar: quotedblright
Encoding: 8221 8221 136
Width: 914
GlyphClass: 2
Flags: W
HStem: 934 666
VStem: 471 283<1217.04 1409.06> 889 283<1217.04 1409.06>
LayerCount: 2
Fore
SplineSet
761 1474 m 1,0,-1
 1057 1600 l 1,1,-1
 1067 1600 l 1,2,3
 1172 1520 1172 1520 1172 1392 c 0,4,5
 1172 1356 1172 1356 1164 1316 c 0,6,7
 1109 1059 1109 1059 747 934 c 1,8,-1
 741 941 l 1,9,10
 852 1090 852 1090 883 1238 c 0,11,12
 889 1265 889 1265 889 1290 c 0,13,14
 889 1408 889 1408 761 1474 c 1,0,-1
343 1474 m 1,15,-1
 639 1600 l 1,16,-1
 649 1600 l 1,17,18
 754 1520 754 1520 754 1392 c 0,19,20
 754 1356 754 1356 746 1316 c 0,21,22
 691 1059 691 1059 329 934 c 1,23,-1
 323 941 l 1,24,25
 434 1090 434 1090 465 1238 c 0,26,27
 471 1265 471 1265 471 1290 c 0,28,29
 471 1408 471 1408 343 1474 c 1,15,-1
EndSplineSet
Validated: 1
EndChar

StartChar: quotedblbase
Encoding: 8222 8222 137
Width: 914
GlyphClass: 2
Flags: W
HStem: -328 666
VStem: 203 283<-42.5039 147.058> 621 283<-42.5039 147.058>
LayerCount: 2
Fore
SplineSet
493 212 m 1,0,-1
 789 338 l 1,1,-1
 799 338 l 1,2,3
 904 259 904 259 904 132 c 0,4,5
 904 95 904 95 895 54 c 0,6,7
 840 -203 840 -203 478 -328 c 1,8,-1
 473 -321 l 1,9,10
 584 -172 584 -172 615 -24 c 0,11,12
 621 3 621 3 621 28 c 0,13,14
 621 146 621 146 493 212 c 1,0,-1
75 212 m 1,15,-1
 371 338 l 1,16,-1
 381 338 l 1,17,18
 486 259 486 259 486 132 c 0,19,20
 486 95 486 95 477 54 c 0,21,22
 422 -203 422 -203 60 -328 c 1,23,-1
 55 -321 l 1,24,25
 166 -172 166 -172 197 -24 c 0,26,27
 203 3 203 3 203 28 c 0,28,29
 203 146 203 146 75 212 c 1,15,-1
EndSplineSet
Validated: 1
EndChar

StartChar: dagger
Encoding: 8224 8224 138
Width: 1254
GlyphClass: 2
Flags: W
HStem: -20 21G<463 519.395> 914 300<507 661 1045 1199> 1510 20G<1055.92 1112>
DStem2: 463 -20 782.754 -20 0.207912 0.978148<216.765 954.756 1328.04 1433.32>
LayerCount: 2
Fore
SplineSet
473 -20 m 1,0,-1
 463 -20 l 1,1,-1
 661 914 l 1,2,-1
 304 914 l 1,3,-1
 306 924 l 1,4,-1
 507 1214 l 1,5,-1
 725 1214 l 1,6,-1
 761 1382 l 1,7,-1
 1102 1530 l 1,8,-1
 1112 1530 l 1,9,-1
 1045 1214 l 1,10,-1
 1402 1214 l 1,11,-1
 1400 1204 l 1,12,-1
 1199 914 l 1,13,-1
 981 914 l 1,14,-1
 814 127 l 1,15,-1
 473 -20 l 1,0,-1
EndSplineSet
Validated: 1
EndChar

StartChar: daggerdbl
Encoding: 8225 8225 139
Width: 1254
GlyphClass: 2
Flags: W
HStem: -20 21G<463 519.081> 296 300<376 530 914 1068> 914 300<507 661 1045 1199> 1510 20G<1055.92 1112>
DStem2: 463 -20 782.542 -20 0.207912 0.978148<217.743 323.025 696.307 954.756 1328.04 1433.32>
LayerCount: 2
Fore
SplineSet
473 -20 m 1,0,-1
 463 -20 l 1,1,-1
 530 296 l 1,2,-1
 173 296 l 1,3,-1
 175 306 l 1,4,-1
 376 596 l 1,5,-1
 594 596 l 1,6,-1
 661 914 l 1,7,-1
 304 914 l 1,8,-1
 306 924 l 1,9,-1
 507 1214 l 1,10,-1
 725 1214 l 1,11,-1
 761 1382 l 1,12,-1
 1102 1530 l 1,13,-1
 1112 1530 l 1,14,-1
 1045 1214 l 1,15,-1
 1402 1214 l 1,16,-1
 1400 1204 l 1,17,-1
 1199 914 l 1,18,-1
 981 914 l 1,19,-1
 914 596 l 1,20,-1
 1271 596 l 1,21,-1
 1269 586 l 1,22,-1
 1068 296 l 1,23,-1
 850 296 l 1,24,-1
 814 128 l 1,25,-1
 473 -20 l 1,0,-1
EndSplineSet
Validated: 1
EndChar

StartChar: bullet
Encoding: 8226 8226 140
Width: 950
GlyphClass: 2
Flags: W
HStem: 385 740<478.279 793.843>
VStem: 245 782<605 908>
LayerCount: 2
Fore
SplineSet
572 385 m 0,0,1
 420 385 420 385 324 453 c 0,2,3
 245 508 245 508 245 605 c 0,4,5
 245 632 245 632 251 663 c 2,6,-1
 290 847 l 2,7,8
 322 999 322 999 430 1057 c 0,9,10
 554 1125 554 1125 699 1125 c 128,-1,11
 844 1125 844 1125 948 1057 c 0,12,13
 1027 1005 1027 1005 1027 908 c 0,14,15
 1027 879 1027 879 1020 847 c 2,16,-1
 981 663 l 2,17,18
 950 511 950 511 842 453 c 0,19,20
 718 385 718 385 572 385 c 0,0,1
EndSplineSet
Validated: 1
EndChar

StartChar: ellipsis
Encoding: 8230 8230 141
Width: 1292
GlyphClass: 2
Flags: W
HStem: -20 365<156.097 332.323 592.097 768.323 1028.1 1204.32>
LayerCount: 2
Fore
SplineSet
1078 -20 m 0,0,1
 1002 -20 1002 -20 962 34 c 0,2,3
 932 73 932 73 932 123 c 0,4,5
 932 142 932 142 936 162 c 0,6,7
 952 238 952 238 1016 291 c 0,8,9
 1080 345 1080 345 1155 345 c 0,10,11
 1231 345 1231 345 1272 292 c 0,12,13
 1301 254 1301 254 1301 203 c 0,14,15
 1301 184 1301 184 1297 163 c 0,16,17
 1281 88 1281 88 1216.5 34 c 128,-1,18
 1152 -20 1152 -20 1078 -20 c 0,0,1
642 -20 m 0,19,20
 566 -20 566 -20 526 34 c 0,21,22
 496 73 496 73 496 123 c 0,23,24
 496 142 496 142 500 162 c 0,25,26
 516 238 516 238 580 291 c 0,27,28
 644 345 644 345 719 345 c 0,29,30
 795 345 795 345 836 292 c 0,31,32
 865 254 865 254 865 203 c 0,33,34
 865 184 865 184 861 163 c 0,35,36
 845 88 845 88 780.5 34 c 128,-1,37
 716 -20 716 -20 642 -20 c 0,19,20
206 -20 m 0,38,39
 130 -20 130 -20 90 34 c 0,40,41
 60 73 60 73 60 123 c 0,42,43
 60 142 60 142 64 162 c 0,44,45
 80 238 80 238 144 291 c 0,46,47
 208 345 208 345 283 345 c 0,48,49
 359 345 359 345 400 292 c 0,50,51
 429 254 429 254 429 203 c 0,52,53
 429 184 429 184 425 163 c 0,54,55
 409 88 409 88 344.5 34 c 128,-1,56
 280 -20 280 -20 206 -20 c 0,38,39
EndSplineSet
Validated: 1
EndChar

StartChar: perthousand
Encoding: 8240 8240 142
Width: 2624
GlyphClass: 2
Flags: W
HStem: -20 216<1308.52 1531.54 2086.52 2309.54> 504 216<1359.87 1581.12 2137.87 2359.12> 790 216<584.515 807.54> 1314 216<635.871 857.125>
VStem: 331 241<961.5 1252.09> 871 242<1073.19 1361.5> 1055 241<151.5 442.092> 1595 242<263.193 551.5> 1833 241<151.5 442.092> 2373 242<263.193 551.5>
DStem2: 484 93 707 -20 0.561853 0.827237<31.8155 1737.11>
LayerCount: 2
Fore
SplineSet
2160 -20 m 0,0,1
 2008 -20 2008 -20 1912 48 c 0,2,3
 1833 103 1833 103 1833 200 c 0,4,5
 1833 227 1833 227 1839 258 c 2,6,-1
 1878 442 l 2,7,8
 1910 594 1910 594 2018 652 c 0,9,10
 2142 720 2142 720 2287 720 c 128,-1,11
 2432 720 2432 720 2536 652 c 0,12,13
 2615 600 2615 600 2615 503 c 0,14,15
 2615 474 2615 474 2608 442 c 2,16,-1
 2569 258 l 2,17,18
 2538 106 2538 106 2430 48 c 0,19,20
 2306 -20 2306 -20 2160 -20 c 0,0,1
2256 504 m 128,-1,22
 2192 504 2192 504 2148 479 c 0,23,24
 2113 458 2113 458 2102 410 c 2,25,-1
 2077 290 l 2,26,27
 2074 277 2074 277 2074 265 c 0,28,29
 2074 236 2074 236 2093 221 c 0,30,31
 2128 196 2128 196 2191.5 196 c 128,-1,32
 2255 196 2255 196 2299 221 c 0,33,34
 2334 242 2334 242 2345 290 c 2,35,-1
 2370 410 l 2,36,37
 2373 423 2373 423 2373 435 c 0,38,39
 2373 464 2373 464 2354 479 c 0,40,21
 2320 504 2320 504 2256 504 c 128,-1,22
1382 -20 m 0,41,42
 1230 -20 1230 -20 1134 48 c 0,43,44
 1055 103 1055 103 1055 200 c 0,45,46
 1055 227 1055 227 1061 258 c 2,47,-1
 1100 442 l 2,48,49
 1132 594 1132 594 1240 652 c 0,50,51
 1364 720 1364 720 1509 720 c 128,-1,52
 1654 720 1654 720 1758 652 c 0,53,54
 1837 600 1837 600 1837 503 c 0,55,56
 1837 474 1837 474 1830 442 c 2,57,-1
 1791 258 l 2,58,59
 1760 106 1760 106 1652 48 c 0,60,61
 1528 -20 1528 -20 1382 -20 c 0,41,42
1478 504 m 128,-1,63
 1414 504 1414 504 1370 479 c 0,64,65
 1335 458 1335 458 1324 410 c 2,66,-1
 1299 290 l 2,67,68
 1296 277 1296 277 1296 265 c 0,69,70
 1296 236 1296 236 1315 221 c 0,71,72
 1350 196 1350 196 1413.5 196 c 128,-1,73
 1477 196 1477 196 1521 221 c 0,74,75
 1556 242 1556 242 1567 290 c 2,76,-1
 1592 410 l 2,77,78
 1595 423 1595 423 1595 435 c 0,79,80
 1595 464 1595 464 1576 479 c 0,81,62
 1542 504 1542 504 1478 504 c 128,-1,63
785 1530 m 128,-1,83
 930 1530 930 1530 1034 1462 c 0,84,85
 1113 1410 1113 1410 1113 1313 c 0,86,87
 1113 1284 1113 1284 1106 1252 c 2,88,-1
 1067 1068 l 2,89,90
 1036 916 1036 916 928 858 c 0,91,92
 804 790 804 790 658 790 c 0,93,94
 506 790 506 790 410 858 c 0,95,96
 331 913 331 913 331 1010 c 0,97,98
 331 1037 331 1037 337 1068 c 2,99,-1
 376 1252 l 2,100,101
 408 1404 408 1404 516 1462 c 0,102,82
 640 1530 640 1530 785 1530 c 128,-1,83
754 1314 m 128,-1,104
 690 1314 690 1314 646 1289 c 0,105,106
 611 1268 611 1268 600 1220 c 2,107,-1
 575 1100 l 2,108,109
 572 1087 572 1087 572 1075 c 0,110,111
 572 1046 572 1046 591 1031 c 0,112,113
 626 1006 626 1006 689.5 1006 c 128,-1,114
 753 1006 753 1006 797 1031 c 0,115,116
 832 1052 832 1052 843 1100 c 2,117,-1
 868 1220 l 2,118,119
 871 1233 871 1233 871 1245 c 0,120,121
 871 1274 871 1274 852 1289 c 0,122,103
 818 1314 818 1314 754 1314 c 128,-1,104
697 -20 m 1,123,-1
 484 93 l 1,124,-1
 1460 1530 l 1,125,-1
 1470 1530 l 1,126,-1
 1682 1417 l 1,127,-1
 707 -20 l 1,128,-1
 697 -20 l 1,123,-1
EndSplineSet
Validated: 1
EndChar

StartChar: minute
Encoding: 8242 8242 143
Width: 450
GlyphClass: 2
Flags: W
HStem: 1140 460
VStem: 287 452
LayerCount: 2
Fore
SplineSet
543 1600 m 1,0,-1
 553 1600 l 1,1,-1
 739 1501 l 1,2,-1
 430 1140 l 1,3,-1
 420 1140 l 1,4,-1
 287 1210 l 1,5,-1
 543 1600 l 1,0,-1
EndSplineSet
Validated: 1
EndChar

StartChar: second
Encoding: 8243 8243 144
Width: 770
GlyphClass: 2
Flags: W
HStem: 1140 460
LayerCount: 2
Fore
SplineSet
863 1600 m 1,0,-1
 873 1600 l 1,1,-1
 1059 1501 l 1,2,-1
 750 1140 l 1,3,-1
 740 1140 l 1,4,-1
 607 1210 l 1,5,-1
 863 1600 l 1,0,-1
543 1600 m 1,6,-1
 553 1600 l 1,7,-1
 739 1501 l 1,8,-1
 430 1140 l 1,9,-1
 420 1140 l 1,10,-1
 287 1210 l 1,11,-1
 543 1600 l 1,6,-1
EndSplineSet
Validated: 1
EndChar

StartChar: guilsinglleft
Encoding: 8249 8249 145
Width: 811
GlyphClass: 2
Flags: W
VStem: 270 624
DStem2: 563 731 270 755 0.35398 -0.935253<0 402.274> 270 755 563 731 0.62602 0.779807<164.709 643.749>
LayerCount: 2
Fore
SplineSet
270 755 m 1,0,-1
 673 1257 l 1,1,-1
 683 1257 l 1,2,-1
 894 1145 l 1,3,-1
 563 731 l 1,4,-1
 706 355 l 1,5,-1
 470 253 l 1,6,-1
 460 253 l 1,7,-1
 270 755 l 1,0,-1
EndSplineSet
Validated: 1
EndChar

StartChar: guilsinglright
Encoding: 8250 8250 146
Width: 811
GlyphClass: 2
Flags: W
VStem: 238 624
DStem2: 238 365 459 253 0.62602 0.779807<51.0121 530.053> 672 1257 426 1155 0.35398 -0.935253<8.31667 410.591>
LayerCount: 2
Fore
SplineSet
862 755 m 1,0,-1
 459 253 l 1,1,-1
 449 253 l 1,2,-1
 238 365 l 1,3,-1
 569 779 l 1,4,-1
 426 1155 l 1,5,-1
 662 1257 l 1,6,-1
 672 1257 l 1,7,-1
 862 755 l 1,0,-1
EndSplineSet
Validated: 1
EndChar

StartChar: fraction
Encoding: 8260 8260 147
Width: 937
GlyphClass: 2
Flags: W
HStem: -20 21G<205.301 266.57> 1510 20G<992.416 1053.52>
DStem2: 30 93 253 -20 0.561853 0.827237<31.8155 1737.11>
LayerCount: 2
Fore
SplineSet
243 -20 m 1,0,-1
 30 93 l 1,1,-1
 1006 1530 l 1,2,-1
 1016 1530 l 1,3,-1
 1228 1417 l 1,4,-1
 253 -20 l 1,5,-1
 243 -20 l 1,0,-1
EndSplineSet
Validated: 1
EndChar

StartChar: Euro
Encoding: 8364 8364 148
Width: 1425
GlyphClass: 2
Flags: W
HStem: -20 300<659.782 1011.1> 586 140<255 340 689 1034> 786 140<298 382 732 1076> 1230 300<843.89 1191.31>
VStem: 291 334<237 566.516>
LayerCount: 2
Fore
SplineSet
791 -20 m 128,-1,1
 578 -20 578 -20 416 82 c 0,2,3
 291 161 291 161 291 313 c 0,4,5
 291 359 291 359 302 411 c 2,6,-1
 340 586 l 1,7,-1
 165 586 l 1,8,-1
 167 596 l 1,9,-1
 255 726 l 1,10,-1
 369 726 l 1,11,-1
 382 786 l 1,12,-1
 207 786 l 1,13,-1
 209 796 l 1,14,-1
 298 926 l 1,15,-1
 412 926 l 1,16,-1
 449 1099 l 2,17,18
 500 1344 500 1344 656 1428 c 0,19,20
 846 1530 846 1530 1060 1530 c 0,21,22
 1287 1530 1287 1530 1436 1428 c 0,23,24
 1550 1351 1550 1351 1550 1198 c 0,25,26
 1550 1160 1550 1160 1543 1118 c 1,27,-1
 1212 974 l 1,28,-1
 1202 974 l 1,29,-1
 1221 1065 l 2,30,31
 1226 1088 1226 1088 1226 1107 c 0,32,33
 1226 1160 1226 1160 1190 1189 c 0,34,35
 1138 1230 1138 1230 1028 1230 c 0,36,37
 922 1230 922 1230 846 1189 c 0,38,39
 779 1153 779 1153 761 1065 c 2,40,-1
 732 926 l 1,41,-1
 1167 926 l 1,42,-1
 1165 916 l 1,43,-1
 1076 786 l 1,44,-1
 702 786 l 1,45,-1
 689 726 l 1,46,-1
 1124 726 l 1,47,-1
 1122 716 l 1,48,-1
 1034 586 l 1,49,-1
 660 586 l 1,50,-1
 630 445 l 2,51,52
 625 420 625 420 625 400 c 0,53,54
 625 346 625 346 661 321 c 0,55,56
 720 280 720 280 824 280 c 0,57,58
 926 280 926 280 1005 321 c 0,59,60
 1057 348 1057 348 1079 410 c 1,61,-1
 1424 558 l 1,62,-1
 1434 558 l 1,63,-1
 1402 411 l 2,64,65
 1348 165 1348 165 1194 82 c 0,66,0
 1004 -20 1004 -20 791 -20 c 128,-1,1
EndSplineSet
Validated: 1
EndChar

StartChar: afii61248
Encoding: 8453 8453 149
Width: 1700
GlyphClass: 2
Flags: W
HStem: -20 191<1237.96 1420.61> 604 191<1318.28 1500.96> 716 191<520.659 702.571> 1340 190<599.391 766.934>
VStem: 307 207<858.5 1133.72> 774 208<1280.59 1389> 1024 208<120 397.719> 1507 208<377.281 652>
DStem2: 106.608 -20 305.782 -20 0.207912 0.978148<1034.73 1416.69> 404 93 627 -20 0.561853 0.827237<31.8155 1737.11> 980.049 -20 1180.22 -20 0.207912 0.978148<283.471 664.557> 1385.54 -20 1586.05 -20 0.207912 0.978148<210.3 591.355>
LayerCount: 2
Fore
SplineSet
716 1530 m 0,0,1
 834 1530 834 1530 913 1476 c 0,2,3
 982 1429 982 1429 982 1349 c 0,4,5
 982 1329 982 1329 978 1307 c 2,6,-1
 974 1287 l 1,7,-1
 768 1212 l 1,8,-1
 758 1212 l 1,9,-1
 772 1278 l 2,10,11
 774 1287 774 1287 774 1295 c 0,12,13
 774 1313 774 1313 762 1322 c 0,14,15
 740 1340 740 1340 689 1340 c 0,16,17
 644 1340 644 1340 609 1322 c 0,18,19
 589 1312 589 1312 582 1278 c 2,20,-1
 516 969 l 2,21,22
 514 959 514 959 514 951 c 0,23,24
 514 933 514 933 525 925 c 0,25,26
 551 907 551 907 598 907 c 0,27,28
 693 907 693 907 703 953 c 2,29,-1
 705 962 l 1,30,-1
 913 1045 l 1,31,-1
 923 1045 l 1,32,-1
 903 951 l 2,33,34
 875 818 875 818 787 771 c 0,35,36
 685 716 685 716 573 716 c 0,37,38
 453 716 453 716 373 772 c 0,39,40
 307 818 307 818 307 899 c 0,41,42
 307 923 307 923 313 951 c 2,43,-1
 386 1296 l 2,44,45
 414 1429 414 1429 500 1475 c 0,46,47
 603 1530 603 1530 716 1530 c 0,0,1
1324 171 m 0,48,49
 1384 171 1384 171 1411 189 c 0,50,51
 1433 203 1433 203 1440 233 c 2,52,-1
 1505 542 l 2,53,54
 1507 551 1507 551 1507 559 c 0,55,56
 1507 577 1507 577 1496 586 c 0,57,58
 1474 604 1474 604 1414 604 c 0,59,60
 1358 604 1358 604 1328 586 c 0,61,62
 1306 573 1306 573 1299 542 c 2,63,-1
 1234 233 l 2,64,65
 1232 224 1232 224 1232 216 c 0,66,67
 1232 198 1232 198 1243 189 c 0,68,69
 1265 171 1265 171 1324 171 c 0,48,49
1298 -20 m 0,70,71
 1176 -20 1176 -20 1090 36 c 0,72,73
 1024 78 1024 78 1024 162 c 0,74,75
 1024 187 1024 187 1030 215 c 2,76,-1
 1103 560 l 2,77,78
 1132 694 1132 694 1218 740 c 0,79,80
 1320 795 1320 795 1442 795 c 0,81,82
 1570 795 1570 795 1650 738 c 0,83,84
 1715 692 1715 692 1715 612 c 0,85,86
 1715 588 1715 588 1709 560 c 2,87,-1
 1636 215 l 2,88,89
 1608 81 1608 81 1521 35 c 0,90,91
 1418 -20 1418 -20 1298 -20 c 0,70,71
617 -20 m 1,92,-1
 404 93 l 1,93,-1
 1380 1530 l 1,94,-1
 1390 1530 l 1,95,-1
 1602 1417 l 1,96,-1
 627 -20 l 1,97,-1
 617 -20 l 1,92,-1
EndSplineSet
Validated: 1
EndChar

StartChar: afii61289
Encoding: 8467 8467 150
Width: 1247
GlyphClass: 2
Flags: W
HStem: -20 236<632 800.645> 0 21G<110 490.364> 1510 20G<1129.5 1227>
LayerCount: 2
Fore
SplineSet
686 -20 m 0,0,1
 578 -20 578 -20 510 44 c 1,2,-1
 474 0 l 1,3,-1
 110 0 l 1,4,5
 306 162 306 162 444 325 c 1,6,7
 453 420 453 420 475 524 c 0,8,9
 509 686 509 686 595 865 c 0,10,11
 773 1240 773 1240 963 1423 c 0,12,13
 1074 1530 1074 1530 1185 1530 c 0,14,15
 1269 1530 1269 1530 1309 1480 c 0,16,17
 1341 1439 1341 1439 1341 1371 c 0,18,19
 1341 1331 1341 1331 1330 1281 c 0,20,21
 1310 1186 1310 1186 1250 1041 c 0,22,23
 1105 688 1105 688 734 272 c 1,24,25
 731 254 731 254 731 242 c 0,26,27
 731 216 731 216 745 216 c 0,28,29
 766 216 766 216 800 260 c 0,30,31
 821 286 821 286 839 319 c 1,32,-1
 1155 319 l 1,33,34
 1025 144 1025 144 910.5 62 c 128,-1,35
 796 -20 796 -20 686 -20 c 0,0,1
EndSplineSet
Validated: 1
EndChar

StartChar: trademark
Encoding: 8482 8482 151
Width: 1791
GlyphClass: 2
Flags: W
HStem: 1339 191<465 558 758 899 1160.31 1344.11 1565.25 1750.04>
VStem: 1756 208<1124.23 1395>
DStem2: 427 723 627.058 723 0.207912 0.978148<118.27 629.775> 825 723 1025.06 723 0.207912 0.978148<118.27 664.194> 1230 723 1430.06 723 0.207912 0.978148<118.27 592.238> 1635 723 1835.06 723 0.207912 0.978148<118.27 590.312>
LayerCount: 2
Fore
SplineSet
1283 1538 m 128,-1,1
 1400 1538 1400 1538 1477 1488 c 1,2,3
 1574 1537 1574 1537 1692 1537 c 0,4,5
 1818 1537 1818 1537 1898 1482 c 0,6,7
 1964 1436 1964 1436 1964 1354 c 0,8,9
 1964 1330 1964 1330 1958 1303 c 2,10,-1
 1851 798 l 1,11,-1
 1645 723 l 1,12,-1
 1635 723 l 1,13,-1
 1754 1285 l 2,14,15
 1756 1294 1756 1294 1756 1301 c 0,16,17
 1756 1319 1756 1319 1745 1329 c 0,18,19
 1726 1347 1726 1347 1664 1347 c 128,-1,20
 1602 1347 1602 1347 1577 1329 c 0,21,22
 1555 1314 1555 1314 1549 1285 c 2,23,-1
 1446 798 l 1,24,-1
 1240 723 l 1,25,-1
 1230 723 l 1,26,-1
 1349 1285 l 2,27,28
 1351 1295 1351 1295 1351 1303 c 0,29,30
 1351 1321 1351 1321 1340 1329 c 0,31,32
 1317 1347 1317 1347 1260 1347 c 0,33,34
 1202 1347 1202 1347 1171 1329 c 0,35,36
 1151 1317 1151 1317 1144 1285 c 2,37,-1
 1041 798 l 1,38,-1
 835 723 l 1,39,-1
 825 723 l 1,40,-1
 948 1303 l 2,41,42
 976 1436 976 1436 1062 1482 c 0,43,0
 1166 1538 1166 1538 1283 1538 c 128,-1,1
465 1530 m 1,44,-1
 1011 1530 l 1,45,-1
 1009 1520 l 1,46,-1
 899 1339 l 1,47,-1
 758 1339 l 1,48,-1
 643 798 l 1,49,-1
 437 723 l 1,50,-1
 427 723 l 1,51,-1
 558 1339 l 1,52,-1
 345 1339 l 1,53,-1
 347 1349 l 1,54,-1
 465 1530 l 1,44,-1
EndSplineSet
Validated: 1
EndChar

StartChar: uni2126
Encoding: 8486 8486 152
Width: 1450
GlyphClass: 2
Flags: W
HStem: 0 300<360 531 1076 1154> 1230 300<786.695 1165.94>
VStem: 292 324<511.501 728.716> 1202 333<942.594 1273>
DStem2: 160.375 0 479.65 0 0.207912 0.978148<701.824 1279.69> 969.65 0 1290.37 0 0.207912 0.978148<535.464 1135.37>
LayerCount: 2
Fore
SplineSet
688 0 m 1,0,-1
 160 0 l 1,1,-1
 162 10 l 1,2,-1
 360 300 l 1,3,-1
 531 300 l 1,4,5
 292 362 292 362 292 573 c 0,6,7
 292 618 292 618 303 671 c 2,8,-1
 394 1099 l 2,9,10
 446 1344 446 1344 602 1428 c 0,11,12
 792 1530 792 1530 1020 1530 c 128,-1,13
 1248 1530 1248 1530 1410 1428 c 0,14,15
 1535 1349 1535 1349 1535 1197 c 0,16,17
 1535 1151 1535 1151 1524 1099 c 2,18,-1
 1433 671 l 2,19,20
 1364 346 1364 346 1076 300 c 1,21,-1
 1354 300 l 1,22,-1
 1352 290 l 1,23,-1
 1154 0 l 1,24,-1
 762 0 l 1,25,-1
 856 442 l 1,26,27
 1075 498 1075 498 1111 665 c 2,28,-1
 1196 1065 l 2,29,30
 1202 1091 1202 1091 1202 1112 c 0,31,32
 1202 1166 1202 1166 1165 1189 c 0,33,34
 1099 1230 1099 1230 986.5 1230 c 128,-1,35
 874 1230 874 1230 791 1189 c 0,36,37
 725 1157 725 1157 706 1065 c 2,38,-1
 621 665 l 2,39,40
 616 641 616 641 616 620 c 0,41,42
 616 497 616 497 782 443 c 1,43,-1
 688 0 l 1,0,-1
EndSplineSet
Validated: 1
EndChar

StartChar: estimated
Encoding: 8494 8494 153
Width: 1241
GlyphClass: 2
Flags: W
HStem: -20 183<484.071 844.178> 491 189<538 990> 935 185<629.618 988.502>
LayerCount: 2
Fore
SplineSet
615 -20 m 0,0,1
 364 -20 364 -20 245 145 c 0,2,3
 162 260 162 260 162 412 c 0,4,5
 162 479 162 479 178 553 c 0,6,7
 231 802 231 802 420 960 c 0,8,9
 612 1120 612 1120 854 1120 c 0,10,11
 1097 1120 1097 1120 1214 974 c 0,12,13
 1306 858 1306 858 1306 679 c 0,14,15
 1306 593 1306 593 1285 491 c 1,16,-1
 497 491 l 1,17,-1
 444 239 l 1,18,19
 523 163 523 163 654 163 c 0,20,21
 862 163 862 163 1020 351 c 1,22,-1
 1163 255 l 1,23,24
 1003 85 1003 85 873 32.5 c 128,-1,25
 743 -20 743 -20 615 -20 c 0,0,1
990 680 m 1,26,-1
 1028 862 l 1,27,28
 946 935 946 935 816 935 c 0,29,30
 684 935 684 935 576 861 c 1,31,-1
 538 680 l 1,32,-1
 990 680 l 1,26,-1
EndSplineSet
Validated: 1
EndChar

StartChar: partialdiff
Encoding: 8706 8706 154
Width: 1325
GlyphClass: 2
Flags: W
HStem: -20 273<518.171 730.08> 823 260<742.537 985.899> 1257 273<781.982 1086.06>
VStem: 183 317<275.435 519.417> 1130 310<1024.77 1213.04>
LayerCount: 2
Fore
SplineSet
528 -20 m 0,0,1
 258 -20 258 -20 199 171 c 0,2,3
 183 223 183 223 183 285 c 0,4,5
 183 345 183 345 198 416 c 0,6,7
 253 673 253 673 450.5 878 c 128,-1,8
 648 1083 648 1083 920 1083 c 0,9,10
 1039 1083 1039 1083 1124 1024 c 1,11,12
 1130 1059 1130 1059 1130 1089 c 0,13,14
 1130 1138 1130 1138 1114 1173 c 0,15,16
 1075 1257 1075 1257 953 1257 c 0,17,18
 798 1257 798 1257 621 1132 c 1,19,-1
 687 1443 l 1,20,21
 851 1530 851 1530 1048 1530 c 0,22,23
 1365 1530 1365 1530 1426 1271 c 0,24,25
 1440 1213 1440 1213 1440 1145 c 0,26,27
 1440 1057 1440 1057 1417 950 c 0,28,29
 1335 563 1335 563 1090 272 c 0,30,31
 847 -20 847 -20 528 -20 c 0,0,1
1028 699 m 1,32,33
 1019 756 1019 756 982 788 c 0,34,35
 942 823 942 823 875 823 c 0,36,37
 766 823 766 823 660 706 c 0,38,39
 535 567 535 567 507 431 c 0,40,41
 500 396 500 396 500 367 c 0,42,43
 500 324 500 324 516 295 c 0,44,45
 539 253 539 253 599 253 c 0,46,47
 706 253 706 253 827 376 c 128,-1,48
 948 499 948 499 1028 699 c 1,32,33
EndSplineSet
Validated: 1
EndChar

StartChar: uni2206
Encoding: 8710 8710 155
Width: 1505
GlyphClass: 2
Flags: W
HStem: 0 300<524 1120> 1510 20G<1143.69 1203.92>
DStem2: 5 0 524 300 0.533902 0.845546<530.759 1381.63> 1200 1530 979 1019 0.192414 -0.981314<458.928 1191.62>
LayerCount: 2
Fore
SplineSet
5 0 m 1,0,-1
 889 1400 l 1,1,-1
 1190 1530 l 1,2,-1
 1200 1530 l 1,3,-1
 1500 0 l 1,4,-1
 5 0 l 1,0,-1
524 300 m 1,5,-1
 1120 300 l 1,6,-1
 979 1019 l 1,7,-1
 524 300 l 1,5,-1
EndSplineSet
Validated: 1
EndChar

StartChar: product
Encoding: 8719 8719 156
Width: 1440
GlyphClass: 2
Flags: W
HStem: -430 21G<69 125.395 869 925.395> 1210 300<749 1217>
DStem2: 69 -430 388.754 -430 0.207912 0.978148<216.765 1743.05> 869 -430 1188.75 -430 0.207912 0.978148<216.765 1676.52>
LayerCount: 2
Fore
SplineSet
79 -430 m 1,0,-1
 69 -430 l 1,1,-1
 454 1384 l 1,2,-1
 749 1510 l 1,3,-1
 1601 1510 l 1,4,-1
 1220 -283 l 1,5,-1
 879 -430 l 1,6,-1
 869 -430 l 1,7,-1
 1217 1210 l 1,8,-1
 737 1210 l 1,9,-1
 420 -283 l 1,10,-1
 79 -430 l 1,0,-1
EndSplineSet
Validated: 1
EndChar

StartChar: summation
Encoding: 8721 8721 157
Width: 1284
GlyphClass: 2
Flags: W
HStem: -410 300<572 951> 1210 300<815 1289>
DStem2: -27 -410 572 -110 0.591399 0.806379<596.162 1232.67> 815 1210 377 1427 0.359721 -0.93306<0 543.447>
LayerCount: 2
Fore
SplineSet
-27 -410 m 1,0,-1
 702 584 l 1,1,-1
 377 1427 l 1,2,-1
 571 1510 l 1,3,-1
 1489 1510 l 1,4,-1
 1487 1500 l 1,5,-1
 1289 1210 l 1,6,-1
 815 1210 l 1,7,-1
 1067 545 l 1,8,-1
 572 -110 l 1,9,-1
 1151 -110 l 1,10,-1
 1148 -120 l 1,11,-1
 951 -410 l 1,12,-1
 -27 -410 l 1,0,-1
EndSplineSet
Validated: 1
EndChar

StartChar: minus
Encoding: 8722 8722 158
Width: 1240
GlyphClass: 2
Flags: W
HStem: 620 270<424 1137>
LayerCount: 2
Fore
SplineSet
424 890 m 1,0,-1
 1319 890 l 1,1,-1
 1317 880 l 1,2,-1
 1137 620 l 1,3,-1
 242 620 l 1,4,-1
 244 630 l 1,5,-1
 424 890 l 1,0,-1
EndSplineSet
Validated: 1
EndChar

StartChar: uni2215
Encoding: 8725 8725 159
Width: 937
GlyphClass: 2
Flags: W
HStem: -20 21G<205.301 266.57> 1510 20G<992.416 1053.52>
DStem2: 30 93 253 -20 0.561853 0.827237<31.8155 1737.11>
LayerCount: 2
Fore
SplineSet
243 -20 m 1,0,-1
 30 93 l 1,1,-1
 1006 1530 l 1,2,-1
 1016 1530 l 1,3,-1
 1228 1417 l 1,4,-1
 253 -20 l 1,5,-1
 243 -20 l 1,0,-1
EndSplineSet
Validated: 1
EndChar

StartChar: uni2219
Encoding: 8729 8729 160
Width: 420
GlyphClass: 2
Flags: W
HStem: 573 365<282.097 458.323>
VStem: 186 369<668.75 842.936>
LayerCount: 2
Fore
SplineSet
409 938 m 0,0,1
 485 938 485 938 526 885 c 0,2,3
 555 847 555 847 555 796 c 0,4,5
 555 777 555 777 551 756 c 0,6,7
 535 681 535 681 470.5 627 c 128,-1,8
 406 573 406 573 332 573 c 0,9,10
 256 573 256 573 216 627 c 0,11,12
 186 666 186 666 186 716 c 0,13,14
 186 735 186 735 190 755 c 0,15,16
 206 831 206 831 270 884 c 0,17,18
 334 938 334 938 409 938 c 0,0,1
EndSplineSet
Validated: 1
EndChar

StartChar: radical
Encoding: 8730 8730 161
Width: 1119
GlyphClass: 2
Flags: W
HStem: -20 21G<296.505 356.508> 1510 20G<1149.64 1211.17>
DStem2: 513 480 603 106 0.526062 0.850446<0 1234.38>
LayerCount: 2
Fore
SplineSet
310 -20 m 1,0,-1
 300 -20 l 1,1,-1
 167 741 l 1,2,-1
 437 858 l 1,3,-1
 447 858 l 1,4,-1
 513 480 l 1,5,-1
 1162 1530 l 1,6,-1
 1172 1530 l 1,7,-1
 1409 1409 l 1,8,-1
 603 106 l 1,9,-1
 310 -20 l 1,0,-1
EndSplineSet
Validated: 1
EndChar

StartChar: infinity
Encoding: 8734 8734 162
Width: 1449
GlyphClass: 2
Flags: W
HStem: 385 216<498.111 720.762 998.174 1220.86> 909 216<549.14 771.797 1048.82 1270.49>
VStem: 244 242<556 841.807> 1284 242<668.193 957>
LayerCount: 2
Fore
SplineSet
1102.5 601 m 128,-1,1
 1166 601 1166 601 1210 626 c 0,2,3
 1245 647 1245 647 1256 695 c 2,4,-1
 1281 815 l 2,5,6
 1284 828 1284 828 1284 840 c 0,7,8
 1284 869 1284 869 1265 884 c 0,9,10
 1231 909 1231 909 1167 909 c 128,-1,11
 1103 909 1103 909 1059 884 c 0,12,13
 1024 863 1024 863 1013 815 c 2,14,-1
 988 695 l 2,15,16
 985 682 985 682 985 670 c 0,17,18
 985 641 985 641 1004 626 c 0,19,0
 1039 601 1039 601 1102.5 601 c 128,-1,1
603.5 601 m 128,-1,21
 667 601 667 601 711 626 c 0,22,23
 746 647 746 647 757 695 c 2,24,-1
 782 815 l 2,25,26
 785 828 785 828 785 840 c 0,27,28
 785 869 785 869 766 884 c 0,29,30
 732 909 732 909 668 909 c 128,-1,31
 604 909 604 909 560 884 c 0,32,33
 525 863 525 863 514 815 c 2,34,-1
 489 695 l 2,35,36
 486 682 486 682 486 670 c 0,37,38
 486 641 486 641 505 626 c 0,39,20
 540 601 540 601 603.5 601 c 128,-1,21
699 1125 m 0,40,41
 840 1125 840 1125 935 1061 c 1,42,43
 1057 1125 1057 1125 1198 1125 c 0,44,45
 1345 1125 1345 1125 1446 1058 c 0,46,47
 1526 1006 1526 1006 1526 908 c 0,48,49
 1526 879 1526 879 1519 847 c 2,50,-1
 1480 663 l 2,51,52
 1448 512 1448 512 1340 452 c 0,53,54
 1219 385 1219 385 1071 385 c 0,55,56
 930 385 930 385 834 449 c 1,57,58
 712 385 712 385 572 385 c 0,59,60
 418 385 418 385 324 452 c 0,61,62
 245 508 245 508 244 604 c 0,63,64
 244 632 244 632 251 663 c 2,65,-1
 290 847 l 2,66,67
 322 998 322 998 430 1058 c 0,68,69
 551 1125 551 1125 699 1125 c 0,40,41
EndSplineSet
Validated: 1
EndChar

StartChar: approxequal
Encoding: 8776 8776 163
Width: 1178
GlyphClass: 2
Flags: W
LayerCount: 2
Fore
SplineSet
1217 747 m 1,0,-1
 1227 747 l 1,1,2
 1125 265 1125 265 838 265 c 0,3,4
 682 265 682 265 588 416 c 0,5,6
 561 459 561 459 554 468 c 0,7,8
 545 479 545 479 533 479 c 0,9,10
 500 479 500 479 481 397 c 1,11,-1
 176 265 l 1,12,-1
 166 265 l 1,13,14
 268 747 268 747 555 747 c 0,15,16
 711 747 711 747 806 596 c 0,17,18
 833 553 833 553 840 544 c 0,19,20
 849 533 849 533 860 533 c 0,21,22
 893 533 893 533 912 615 c 1,23,-1
 1217 747 l 1,0,-1
1323 1247 m 1,24,-1
 1333 1247 l 1,25,26
 1231 765 1231 765 944 765 c 0,27,28
 788 765 788 765 694 916 c 0,29,30
 667 959 667 959 660 968 c 0,31,32
 651 979 651 979 639 979 c 0,33,34
 606 979 606 979 587 897 c 1,35,-1
 282 765 l 1,36,-1
 272 765 l 1,37,38
 374 1247 374 1247 661 1247 c 0,39,40
 817 1247 817 1247 912 1096 c 0,41,42
 939 1053 939 1053 946 1044 c 0,43,44
 955 1033 955 1033 966 1033 c 0,45,46
 999 1033 999 1033 1018 1115 c 1,47,-1
 1323 1247 l 1,24,-1
EndSplineSet
Validated: 1
EndChar

StartChar: notequal
Encoding: 8800 8800 164
Width: 1240
GlyphClass: 2
Flags: W
HStem: 390 270<375 448 617 631 800 1088> 850 270<473 760 930 943 1113 1186>
DStem2: 298 170 465 166 0.561828 0.827254<90.5163 266.27 687.392 822.097 1243.78 1420.36>
LayerCount: 2
Fore
SplineSet
473 1120 m 1,0,-1
 943 1120 l 1,1,-1
 1096 1345 l 1,2,-1
 1255 1345 l 1,3,-1
 1263 1341 l 1,4,-1
 1113 1120 l 1,5,-1
 1368 1120 l 1,6,-1
 1366 1110 l 1,7,-1
 1186 850 l 1,8,-1
 930 850 l 1,9,-1
 800 660 l 1,10,-1
 1270 660 l 1,11,-1
 1268 650 l 1,12,-1
 1088 390 l 1,13,-1
 617 390 l 1,14,-1
 465 166 l 1,15,-1
 306 166 l 1,16,-1
 298 170 l 1,17,-1
 448 390 l 1,18,-1
 193 390 l 1,19,-1
 195 400 l 1,20,-1
 375 660 l 1,21,-1
 631 660 l 1,22,-1
 760 850 l 1,23,-1
 291 850 l 1,24,-1
 293 860 l 1,25,-1
 473 1120 l 1,0,-1
EndSplineSet
Validated: 1
EndChar

StartChar: lessequal
Encoding: 8804 8804 165
Width: 1355
GlyphClass: 2
Flags: W
HStem: 154 270<325 1103>
DStem2: 804 910 282 806 0.933479 -0.358631<0 512.014> 452 1059 804 910 0.945892 0.324481<284.606 958.174>
LayerCount: 2
Fore
SplineSet
282 806 m 1,0,-1
 284 816 l 1,1,-1
 452 1059 l 1,2,-1
 1379 1377 l 1,3,-1
 1444 1136 l 1,4,-1
 1442 1126 l 1,5,-1
 804 910 l 1,6,-1
 1346 707 l 1,7,-1
 1343 697 l 1,8,-1
 1180 461 l 1,9,-1
 282 806 l 1,0,-1
325 424 m 1,10,-1
 1285 424 l 1,11,-1
 1283 414 l 1,12,-1
 1103 154 l 1,13,-1
 143 154 l 1,14,-1
 145 164 l 1,15,-1
 325 424 l 1,10,-1
EndSplineSet
Validated: 1
EndChar

StartChar: greaterequal
Encoding: 8805 8805 166
Width: 1355
GlyphClass: 2
Flags: W
HStem: 154 270<375 1153>
DStem2: 304 712 367 461 0.945892 0.324481<0 673.567> 566 1377 400 1131 0.933479 -0.358631<0 512.014>
LayerCount: 2
Fore
SplineSet
1464 1032 m 1,0,-1
 1462 1022 l 1,1,-1
 1294 779 l 1,2,-1
 367 461 l 1,3,-1
 302 702 l 1,4,-1
 304 712 l 1,5,-1
 942 928 l 1,6,-1
 400 1131 l 1,7,-1
 403 1141 l 1,8,-1
 566 1377 l 1,9,-1
 1464 1032 l 1,0,-1
375 424 m 1,10,-1
 1335 424 l 1,11,-1
 1333 414 l 1,12,-1
 1153 154 l 1,13,-1
 193 154 l 1,14,-1
 195 164 l 1,15,-1
 375 424 l 1,10,-1
EndSplineSet
Validated: 1
EndChar

StartChar: lozenge
Encoding: 9674 9674 167
Width: 1178
GlyphClass: 2
Flags: W
HStem: -20 21G<575.29 603.16> 1510 20G<896.399 923.176>
DStem2: 217 738 523 721 0.660649 0.750695<189.397 645.741> 672 415 585 -20 0.672237 0.740336<0 449.148>
LayerCount: 2
Fore
SplineSet
672 415 m 1,0,-1
 969 752 l 1,1,-1
 824 1064 l 1,2,-1
 523 721 l 1,3,-1
 672 415 l 1,0,-1
585 -20 m 1,4,-1
 217 738 l 1,5,-1
 914 1530 l 1,6,-1
 1276 741 l 1,7,-1
 585 -20 l 1,4,-1
EndSplineSet
Validated: 1
EndChar

StartChar: Oslash
Encoding: 216 216 168
Width: 1370
Flags: W
HStem: -40 21G<242 384.623> -20 300<604.938 944.695> 1230 300<746.695 1083.96>
VStem: 197 332<387 570.938> 1162 333<948.75 1124>
DStem2: 111.137 -40 431.91 -40 0.207912 0.978148<505.495 1320.74> 242 -36 371 -40 0.562139 0.827043<69.2077 144.214 511.173 1476.54 1845.15 1917.11> 921.125 -40 1241.14 -40 0.207912 0.978148<370.963 1187.7>
LayerCount: 2
Fore
SplineSet
371 -40 m 1,0,-1
 250 -40 l 1,1,-1
 242 -36 l 1,2,-1
 321 81 l 1,3,4
 197 168 197 168 197 318 c 0,5,6
 197 364 197 364 207 411 c 2,7,-1
 354 1099 l 2,8,9
 406 1344 406 1344 562 1428 c 0,10,11
 752 1530 752 1530 980 1530 c 0,12,13
 1142 1530 1142 1530 1271 1479 c 1,14,-1
 1319 1550 l 1,15,-1
 1440 1550 l 1,16,-1
 1449 1546 l 1,17,-1
 1369 1429 l 1,18,19
 1495 1349 1495 1349 1495 1197 c 0,20,21
 1495 1150 1495 1150 1484 1099 c 2,22,-1
 1337 411 l 2,23,24
 1284 165 1284 165 1130 82 c 0,25,26
 940 -20 940 -20 711 -20 c 0,27,28
 540 -20 540 -20 418 29 c 1,29,-1
 371 -40 l 1,0,-1
745 280 m 0,30,31
 857 280 857 280 940 321 c 0,32,33
 1006 353 1006 353 1025 445 c 2,34,-1
 1156 1065 l 2,35,36
 1162 1093 1162 1093 1162 1124 c 1,37,-1
 604 302 l 1,38,39
 662 280 662 280 745 280 c 0,30,31
529 387 m 1,40,-1
 1087 1208 l 1,41,42
 1028 1230 1028 1230 946 1230 c 0,43,44
 834 1230 834 1230 751 1189 c 0,45,46
 685 1157 685 1157 666 1065 c 2,47,-1
 535 445 l 2,48,49
 529 418 529 418 529 387 c 1,40,-1
EndSplineSet
Validated: 1
EndChar

StartChar: oslash
Encoding: 248 248 169
Width: 1190
Flags: W
HStem: -40 21G<247 390.469> -20 280<586.987 799.322> 840 280<624.678 837.498>
VStem: 184 313<332 508> 927 314<595.938 770>
DStem2: 111.229 -40 411.301 -40 0.207912 0.978148<445.052 935.671> 309 56 377 -40 0.561983 0.827149<-41.1914 0 333.946 937.89 1269.06 1310.81> 761.301 -40 1061.95 -40 0.207912 0.978148<333.2 825.715>
LayerCount: 2
Fore
SplineSet
377 -40 m 1,0,-1
 256 -40 l 1,1,-1
 247 -36 l 1,2,-1
 309 56 l 1,3,4
 300 62 300 62 292 67 c 0,5,6
 184 142 184 142 184 268 c 0,7,8
 184 302 184 302 192 340 c 2,9,-1
 282 760 l 2,10,11
 326 964 326 964 453 1033 c 0,12,13
 614 1120 614 1120 803 1120 c 0,14,15
 916 1120 916 1120 1011 1089 c 1,16,-1
 1046 1140 l 1,17,-1
 1167 1140 l 1,18,-1
 1176 1136 l 1,19,-1
 1113 1044 l 1,20,21
 1122 1039 1122 1039 1132 1033 c 0,22,23
 1241 965 1241 965 1241 837 c 0,24,25
 1241 801 1241 801 1232 760 c 2,26,-1
 1142 340 l 2,27,28
 1098 136 1098 136 971 67 c 0,29,30
 810 -20 810 -20 621 -20 c 0,31,32
 502 -20 502 -20 410 9 c 1,33,-1
 377 -40 l 1,0,-1
650 260 m 0,34,35
 734 260 734 260 792 293 c 0,36,37
 837 319 837 319 851 382 c 2,38,-1
 923 718 l 2,39,40
 927 736 927 736 927 770 c 1,41,-1
 585 266 l 1,42,43
 614 260 614 260 650 260 c 0,34,35
497 332 m 1,44,-1
 838 834 l 1,45,46
 810 840 810 840 774 840 c 0,47,48
 690 840 690 840 632 807 c 0,49,50
 587 781 587 781 573 718 c 2,51,-1
 501 382 l 2,52,53
 497 364 497 364 497 332 c 1,44,-1
EndSplineSet
Validated: 1
EndChar

StartChar: multiply
Encoding: 215 215 170
Width: 1232
Flags: W
DStem2: 264 490 521 387 0.771669 0.636024<132.808 411.294 716.76 995.245> 678 1123 377 1020 0.618315 -0.78593<0 225.055 475.197 700.253>
LayerCount: 2
Fore
SplineSet
1283 1027 m 1,0,-1
 1289 1020 l 1,1,-1
 967 755 l 1,2,-1
 1176 490 l 1,3,-1
 1168 483 l 1,4,-1
 875 387 l 1,5,-1
 736 564 l 1,6,-1
 521 387 l 1,7,-1
 270 483 l 1,8,-1
 264 490 l 1,9,-1
 585 755 l 1,10,-1
 377 1020 l 1,11,-1
 385 1027 l 1,12,-1
 678 1123 l 1,13,-1
 817 946 l 1,14,-1
 1032 1123 l 1,15,-1
 1283 1027 l 1,0,-1
EndSplineSet
Validated: 1
EndChar

StartChar: divide
Encoding: 247 247 171
Width: 1240
Flags: W
HStem: 155 365<604.097 780.323> 620 270<424 1137> 990 365<781.097 957.323>
CounterMasks: 1 e0
LayerCount: 2
Fore
SplineSet
654 155 m 0,0,1
 578 155 578 155 538 209 c 0,2,3
 508 248 508 248 508 298 c 0,4,5
 508 317 508 317 512 337 c 0,6,7
 528 413 528 413 592 466 c 0,8,9
 656 520 656 520 731 520 c 0,10,11
 807 520 807 520 848 467 c 0,12,13
 877 429 877 429 877 378 c 0,14,15
 877 359 877 359 873 338 c 0,16,17
 857 263 857 263 792.5 209 c 128,-1,18
 728 155 728 155 654 155 c 0,0,1
908 1355 m 0,19,20
 984 1355 984 1355 1025 1302 c 0,21,22
 1054 1264 1054 1264 1054 1213 c 0,23,24
 1054 1194 1054 1194 1050 1173 c 0,25,26
 1034 1098 1034 1098 969.5 1044 c 128,-1,27
 905 990 905 990 831 990 c 0,28,29
 755 990 755 990 715 1044 c 0,30,31
 685 1083 685 1083 685 1133 c 0,32,33
 685 1152 685 1152 689 1172 c 0,34,35
 705 1248 705 1248 769 1301 c 0,36,37
 833 1355 833 1355 908 1355 c 0,19,20
424 890 m 1,38,-1
 1319 890 l 1,39,-1
 1317 880 l 1,40,-1
 1137 620 l 1,41,-1
 242 620 l 1,42,-1
 244 630 l 1,43,-1
 424 890 l 1,38,-1
EndSplineSet
Validated: 1
EndChar

StartChar: uni1E02
Encoding: 7682 7682 172
Width: 1290
Flags: W
HStem: 0 300<544 930.338> 686 275<684 996.865> 1225 285<749 1053.46> 1589 365<939.097 1115.32>
VStem: 1040 325<392.098 650.998> 1083 319<1006.08 1280>
DStem2: 160 0 480.233 0 0.207912 0.978148<373.282 767.896 1048.95 1318.82>
LayerCount: 2
Fore
SplineSet
1066 1954 m 0,0,1
 1142 1954 1142 1954 1183 1901 c 0,2,3
 1212 1863 1212 1863 1212 1812 c 0,4,5
 1212 1793 1212 1793 1208 1772 c 0,6,7
 1192 1697 1192 1697 1127.5 1643 c 128,-1,8
 1063 1589 1063 1589 989 1589 c 0,9,10
 913 1589 913 1589 873 1643 c 0,11,12
 843 1682 843 1682 843 1732 c 0,13,14
 843 1751 843 1751 847 1771 c 0,15,16
 863 1847 863 1847 927 1900 c 0,17,18
 991 1954 991 1954 1066 1954 c 0,0,1
626 686 m 1,19,-1
 544 300 l 1,20,-1
 739 300 l 2,21,22
 848 300 848 300 933 335 c 0,23,24
 997 362 997 362 1014 442 c 2,25,-1
 1036 544 l 2,26,27
 1040 563 1040 563 1040 579 c 0,28,29
 1040 630 1040 630 999 651 c 0,30,31
 931 686 931 686 821 686 c 2,32,-1
 626 686 l 1,19,-1
160 0 m 1,33,-1
 454 1384 l 1,34,-1
 749 1510 l 1,35,-1
 966 1510 l 2,36,37
 1175 1510 1175 1510 1290 1425 c 16,38,39
 1402 1344 1402 1344 1402 1216 c 0,40,41
 1402 1180 1402 1180 1393 1141 c 2,42,-1
 1375 1060 l 2,43,44
 1350 950 1350 950 1239 855 c 1,45,46
 1365 770 1365 770 1365 625 c 0,47,48
 1365 584 1365 584 1355 539 c 2,49,-1
 1331 430 l 2,50,51
 1276 186 1276 186 1122 102 c 0,52,53
 932 0 932 0 705 0 c 2,54,-1
 160 0 l 1,33,-1
740 1225 m 1,55,-1
 684 961 l 1,56,-1
 869 961 l 2,57,58
 954 961 954 961 1010 987 c 24,59,60
 1054 1007 1054 1007 1065 1057 c 2,61,-1
 1080 1129 l 2,62,63
 1083 1141 1083 1141 1083 1151 c 0,64,65
 1083 1185 1083 1185 1055 1199 c 0,66,67
 1006 1225 1006 1225 925 1225 c 2,68,-1
 740 1225 l 1,55,-1
EndSplineSet
Validated: 1
EndChar

StartChar: uni1E03
Encoding: 7683 7683 173
Width: 1210
Flags: W
HStem: -20 280<537.538 819.322> 840 280<673.011 924.745> 1179 365<893.097 1069.32> 1510 20G<708.768 765>
VStem: 204 313<205.5 508.812> 947 313<590.688 895>
DStem2: 135.48 -20 435.552 -20 0.207912 0.978148<441.696 915.218 1196.11 1443.63> 786.133 -20 1085.48 -20 0.207912 0.978148<312.639 786.161>
LayerCount: 2
Fore
SplineSet
1020 1544 m 0,0,1
 1096 1544 1096 1544 1137 1491 c 0,2,3
 1166 1453 1166 1453 1166 1402 c 0,4,5
 1166 1383 1166 1383 1162 1362 c 0,6,7
 1146 1287 1146 1287 1081.5 1233 c 128,-1,8
 1017 1179 1017 1179 943 1179 c 0,9,10
 867 1179 867 1179 827 1233 c 0,11,12
 797 1272 797 1272 797 1322 c 0,13,14
 797 1341 797 1341 801 1361 c 0,15,16
 817 1437 817 1437 881 1490 c 0,17,18
 945 1544 945 1544 1020 1544 c 0,0,1
670 260 m 128,-1,20
 754 260 754 260 812 293 c 0,21,22
 858 319 858 319 871 382 c 2,23,-1
 943 718 l 2,24,25
 947 735 947 735 947 750 c 0,26,27
 947 788 947 788 922 807 c 0,28,29
 878 840 878 840 794 840 c 128,-1,30
 710 840 710 840 652 807 c 0,31,32
 606 781 606 781 593 718 c 2,33,-1
 521 382 l 2,34,35
 517 365 517 365 517 350 c 0,36,37
 517 312 517 312 542 293 c 0,38,19
 586 260 586 260 670 260 c 128,-1,20
641 -20 m 0,39,40
 435 -20 435 -20 312 67 c 0,41,42
 204 143 204 143 204 268 c 0,43,44
 204 302 204 302 212 340 c 2,45,-1
 436 1392 l 1,46,-1
 755 1530 l 1,47,-1
 765 1530 l 1,48,-1
 671 1089 l 1,49,50
 745 1120 745 1120 838 1120 c 0,51,52
 1028 1120 1028 1120 1152 1033 c 0,53,54
 1260 958 1260 958 1260 832 c 0,55,56
 1260 798 1260 798 1252 760 c 2,57,-1
 1162 340 l 2,58,59
 1118 136 1118 136 991 67 c 0,60,61
 830 -20 830 -20 641 -20 c 0,39,40
EndSplineSet
Validated: 1
EndChar

StartChar: uni1E0A
Encoding: 7690 7690 174
Width: 1390
Flags: W
HStem: 0 300<544 967.306> 1210 300<749 1137.93> 1589 365<974.097 1150.32>
VStem: 1178 332<922.625 1253.5>
DStem2: 160 0 480.233 0 0.207912 0.978148<373.282 1303.52> 949.878 0 1270.39 0 0.207912 0.978148<351.131 1113.98>
LayerCount: 2
Fore
SplineSet
1101 1954 m 0,0,1
 1177 1954 1177 1954 1218 1901 c 0,2,3
 1247 1863 1247 1863 1247 1812 c 0,4,5
 1247 1793 1247 1793 1243 1772 c 0,6,7
 1227 1697 1227 1697 1162.5 1643 c 128,-1,8
 1098 1589 1098 1589 1024 1589 c 0,9,10
 948 1589 948 1589 908 1643 c 0,11,12
 878 1682 878 1682 878 1732 c 0,13,14
 878 1751 878 1751 882 1771 c 0,15,16
 898 1847 898 1847 962 1900 c 0,17,18
 1026 1954 1026 1954 1101 1954 c 0,0,1
544 300 m 1,19,-1
 769 300 l 2,20,21
 882 300 882 300 964 341 c 0,22,23
 1029 373 1029 373 1049 465 c 2,24,-1
 1172 1045 l 2,25,26
 1178 1071 1178 1071 1178 1091 c 0,27,28
 1178 1145 1178 1145 1140 1169 c 0,29,30
 1074 1210 1074 1210 962 1210 c 2,31,-1
 737 1210 l 1,32,-1
 544 300 l 1,19,-1
160 0 m 1,33,-1
 454 1383 l 1,34,-1
 749 1510 l 1,35,-1
 996 1510 l 2,36,37
 1224 1510 1224 1510 1386 1408 c 0,38,39
 1510 1330 1510 1330 1510 1177 c 0,40,41
 1510 1131 1510 1131 1499 1079 c 2,42,-1
 1362 431 l 2,43,44
 1310 186 1310 186 1154 102 c 0,45,46
 964 0 964 0 735 0 c 2,47,-1
 160 0 l 1,33,-1
EndSplineSet
Validated: 1
EndChar

StartChar: uni1E0B
Encoding: 7691 7691 175
Width: 1210
Flags: W
HStem: -20 280<518.242 799.322> 840 280<624.678 906.254> 1179 365<709.097 885.323>
VStem: 183 314<199 506.031>
DStem2: 115.48 -20 415.552 -20 0.207912 0.978148<441.696 915.218> 766.133 -20 1065.48 -20 0.207912 0.978148<312.639 786.161 1133.6 1443.49>
LayerCount: 2
Fore
SplineSet
836 1544 m 0,0,1
 912 1544 912 1544 953 1491 c 0,2,3
 982 1453 982 1453 982 1402 c 0,4,5
 982 1383 982 1383 978 1362 c 0,6,7
 962 1287 962 1287 897.5 1233 c 128,-1,8
 833 1179 833 1179 759 1179 c 0,9,10
 683 1179 683 1179 643 1233 c 0,11,12
 613 1272 613 1272 613 1322 c 0,13,14
 613 1341 613 1341 617 1361 c 0,15,16
 633 1437 633 1437 697 1490 c 0,17,18
 761 1544 761 1544 836 1544 c 0,0,1
650 260 m 128,-1,20
 734 260 734 260 792 293 c 0,21,22
 838 319 838 319 851 382 c 2,23,-1
 923 718 l 2,24,25
 927 735 927 735 927 750 c 0,26,27
 927 788 927 788 902 807 c 0,28,29
 858 840 858 840 774 840 c 128,-1,30
 690 840 690 840 632 807 c 0,31,32
 586 781 586 781 573 718 c 2,33,-1
 501 382 l 2,34,35
 497 365 497 365 497 350 c 0,36,37
 497 312 497 312 522 293 c 0,38,19
 566 260 566 260 650 260 c 128,-1,20
621 -20 m 128,-1,40
 432 -20 432 -20 292 67 c 0,41,42
 183 135 183 135 183 263 c 0,43,44
 183 299 183 299 192 340 c 2,45,-1
 282 760 l 2,46,47
 326 964 326 964 453 1033 c 0,48,49
 614 1120 614 1120 803 1120 c 0,50,51
 928 1120 928 1120 1001 1089 c 1,52,-1
 1066 1392 l 1,53,-1
 1385 1530 l 1,54,-1
 1395 1530 l 1,55,-1
 1142 340 l 2,56,57
 1099 136 1099 136 971 67 c 0,58,39
 810 -20 810 -20 621 -20 c 128,-1,40
EndSplineSet
Validated: 1
EndChar

StartChar: uni1E1E
Encoding: 7710 7710 176
Width: 1050
Flags: W
HStem: -20 21G<156 212.395> 605 300<672 1033> 1210 300<749 1161> 1589 365<897.097 1073.32>
DStem2: 156 -20 475.754 -20 0.207912 0.978148<216.765 705.526 1012.07 1323.92>
LayerCount: 2
Fore
SplineSet
1024 1954 m 0,0,1
 1100 1954 1100 1954 1141 1901 c 0,2,3
 1170 1863 1170 1863 1170 1812 c 0,4,5
 1170 1793 1170 1793 1166 1772 c 0,6,7
 1150 1697 1150 1697 1085.5 1643 c 128,-1,8
 1021 1589 1021 1589 947 1589 c 0,9,10
 871 1589 871 1589 831 1643 c 0,11,12
 801 1682 801 1682 801 1732 c 0,13,14
 801 1751 801 1751 805 1771 c 0,15,16
 821 1847 821 1847 885 1900 c 0,17,18
 949 1954 949 1954 1024 1954 c 0,0,1
166 -20 m 1,19,-1
 156 -20 l 1,20,-1
 454 1384 l 1,21,-1
 749 1510 l 1,22,-1
 1361 1510 l 1,23,-1
 1359 1500 l 1,24,-1
 1161 1210 l 1,25,-1
 737 1210 l 1,26,-1
 672 905 l 1,27,-1
 1232 905 l 1,28,-1
 1230 895 l 1,29,-1
 1033 605 l 1,30,-1
 609 605 l 1,31,-1
 507 127 l 1,32,-1
 166 -20 l 1,19,-1
EndSplineSet
Validated: 1
EndChar

StartChar: uni1E1F
Encoding: 7711 7711 177
Width: 860
Flags: W
HStem: -20 21G<136 192.232> 662 280<640 823> 1230 280<735.822 982> 1589 365<754.097 930.323>
DStem2: 136 -20 435.667 -20 0.207912 0.978148<203.387 759.617 1045.77 1313.68>
LayerCount: 2
Fore
SplineSet
881 1954 m 0,0,1
 957 1954 957 1954 998 1901 c 0,2,3
 1027 1863 1027 1863 1027 1812 c 0,4,5
 1027 1793 1027 1793 1023 1772 c 0,6,7
 1007 1697 1007 1697 942.5 1643 c 128,-1,8
 878 1589 878 1589 804 1589 c 0,9,10
 728 1589 728 1589 688 1643 c 0,11,12
 658 1682 658 1682 658 1732 c 0,13,14
 658 1751 658 1751 662 1771 c 0,15,16
 678 1847 678 1847 742 1900 c 0,17,18
 806 1954 806 1954 881 1954 c 0,0,1
146 -20 m 1,19,-1
 136 -20 l 1,20,-1
 384 1150 l 2,21,22
 427 1354 427 1354 556 1423 c 0,23,24
 717 1510 717 1510 906 1510 c 2,25,-1
 1171 1510 l 1,26,-1
 1169 1500 l 1,27,-1
 982 1230 l 1,28,-1
 887 1230 l 2,29,30
 792 1230 792 1230 734 1197 c 0,31,32
 690 1172 690 1172 676 1108 c 2,33,-1
 640 942 l 1,34,-1
 1011 942 l 1,35,-1
 1009 932 l 1,36,-1
 823 662 l 1,37,-1
 581 662 l 1,38,-1
 465 118 l 1,39,-1
 146 -20 l 1,19,-1
EndSplineSet
Validated: 1
EndChar

StartChar: uni1E40
Encoding: 7744 7744 178
Width: 2220
Flags: W
HStem: -20 21G<136 192.395 946 1002.39 1756 1812.39> 1230 300<767.015 1143.96 1574.47 1955.72> 1589 365<1392.1 1568.32>
VStem: 1992 333<946.727 1273>
DStem2: 136 -20 455.754 -20 0.207912 0.978148<216.765 1300.17> 946 -20 1265.75 -20 0.207912 0.978148<216.765 1155.69> 1756 -20 2075.75 -20 0.207912 0.978148<216.765 1155.69>
LayerCount: 2
Fore
SplineSet
1519 1954 m 0,0,1
 1595 1954 1595 1954 1636 1901 c 0,2,3
 1665 1863 1665 1863 1665 1812 c 0,4,5
 1665 1793 1665 1793 1661 1772 c 0,6,7
 1645 1697 1645 1697 1580.5 1643 c 128,-1,8
 1516 1589 1516 1589 1442 1589 c 0,9,10
 1366 1589 1366 1589 1326 1643 c 0,11,12
 1296 1682 1296 1682 1296 1732 c 0,13,14
 1296 1751 1296 1751 1300 1771 c 0,15,16
 1316 1847 1316 1847 1380 1900 c 0,17,18
 1444 1954 1444 1954 1519 1954 c 0,0,1
146 -20 m 1,19,-1
 136 -20 l 1,20,-1
 374 1099 l 2,21,22
 426 1344 426 1344 582 1428 c 0,23,24
 772 1530 772 1530 1002.5 1530 c 128,-1,25
 1233 1530 1233 1530 1382 1423 c 1,26,27
 1579 1530 1579 1530 1809 1530 c 0,28,29
 2038 1530 2038 1530 2200 1428 c 0,30,31
 2325 1349 2325 1349 2325 1197 c 0,32,33
 2325 1151 2325 1151 2314 1099 c 2,34,-1
 2107 127 l 1,35,-1
 1766 -20 l 1,36,-1
 1756 -20 l 1,37,-1
 1986 1065 l 2,38,39
 1992 1091 1992 1091 1992 1112 c 0,40,41
 1992 1166 1992 1166 1955 1189 c 0,42,43
 1889 1230 1889 1230 1776.5 1230 c 128,-1,44
 1664 1230 1664 1230 1581 1189 c 0,45,46
 1516 1157 1516 1157 1496 1065 c 2,47,-1
 1297 127 l 1,48,-1
 956 -20 l 1,49,-1
 946 -20 l 1,50,-1
 1176 1065 l 2,51,52
 1182 1091 1182 1091 1182 1112 c 0,53,54
 1182 1166 1182 1166 1145 1189 c 0,55,56
 1079 1230 1079 1230 966.5 1230 c 128,-1,57
 854 1230 854 1230 771 1189 c 0,58,59
 706 1157 706 1157 686 1065 c 2,60,-1
 487 127 l 1,61,-1
 146 -20 l 1,19,-1
EndSplineSet
Validated: 1
EndChar

StartChar: uni1E41
Encoding: 7745 7745 179
Width: 1880
Flags: W
HStem: -20 21G<136 192.232 786 842.232 1436 1492.23> 840 280<644.678 926.329 1296.86 1575.76> 1179 365<1133.1 1309.32>
VStem: 1597 314<595.328 901>
DStem2: 136 -20 435.667 -20 0.207912 0.978148<203.387 915.11> 786 -20 1085.67 -20 0.207912 0.978148<203.387 786.188> 1436 -20 1735.67 -20 0.207912 0.978148<203.387 786.188>
LayerCount: 2
Fore
SplineSet
1260 1544 m 0,0,1
 1336 1544 1336 1544 1377 1491 c 0,2,3
 1406 1453 1406 1453 1406 1402 c 0,4,5
 1406 1383 1406 1383 1402 1362 c 0,6,7
 1386 1287 1386 1287 1321.5 1233 c 128,-1,8
 1257 1179 1257 1179 1183 1179 c 0,9,10
 1107 1179 1107 1179 1067 1233 c 0,11,12
 1037 1272 1037 1272 1037 1322 c 0,13,14
 1037 1341 1037 1341 1041 1361 c 0,15,16
 1057 1437 1057 1437 1121 1490 c 0,17,18
 1185 1544 1185 1544 1260 1544 c 0,0,1
146 -20 m 1,19,-1
 136 -20 l 1,20,-1
 302 760 l 2,21,22
 345 964 345 964 473 1033 c 0,23,24
 634 1120 634 1120 823 1120 c 0,25,26
 1007 1120 1007 1120 1130 1037 c 1,27,28
 1289 1120 1289 1120 1473 1120 c 0,29,30
 1662 1120 1662 1120 1802 1033 c 0,31,32
 1911 965 1911 965 1911 837 c 0,33,34
 1911 801 1911 801 1902 760 c 2,35,-1
 1765 118 l 1,36,-1
 1446 -20 l 1,37,-1
 1436 -20 l 1,38,-1
 1593 718 l 2,39,40
 1597 735 1597 735 1597 750 c 0,41,42
 1597 788 1597 788 1572 807 c 0,43,44
 1528 840 1528 840 1444 840 c 128,-1,45
 1360 840 1360 840 1302 807 c 0,46,47
 1256 781 1256 781 1243 718 c 2,48,-1
 1115 118 l 1,49,-1
 796 -20 l 1,50,-1
 786 -20 l 1,51,-1
 943 718 l 2,52,53
 947 735 947 735 947 750 c 0,54,55
 947 788 947 788 922 807 c 0,56,57
 878 840 878 840 794 840 c 128,-1,58
 710 840 710 840 652 807 c 0,59,60
 606 781 606 781 593 718 c 2,61,-1
 465 118 l 1,62,-1
 146 -20 l 1,19,-1
EndSplineSet
Validated: 1
EndChar

StartChar: uni1E56
Encoding: 7766 7766 180
Width: 1270
Flags: W
HStem: -20 21G<156 212.395> 440 300<637 1031.31> 1210 300<749 1107.93> 1589 365<930.097 1106.32>
VStem: 1148 332<918.938 1253.5>
DStem2: 156 -20 475.754 -20 0.207912 0.978148<216.765 536.855 843.398 1323.92>
LayerCount: 2
Fore
SplineSet
1057 1954 m 0,0,1
 1133 1954 1133 1954 1174 1901 c 0,2,3
 1203 1863 1203 1863 1203 1812 c 0,4,5
 1203 1793 1203 1793 1199 1772 c 0,6,7
 1183 1697 1183 1697 1118.5 1643 c 128,-1,8
 1054 1589 1054 1589 980 1589 c 0,9,10
 904 1589 904 1589 864 1643 c 0,11,12
 834 1682 834 1682 834 1732 c 0,13,14
 834 1751 834 1751 838 1771 c 0,15,16
 854 1847 854 1847 918 1900 c 0,17,18
 982 1954 982 1954 1057 1954 c 0,0,1
166 -20 m 1,19,-1
 156 -20 l 1,20,-1
 454 1383 l 1,21,-1
 749 1510 l 1,22,-1
 966 1510 l 2,23,24
 1194 1510 1194 1510 1356 1408 c 0,25,26
 1480 1330 1480 1330 1480 1177 c 0,27,28
 1480 1131 1480 1131 1469 1079 c 2,29,-1
 1425 871 l 2,30,31
 1374 626 1374 626 1218 542 c 0,32,33
 1028 440 1028 440 799 440 c 2,34,-1
 574 440 l 1,35,-1
 507 127 l 1,36,-1
 166 -20 l 1,19,-1
737 1210 m 1,37,-1
 637 740 l 1,38,-1
 832 740 l 2,39,40
 945 740 945 740 1028 781 c 0,41,42
 1093 813 1093 813 1112 905 c 2,43,-1
 1142 1045 l 2,44,45
 1148 1071 1148 1071 1148 1091 c 0,46,47
 1148 1145 1148 1145 1110 1169 c 0,48,49
 1044 1210 1044 1210 932 1210 c 2,50,-1
 737 1210 l 1,37,-1
EndSplineSet
Validated: 1
EndChar

StartChar: uni1E57
Encoding: 7767 7767 181
Width: 1210
Flags: W
HStem: -430 21G<49 105.232> -20 280<537.628 819.322> 840 280<644.678 925.758> 1179 365<814.097 990.323>
VStem: 947 314<593.969 901>
DStem2: 49 -430 348.667 -430 0.207912 0.978148<203.387 513.072 860.717 1334.24> 698.985 -430 998.331 -430 0.207912 0.978148<731.799 1205.32>
LayerCount: 2
Fore
SplineSet
941 1544 m 0,0,1
 1017 1544 1017 1544 1058 1491 c 0,2,3
 1087 1453 1087 1453 1087 1402 c 0,4,5
 1087 1383 1087 1383 1083 1362 c 0,6,7
 1067 1287 1067 1287 1002.5 1233 c 128,-1,8
 938 1179 938 1179 864 1179 c 0,9,10
 788 1179 788 1179 748 1233 c 0,11,12
 718 1272 718 1272 718 1322 c 0,13,14
 718 1341 718 1341 722 1361 c 0,15,16
 738 1437 738 1437 802 1490 c 0,17,18
 866 1544 866 1544 941 1544 c 0,0,1
794 840 m 128,-1,20
 710 840 710 840 652 807 c 0,21,22
 606 781 606 781 593 718 c 2,23,-1
 521 382 l 2,24,25
 517 365 517 365 517 350 c 0,26,27
 517 312 517 312 542 293 c 0,28,29
 586 260 586 260 670 260 c 128,-1,30
 754 260 754 260 812 293 c 0,31,32
 858 319 858 319 871 382 c 2,33,-1
 943 718 l 2,34,35
 947 735 947 735 947 750 c 0,36,37
 947 788 947 788 922 807 c 0,38,19
 878 840 878 840 794 840 c 128,-1,20
641 -20 m 0,39,40
 516 -20 516 -20 442 11 c 1,41,-1
 378 -292 l 1,42,-1
 59 -430 l 1,43,-1
 49 -430 l 1,44,-1
 302 760 l 2,45,46
 345 964 345 964 473 1033 c 0,47,48
 634 1120 634 1120 823 1120 c 128,-1,49
 1012 1120 1012 1120 1152 1033 c 0,50,51
 1261 965 1261 965 1261 837 c 0,52,53
 1261 801 1261 801 1252 760 c 2,54,-1
 1162 340 l 2,55,56
 1118 136 1118 136 991 67 c 0,57,58
 830 -20 830 -20 641 -20 c 0,39,40
EndSplineSet
Validated: 1
EndChar

StartChar: uni1E6A
Encoding: 7786 7786 182
Width: 1190
Flags: W
HStem: -20 21G<431 487.712> 1210 300<467 692 1012 1301> 1589 365<877.097 1053.32>
DStem2: 431 -20 750.967 -20 0.207912 0.978148<215.787 1257.39>
LayerCount: 2
Fore
SplineSet
1004 1954 m 0,0,1
 1080 1954 1080 1954 1121 1901 c 0,2,3
 1150 1863 1150 1863 1150 1812 c 0,4,5
 1150 1793 1150 1793 1146 1772 c 0,6,7
 1130 1697 1130 1697 1065.5 1643 c 128,-1,8
 1001 1589 1001 1589 927 1589 c 0,9,10
 851 1589 851 1589 811 1643 c 0,11,12
 781 1682 781 1682 781 1732 c 0,13,14
 781 1751 781 1751 785 1771 c 0,15,16
 801 1847 801 1847 865 1900 c 0,17,18
 929 1954 929 1954 1004 1954 c 0,0,1
441 -20 m 1,19,-1
 431 -20 l 1,20,-1
 692 1210 l 1,21,-1
 267 1210 l 1,22,-1
 269 1220 l 1,23,-1
 467 1510 l 1,24,-1
 1501 1510 l 1,25,-1
 1499 1500 l 1,26,-1
 1301 1210 l 1,27,-1
 1012 1210 l 1,28,-1
 782 126 l 1,29,-1
 441 -20 l 1,19,-1
EndSplineSet
Validated: 1
EndChar

StartChar: uni1E6B
Encoding: 7787 7787 183
Width: 890
Flags: W
HStem: -20 21G<296 352.316> 820 280<373 474 824 925> 1510 20G<858.684 915> 1589 365<733.097 909.323>
DStem2: 296 -20 585.73 -20 0.207912 0.978148<196.21 858.652 1205.3 1448.62>
LayerCount: 2
Fore
SplineSet
860 1954 m 0,0,1
 936 1954 936 1954 977 1901 c 0,2,3
 1006 1863 1006 1863 1006 1812 c 0,4,5
 1006 1793 1006 1793 1002 1772 c 0,6,7
 986 1697 986 1697 921.5 1643 c 128,-1,8
 857 1589 857 1589 783 1589 c 0,9,10
 707 1589 707 1589 667 1643 c 0,11,12
 637 1682 637 1682 637 1732 c 0,13,14
 637 1751 637 1751 641 1771 c 0,15,16
 657 1847 657 1847 721 1900 c 0,17,18
 785 1954 785 1954 860 1954 c 0,0,1
306 -20 m 1,19,-1
 296 -20 l 1,20,-1
 474 820 l 1,21,-1
 184 820 l 1,22,-1
 186 830 l 1,23,-1
 373 1100 l 1,24,-1
 534 1100 l 1,25,-1
 597 1397 l 1,26,-1
 905 1530 l 1,27,-1
 915 1530 l 1,28,-1
 824 1100 l 1,29,-1
 1114 1100 l 1,30,-1
 1112 1090 l 1,31,-1
 925 820 l 1,32,-1
 764 820 l 1,33,-1
 614 113 l 1,34,-1
 306 -20 l 1,19,-1
EndSplineSet
Validated: 1
EndChar

StartChar: uni1E60
Encoding: 7776 7776 184
Width: 1160
Flags: W
HStem: -20 279<458.203 806.009> 676 317<672.35 870.116> 1261 269<707.724 958.04> 1589 365<847.097 1023.32>
VStem: 323 326<915.5 1213.48> 906 333<398.752 729.5>
LayerCount: 2
Fore
SplineSet
974 1954 m 0,0,1
 1050 1954 1050 1954 1091 1901 c 0,2,3
 1120 1863 1120 1863 1120 1812 c 0,4,5
 1120 1793 1120 1793 1116 1772 c 0,6,7
 1100 1697 1100 1697 1035.5 1643 c 128,-1,8
 971 1589 971 1589 897 1589 c 0,9,10
 821 1589 821 1589 781 1643 c 0,11,12
 751 1682 751 1682 751 1732 c 0,13,14
 751 1751 751 1751 755 1771 c 0,15,16
 771 1847 771 1847 835 1900 c 0,17,18
 899 1954 899 1954 974 1954 c 0,0,1
590 -20 m 0,19,20
 369 -20 369 -20 226 79 c 0,21,22
 106 161 106 161 106 316 c 0,23,24
 106 348 106 348 111 383 c 1,25,-1
 442 526 l 1,26,-1
 452 526 l 1,27,-1
 427 411 l 2,28,29
 422 388 422 388 422 371 c 0,30,31
 422 319 422 319 461 297 c 0,32,33
 526 259 526 259 620 259 c 0,34,35
 717 259 717 259 795 297 c 0,36,37
 859 328 859 328 877 411 c 2,38,-1
 901 523 l 2,39,40
 906 546 906 546 906 566 c 0,41,42
 906 616 906 616 872 638 c 0,43,44
 812 676 812 676 717 676 c 0,45,46
 567 676 567 676 431 774 c 0,47,48
 323 852 323 852 323 979 c 0,49,50
 323 1013 323 1013 332 1055 c 2,51,-1
 365 1208 l 2,52,53
 400 1370 400 1370 526 1440 c 0,54,55
 688 1530 688 1530 868 1530 c 0,56,57
 1059 1530 1059 1530 1179 1446 c 0,58,59
 1286 1371 1286 1371 1286 1242 c 0,60,61
 1286 1221 1286 1221 1283 1199 c 1,62,-1
 964 1061 l 1,63,-1
 954 1061 l 1,64,-1
 972 1148 l 2,65,66
 976 1167 976 1167 976 1181 c 0,67,68
 976 1217 976 1217 953 1232 c 0,69,70
 909 1261 909 1261 844 1261 c 0,71,72
 767 1261 767 1261 716 1232 c 0,73,74
 675 1209 675 1209 662 1148 c 2,75,-1
 653 1106 l 2,76,77
 649 1087 649 1087 649 1072 c 0,78,79
 649 1036 649 1036 671 1022 c 0,80,81
 714 993 714 993 783 993 c 0,82,83
 976 992 976 992 1119 890 c 0,84,85
 1239 804 1239 804 1239 655 c 0,86,87
 1239 609 1239 609 1229 562 c 2,88,-1
 1188 369 l 2,89,90
 1145 166 1145 166 988 82 c 0,91,92
 797 -20 797 -20 590 -20 c 0,19,20
EndSplineSet
Validated: 1
EndChar

StartChar: uni1E61
Encoding: 7777 7777 185
Width: 949
Flags: W
HStem: -20 244<391.816 633.513> 453 264<542.576 680.422> 887 233<561.752 729.776> 1179 365<652.097 828.323>
VStem: 236 293<653 866.683> 687 308<263.006 441.653>
LayerCount: 2
Fore
SplineSet
779 1544 m 0,0,1
 855 1544 855 1544 896 1491 c 0,2,3
 925 1453 925 1453 925 1402 c 0,4,5
 925 1383 925 1383 921 1362 c 0,6,7
 905 1287 905 1287 840.5 1233 c 128,-1,8
 776 1179 776 1179 702 1179 c 0,9,10
 626 1179 626 1179 586 1233 c 0,11,12
 556 1272 556 1272 556 1322 c 0,13,14
 556 1341 556 1341 560 1361 c 0,15,16
 576 1437 576 1437 640 1490 c 0,17,18
 704 1544 704 1544 779 1544 c 0,0,1
487 -20 m 0,19,20
 293 -20 293 -20 180 68 c 0,21,22
 80 145 80 145 80 259 c 0,23,24
 80 275 80 275 82 292 c 1,25,-1
 388 423 l 1,26,-1
 398 423 l 1,27,-1
 379 334 l 2,28,29
 375 316 375 316 375 302 c 0,30,31
 375 267 375 267 398 252 c 0,32,33
 441 224 441 224 511 224 c 128,-1,34
 581 224 581 224 624 249 c 0,35,36
 668 275 668 275 680 334 c 2,37,-1
 685 359 l 2,38,39
 687 371 687 371 687 381 c 0,40,41
 687 453 687 453 573 453 c 0,42,43
 419 453 419 453 322 530 c 0,44,45
 236 600 236 600 236 706 c 0,46,47
 236 736 236 736 243 768 c 2,48,-1
 262 858 l 2,49,50
 289 986 289 986 389 1044 c 0,51,52
 523 1120 523 1120 677 1120 c 0,53,54
 847 1120 847 1120 944 1044 c 0,55,56
 1032 975 1032 975 1032 884 c 0,57,58
 1032 875 1032 875 1031 865 c 1,59,-1
 733 736 l 1,60,-1
 723 736 l 1,61,-1
 739 811 l 2,62,63
 741 822 741 822 741 832 c 0,64,65
 741 859 741 859 722 873 c 0,66,67
 702 887 702 887 658 887 c 0,68,69
 600 887 600 887 572 868 c 0,70,71
 546 850 546 850 539 821 c 2,72,-1
 530 781 l 2,73,74
 529 773 529 773 529 767 c 0,75,76
 529 747 529 747 542 735 c 0,77,78
 560 717 560 717 635 717 c 0,79,80
 801 717 801 717 903 628 c 0,81,82
 995 547 995 547 995 437 c 0,83,84
 995 406 995 406 988 373 c 2,85,-1
 964 263 l 2,86,87
 935 134 935 134 819 68 c 0,88,89
 667 -20 667 -20 487 -20 c 0,19,20
EndSplineSet
Validated: 1
EndChar

StartChar: Wgrave
Encoding: 7808 7808 186
Width: 2220
Flags: W
HStem: -20 300<584.992 966.387 1397.1 1774.43> 1510 20G<728.605 785 1538.61 1595 2348.61 2405>
VStem: 216 333<236.5 563.273>
DStem2: 135.388 -20 456.161 -20 0.207912 0.978148<495.504 1434.43> 946.161 -20 1266.16 -20 0.207912 0.978148<495.343 1434.27> 1511 1980 1303 1895 0.255077 -0.966921<29.1322 337.153> 1755.78 -20 2075.39 -20 0.207912 0.978148<351.061 1434.34>
LayerCount: 2
Fore
SplineSet
732 -20 m 128,-1,1
 502 -20 502 -20 340 82 c 0,2,3
 216 160 216 160 216 313 c 0,4,5
 216 359 216 359 227 411 c 2,6,-1
 434 1383 l 1,7,-1
 775 1530 l 1,8,-1
 785 1530 l 1,9,-1
 555 445 l 2,10,11
 549 419 549 419 549 398 c 0,12,13
 549 344 549 344 586 321 c 0,14,15
 652 280 652 280 764.5 280 c 128,-1,16
 877 280 877 280 960 321 c 0,17,18
 1025 353 1025 353 1045 445 c 2,19,-1
 1244 1383 l 1,20,-1
 1585 1530 l 1,21,-1
 1595 1530 l 1,22,-1
 1365 445 l 2,23,24
 1359 419 1359 419 1359 398 c 0,25,26
 1359 344 1359 344 1396 321 c 0,27,28
 1462 280 1462 280 1574.5 280 c 128,-1,29
 1687 280 1687 280 1770 321 c 0,30,31
 1835 353 1835 353 1855 445 c 2,32,-1
 2054 1383 l 1,33,-1
 2395 1530 l 1,34,-1
 2405 1530 l 1,35,-1
 2167 411 l 2,36,37
 2116 166 2116 166 1960 82 c 0,38,39
 1770 -20 1770 -20 1539 -20 c 128,-1,40
 1308 -20 1308 -20 1158 87 c 1,41,0
 962 -20 962 -20 732 -20 c 128,-1,1
1501 1980 m 1,42,-1
 1511 1980 l 1,43,-1
 1597 1654 l 1,44,-1
 1401 1570 l 1,45,-1
 1391 1570 l 1,46,-1
 1303 1895 l 1,47,-1
 1501 1980 l 1,42,-1
EndSplineSet
Validated: 1
EndChar

StartChar: wgrave
Encoding: 7809 7809 187
Width: 1880
Flags: W
HStem: -20 280<538.242 819.672 1187.62 1469.32> 1100 20G<621.768 678 1271.77 1328 1921.77 1978>
VStem: 203 314<199 504.672>
DStem2: 135.48 -20 435.552 -20 0.207912 0.978148<441.696 1024.5> 785.552 -20 1085.55 -20 0.207912 0.978148<441.681 1024.48> 1243 1570 1035 1485 0.252301 -0.967649<29.7715 336.899> 1436.02 -20 1735.48 -20 0.207912 0.978148<312.663 1024.39>
LayerCount: 2
Fore
SplineSet
641 -20 m 0,0,1
 452 -20 452 -20 312 67 c 0,2,3
 203 135 203 135 203 263 c 0,4,5
 203 299 203 299 212 340 c 2,6,-1
 349 982 l 1,7,-1
 668 1120 l 1,8,-1
 678 1120 l 1,9,-1
 521 382 l 2,10,11
 517 365 517 365 517 350 c 0,12,13
 517 312 517 312 542 293 c 0,14,15
 586 260 586 260 670 260 c 128,-1,16
 754 260 754 260 812 293 c 0,17,18
 858 319 858 319 871 382 c 2,19,-1
 999 982 l 1,20,-1
 1318 1120 l 1,21,-1
 1328 1120 l 1,22,-1
 1171 382 l 2,23,24
 1167 365 1167 365 1167 350 c 0,25,26
 1167 312 1167 312 1192 293 c 0,27,28
 1236 260 1236 260 1320 260 c 128,-1,29
 1404 260 1404 260 1462 293 c 0,30,31
 1508 319 1508 319 1521 382 c 2,32,-1
 1649 982 l 1,33,-1
 1968 1120 l 1,34,-1
 1978 1120 l 1,35,-1
 1812 340 l 2,36,37
 1769 136 1769 136 1641 67 c 0,38,39
 1480 -20 1480 -20 1291 -20 c 0,40,41
 1107 -20 1107 -20 983 63 c 1,42,43
 825 -20 825 -20 641 -20 c 0,0,1
1233 1570 m 1,44,-1
 1243 1570 l 1,45,-1
 1328 1244 l 1,46,-1
 1133 1160 l 1,47,-1
 1123 1160 l 1,48,-1
 1035 1485 l 1,49,-1
 1233 1570 l 1,44,-1
EndSplineSet
Validated: 1
EndChar

StartChar: Wacute
Encoding: 7810 7810 188
Width: 2220
Flags: W
HStem: -20 300<584.992 966.387 1397.1 1774.43> 1510 20G<728.605 785 1538.61 1595 2348.61 2405>
VStem: 216 333<236.5 563.273>
DStem2: 135.388 -20 456.161 -20 0.207912 0.978148<495.504 1434.43> 946.161 -20 1266.16 -20 0.207912 0.978148<495.343 1434.27> 1286 1660 1468 1570 0.541289 0.840837<22.8392 380.573> 1755.78 -20 2075.39 -20 0.207912 0.978148<351.061 1434.34>
LayerCount: 2
Fore
SplineSet
1502 1980 m 1,0,-1
 1675 1888 l 1,1,-1
 1468 1570 l 1,2,-1
 1458 1570 l 1,3,-1
 1286 1660 l 1,4,-1
 1492 1980 l 1,5,-1
 1502 1980 l 1,0,-1
732 -20 m 128,-1,7
 502 -20 502 -20 340 82 c 0,8,9
 216 160 216 160 216 313 c 0,10,11
 216 359 216 359 227 411 c 2,12,-1
 434 1383 l 1,13,-1
 775 1530 l 1,14,-1
 785 1530 l 1,15,-1
 555 445 l 2,16,17
 549 419 549 419 549 398 c 0,18,19
 549 344 549 344 586 321 c 0,20,21
 652 280 652 280 764.5 280 c 128,-1,22
 877 280 877 280 960 321 c 0,23,24
 1025 353 1025 353 1045 445 c 2,25,-1
 1244 1383 l 1,26,-1
 1585 1530 l 1,27,-1
 1595 1530 l 1,28,-1
 1365 445 l 2,29,30
 1359 419 1359 419 1359 398 c 0,31,32
 1359 344 1359 344 1396 321 c 0,33,34
 1462 280 1462 280 1574.5 280 c 128,-1,35
 1687 280 1687 280 1770 321 c 0,36,37
 1835 353 1835 353 1855 445 c 2,38,-1
 2054 1383 l 1,39,-1
 2395 1530 l 1,40,-1
 2405 1530 l 1,41,-1
 2167 411 l 2,42,43
 2116 166 2116 166 1960 82 c 0,44,45
 1770 -20 1770 -20 1539 -20 c 128,-1,46
 1308 -20 1308 -20 1158 87 c 1,47,6
 962 -20 962 -20 732 -20 c 128,-1,7
EndSplineSet
Validated: 1
EndChar

StartChar: wacute
Encoding: 7811 7811 189
Width: 1880
Flags: W
HStem: -20 280<538.242 819.672 1187.62 1469.32> 1100 20G<621.768 678 1271.77 1328 1921.77 1978>
VStem: 203 314<199 504.672>
DStem2: 135.48 -20 435.552 -20 0.207912 0.978148<441.696 1024.5> 785.552 -20 1085.55 -20 0.207912 0.978148<441.681 1024.48> 1019 1250 1201 1160 0.541289 0.840837<22.8392 380.573> 1436.02 -20 1735.48 -20 0.207912 0.978148<312.663 1024.39>
LayerCount: 2
Fore
SplineSet
1235 1570 m 1,0,-1
 1408 1478 l 1,1,-1
 1201 1160 l 1,2,-1
 1191 1160 l 1,3,-1
 1019 1250 l 1,4,-1
 1225 1570 l 1,5,-1
 1235 1570 l 1,0,-1
641 -20 m 0,6,7
 452 -20 452 -20 312 67 c 0,8,9
 203 135 203 135 203 263 c 0,10,11
 203 299 203 299 212 340 c 2,12,-1
 349 982 l 1,13,-1
 668 1120 l 1,14,-1
 678 1120 l 1,15,-1
 521 382 l 2,16,17
 517 365 517 365 517 350 c 0,18,19
 517 312 517 312 542 293 c 0,20,21
 586 260 586 260 670 260 c 128,-1,22
 754 260 754 260 812 293 c 0,23,24
 858 319 858 319 871 382 c 2,25,-1
 999 982 l 1,26,-1
 1318 1120 l 1,27,-1
 1328 1120 l 1,28,-1
 1171 382 l 2,29,30
 1167 365 1167 365 1167 350 c 0,31,32
 1167 312 1167 312 1192 293 c 0,33,34
 1236 260 1236 260 1320 260 c 128,-1,35
 1404 260 1404 260 1462 293 c 0,36,37
 1508 319 1508 319 1521 382 c 2,38,-1
 1649 982 l 1,39,-1
 1968 1120 l 1,40,-1
 1978 1120 l 1,41,-1
 1812 340 l 2,42,43
 1769 136 1769 136 1641 67 c 0,44,45
 1480 -20 1480 -20 1291 -20 c 0,46,47
 1107 -20 1107 -20 983 63 c 1,48,49
 825 -20 825 -20 641 -20 c 0,6,7
EndSplineSet
Validated: 1
EndChar

StartChar: Wdieresis
Encoding: 7812 7812 190
Width: 2220
Flags: W
HStem: -20 300<584.992 966.387 1397.1 1774.43> 1510 20G<728.605 785 1538.61 1595 2348.61 2405> 1620 297<1218.47 1380.49 1557.98 1718.99>
VStem: 216 333<236.5 563.273> 1150 300<1688.5 1848.97> 1488 300<1688.5 1847.11>
DStem2: 135.388 -20 456.161 -20 0.207912 0.978148<495.504 1434.43> 946.161 -20 1266.16 -20 0.207912 0.978148<495.343 1434.27> 1755.78 -20 2075.39 -20 0.207912 0.978148<351.061 1434.34>
LayerCount: 2
Fore
SplineSet
1669 1917 m 128,-1,1
 1729 1917 1729 1917 1763 1873 c 0,2,3
 1787 1842 1787 1842 1788 1801 c 0,4,5
 1788 1784 1788 1784 1784 1768 c 0,6,7
 1771 1708 1771 1708 1719 1664 c 128,-1,8
 1667 1620 1667 1620 1606 1620 c 128,-1,9
 1545 1620 1545 1620 1512 1664 c 0,10,11
 1488 1696 1488 1696 1488 1735 c 0,12,13
 1488 1751 1488 1751 1492 1768 c 0,14,15
 1504 1827 1504 1827 1557 1872 c 0,16,0
 1609 1917 1609 1917 1669 1917 c 128,-1,1
1330.5 1917 m 128,-1,18
 1391 1917 1391 1917 1425 1873 c 0,19,20
 1450 1841 1450 1841 1450 1801 c 0,21,22
 1450 1786 1450 1786 1446 1768 c 0,23,24
 1433 1708 1433 1708 1380.5 1664 c 128,-1,25
 1328 1620 1328 1620 1268 1620 c 0,26,27
 1207 1620 1207 1620 1174 1664 c 0,28,29
 1150 1696 1150 1696 1150 1735 c 0,30,31
 1150 1751 1150 1751 1154 1768 c 0,32,33
 1167 1829 1167 1829 1218 1872 c 0,34,17
 1270 1917 1270 1917 1330.5 1917 c 128,-1,18
732 -20 m 128,-1,36
 502 -20 502 -20 340 82 c 0,37,38
 216 160 216 160 216 313 c 0,39,40
 216 359 216 359 227 411 c 2,41,-1
 434 1383 l 1,42,-1
 775 1530 l 1,43,-1
 785 1530 l 1,44,-1
 555 445 l 2,45,46
 549 419 549 419 549 398 c 0,47,48
 549 344 549 344 586 321 c 0,49,50
 652 280 652 280 764.5 280 c 128,-1,51
 877 280 877 280 960 321 c 0,52,53
 1025 353 1025 353 1045 445 c 2,54,-1
 1244 1383 l 1,55,-1
 1585 1530 l 1,56,-1
 1595 1530 l 1,57,-1
 1365 445 l 2,58,59
 1359 419 1359 419 1359 398 c 0,60,61
 1359 344 1359 344 1396 321 c 0,62,63
 1462 280 1462 280 1574.5 280 c 128,-1,64
 1687 280 1687 280 1770 321 c 0,65,66
 1835 353 1835 353 1855 445 c 2,67,-1
 2054 1383 l 1,68,-1
 2395 1530 l 1,69,-1
 2405 1530 l 1,70,-1
 2167 411 l 2,71,72
 2116 166 2116 166 1960 82 c 0,73,74
 1770 -20 1770 -20 1539 -20 c 128,-1,75
 1308 -20 1308 -20 1158 87 c 1,76,35
 962 -20 962 -20 732 -20 c 128,-1,36
EndSplineSet
Validated: 1
EndChar

StartChar: wdieresis
Encoding: 7813 7813 191
Width: 1880
Flags: W
HStem: -20 280<538.242 819.672 1187.62 1469.32> 1100 20G<621.768 678 1271.77 1328 1921.77 1978> 1210 297<967.468 1129.49 1306.98 1467.99>
VStem: 203 314<199 504.672> 899 300<1278.5 1438.97> 1237 300<1278.5 1437.11>
DStem2: 135.48 -20 435.552 -20 0.207912 0.978148<441.696 1024.5> 785.552 -20 1085.55 -20 0.207912 0.978148<441.681 1024.48> 1436.02 -20 1735.48 -20 0.207912 0.978148<312.663 1024.39>
LayerCount: 2
Fore
SplineSet
1418 1507 m 128,-1,1
 1478 1507 1478 1507 1512 1463 c 0,2,3
 1536 1432 1536 1432 1537 1391 c 0,4,5
 1537 1374 1537 1374 1533 1358 c 0,6,7
 1520 1298 1520 1298 1468 1254 c 128,-1,8
 1416 1210 1416 1210 1355 1210 c 128,-1,9
 1294 1210 1294 1210 1261 1254 c 0,10,11
 1237 1286 1237 1286 1237 1325 c 0,12,13
 1237 1341 1237 1341 1241 1358 c 0,14,15
 1253 1417 1253 1417 1306 1462 c 0,16,0
 1358 1507 1358 1507 1418 1507 c 128,-1,1
1079.5 1507 m 128,-1,18
 1140 1507 1140 1507 1174 1463 c 0,19,20
 1199 1431 1199 1431 1199 1391 c 0,21,22
 1199 1376 1199 1376 1195 1358 c 0,23,24
 1182 1298 1182 1298 1129.5 1254 c 128,-1,25
 1077 1210 1077 1210 1017 1210 c 0,26,27
 956 1210 956 1210 923 1254 c 0,28,29
 899 1286 899 1286 899 1325 c 0,30,31
 899 1341 899 1341 903 1358 c 0,32,33
 916 1419 916 1419 967 1462 c 0,34,17
 1019 1507 1019 1507 1079.5 1507 c 128,-1,18
641 -20 m 0,35,36
 452 -20 452 -20 312 67 c 0,37,38
 203 135 203 135 203 263 c 0,39,40
 203 299 203 299 212 340 c 2,41,-1
 349 982 l 1,42,-1
 668 1120 l 1,43,-1
 678 1120 l 1,44,-1
 521 382 l 2,45,46
 517 365 517 365 517 350 c 0,47,48
 517 312 517 312 542 293 c 0,49,50
 586 260 586 260 670 260 c 128,-1,51
 754 260 754 260 812 293 c 0,52,53
 858 319 858 319 871 382 c 2,54,-1
 999 982 l 1,55,-1
 1318 1120 l 1,56,-1
 1328 1120 l 1,57,-1
 1171 382 l 2,58,59
 1167 365 1167 365 1167 350 c 0,60,61
 1167 312 1167 312 1192 293 c 0,62,63
 1236 260 1236 260 1320 260 c 128,-1,64
 1404 260 1404 260 1462 293 c 0,65,66
 1508 319 1508 319 1521 382 c 2,67,-1
 1649 982 l 1,68,-1
 1968 1120 l 1,69,-1
 1978 1120 l 1,70,-1
 1812 340 l 2,71,72
 1769 136 1769 136 1641 67 c 0,73,74
 1480 -20 1480 -20 1291 -20 c 0,75,76
 1107 -20 1107 -20 983 63 c 1,77,78
 825 -20 825 -20 641 -20 c 0,35,36
EndSplineSet
Validated: 1
EndChar

StartChar: Ygrave
Encoding: 7922 7922 192
Width: 1270
Flags: W
HStem: -20 21G<471 527.395> 1510 20G<668.605 725 1458.61 1515>
VStem: 243 331<646 974.953>
DStem2: 75.7278 -20 395.501 -20 0.207912 0.978148<908.247 1434.36> 865.783 -20 1185.73 -20 0.207912 0.978148<763.016 1434.34> 1109 1980 901 1895 0.255077 -0.966921<29.1322 337.153>
LayerCount: 2
Fore
SplineSet
481 -20 m 1,0,-1
 471 -20 l 1,1,-1
 560 398 l 1,2,3
 463 418 463 418 366 485 c 0,4,5
 243 571 243 571 243 721 c 0,6,7
 243 765 243 765 253 814 c 2,8,-1
 374 1383 l 1,9,-1
 715 1530 l 1,10,-1
 725 1530 l 1,11,-1
 580 848 l 2,12,13
 574 822 574 822 574 802 c 0,14,15
 574 748 574 748 612 724 c 0,16,17
 678 683 678 683 780 683 c 128,-1,18
 882 683 882 683 966 724 c 0,19,20
 1030 756 1030 756 1050 848 c 2,21,-1
 1164 1383 l 1,22,-1
 1505 1530 l 1,23,-1
 1515 1530 l 1,24,-1
 1363 814 l 2,25,26
 1311 569 1311 569 1155 485 c 0,27,28
 1030 418 1030 418 880 398 c 1,29,-1
 822 127 l 1,30,-1
 481 -20 l 1,0,-1
1099 1980 m 1,31,-1
 1109 1980 l 1,32,-1
 1195 1654 l 1,33,-1
 999 1570 l 1,34,-1
 989 1570 l 1,35,-1
 901 1895 l 1,36,-1
 1099 1980 l 1,31,-1
EndSplineSet
Validated: 1
EndChar

StartChar: ygrave
Encoding: 7923 7923 193
Width: 1250
Flags: W
HStem: -410 250<361 721.178> -20 280<537.137 790.52> 1100 20G<621.768 678 1271.77 1328>
VStem: 204 313<204.5 509.688>
DStem2: 52.5826 -410 352.655 -410 0.207912 0.978148<840.409 1423.21> 702.514 -410 1002.48 -410 0.207912 0.978148<282.176 430.405 711.496 1423.22> 983 1570 775 1485 0.252301 -0.967649<29.7715 336.899>
LayerCount: 2
Fore
SplineSet
193 -410 m 1,0,-1
 195 -400 l 1,1,-1
 361 -160 l 1,2,-1
 570 -160 l 2,3,4
 665 -160 665 -160 723 -127 c 0,5,6
 769 -101 769 -101 782 -38 c 2,7,-1
 792 11 l 1,8,9
 720 -20 720 -20 626 -20 c 0,10,11
 439 -20 439 -20 312 67 c 0,12,13
 204 141 204 141 204 268 c 0,14,15
 204 302 204 302 212 340 c 2,16,-1
 349 982 l 1,17,-1
 668 1120 l 1,18,-1
 678 1120 l 1,19,-1
 521 382 l 2,20,21
 517 365 517 365 517 350 c 0,22,23
 517 312 517 312 542 293 c 0,24,25
 586 260 586 260 670 260 c 128,-1,26
 754 260 754 260 812 293 c 0,27,28
 857 319 857 319 871 382 c 2,29,-1
 999 982 l 1,30,-1
 1318 1120 l 1,31,-1
 1328 1120 l 1,32,-1
 1079 -50 l 2,33,34
 1036 -254 1036 -254 908 -323 c 0,35,36
 747 -410 747 -410 558 -410 c 2,37,-1
 193 -410 l 1,0,-1
973 1570 m 1,38,-1
 983 1570 l 1,39,-1
 1068 1244 l 1,40,-1
 873 1160 l 1,41,-1
 863 1160 l 1,42,-1
 775 1485 l 1,43,-1
 973 1570 l 1,38,-1
EndSplineSet
Validated: 1
EndChar

StartChar: AE
Encoding: 198 198 194
Width: 1728
Flags: W
HStem: -20 21G<136 192.395> 0 300<1172 1582> 605 300<652 917 1300 1661> 1210 300<1365 1789> 1230 300<766.491 1045.86>
DStem2: 136 -20 455.754 -20 0.207912 0.978148<216.765 705.526 1012.07 1300.17> 783.749 -20 1103.98 -20 0.207912 0.978148<393.729 639.047 1012.12 1271.76>
LayerCount: 2
Fore
SplineSet
1582 0 m 1,0,-1
 788 0 l 1,1,-1
 917 605 l 1,2,-1
 589 605 l 1,3,-1
 487 127 l 1,4,-1
 146 -20 l 1,5,-1
 136 -20 l 1,6,-1
 374 1099 l 2,7,8
 426 1344 426 1344 582 1428 c 0,9,10
 771 1530 771 1530 1000 1530 c 0,11,12
 1135 1530 1135 1530 1219 1510 c 1,13,-1
 1989 1510 l 1,14,-1
 1987 1500 l 1,15,-1
 1789 1210 l 1,16,-1
 1365 1210 l 1,17,-1
 1300 905 l 1,18,-1
 1860 905 l 1,19,-1
 1858 895 l 1,20,-1
 1661 605 l 1,21,-1
 1237 605 l 1,22,-1
 1172 300 l 1,23,-1
 1782 300 l 1,24,-1
 1780 290 l 1,25,-1
 1582 0 l 1,0,-1
1048 1224 m 1,26,27
 1010 1230 1010 1230 966 1230 c 0,28,29
 854 1230 854 1230 771 1189 c 0,30,31
 706 1157 706 1157 686 1065 c 2,32,-1
 652 905 l 1,33,-1
 980 905 l 1,34,-1
 1048 1224 l 1,26,27
EndSplineSet
Validated: 1
EndChar

StartChar: Eth
Encoding: 208 208 195
Width: 1390
Flags: W
HStem: 0 300<544 967.306> 665 180<261 301 660 865> 1210 300<749 1137.93>
VStem: 1178 332<922.625 1253.5>
DStem2: 160 0 480.233 0 0.207912 0.978148<373.282 679.784 930.491 1303.52> 949.878 0 1270.39 0 0.207912 0.978148<351.131 1113.98>
CounterMasks: 1 e0
LayerCount: 2
Fore
SplineSet
160 0 m 1,0,-1
 301 665 l 1,1,-1
 141 665 l 1,2,-1
 143 675 l 1,3,-1
 261 845 l 1,4,-1
 340 845 l 1,5,-1
 454 1383 l 1,6,-1
 749 1510 l 1,7,-1
 996 1510 l 2,8,9
 1224 1510 1224 1510 1386 1408 c 0,10,11
 1510 1330 1510 1330 1510 1177 c 0,12,13
 1510 1131 1510 1131 1499 1079 c 2,14,-1
 1362 431 l 2,15,16
 1310 186 1310 186 1154 102 c 0,17,18
 964 0 964 0 735 0 c 2,19,-1
 160 0 l 1,0,-1
544 300 m 1,20,-1
 769 300 l 2,21,22
 882 300 882 300 964 341 c 0,23,24
 1029 373 1029 373 1049 465 c 2,25,-1
 1172 1045 l 2,26,27
 1178 1071 1178 1071 1178 1091 c 0,28,29
 1178 1145 1178 1145 1140 1169 c 0,30,31
 1074 1210 1074 1210 962 1210 c 2,32,-1
 737 1210 l 1,33,-1
 660 845 l 1,34,-1
 985 845 l 1,35,-1
 982 835 l 1,36,-1
 865 665 l 1,37,-1
 621 665 l 1,38,-1
 544 300 l 1,20,-1
EndSplineSet
Validated: 1
EndChar

StartChar: Dcroat
Encoding: 272 272 196
Width: 1390
Flags: W
HStem: 0 300<544 967.306> 665 180<261 301 660 865> 1210 300<749 1137.93>
VStem: 1178 332<922.625 1253.5>
DStem2: 160 0 480.233 0 0.207912 0.978148<373.282 679.784 930.491 1303.52> 949.878 0 1270.39 0 0.207912 0.978148<351.131 1113.98>
CounterMasks: 1 e0
LayerCount: 2
Fore
SplineSet
160 0 m 1,0,-1
 301 665 l 1,1,-1
 141 665 l 1,2,-1
 143 675 l 1,3,-1
 261 845 l 1,4,-1
 340 845 l 1,5,-1
 454 1383 l 1,6,-1
 749 1510 l 1,7,-1
 996 1510 l 2,8,9
 1224 1510 1224 1510 1386 1408 c 0,10,11
 1510 1330 1510 1330 1510 1177 c 0,12,13
 1510 1131 1510 1131 1499 1079 c 2,14,-1
 1362 431 l 2,15,16
 1310 186 1310 186 1154 102 c 0,17,18
 964 0 964 0 735 0 c 2,19,-1
 160 0 l 1,0,-1
544 300 m 1,20,-1
 769 300 l 2,21,22
 882 300 882 300 964 341 c 0,23,24
 1029 373 1029 373 1049 465 c 2,25,-1
 1172 1045 l 2,26,27
 1178 1071 1178 1071 1178 1091 c 0,28,29
 1178 1145 1178 1145 1140 1169 c 0,30,31
 1074 1210 1074 1210 962 1210 c 2,32,-1
 737 1210 l 1,33,-1
 660 845 l 1,34,-1
 985 845 l 1,35,-1
 982 835 l 1,36,-1
 865 665 l 1,37,-1
 621 665 l 1,38,-1
 544 300 l 1,20,-1
EndSplineSet
Validated: 1
EndChar

StartChar: Hbar
Encoding: 294 294 197
Width: 1440
Flags: W
HStem: -20 21G<156 212.395 956 1012.39> 605 300<672 1089> 1197 180<404 414 773 1214 1573 1583> 1510 20G<748.605 805 1548.61 1605>
DStem2: 156 -20 475.754 -20 0.207912 0.978148<216.765 705.526 1012.07 1244.05> 956 -20 1275.75 -20 0.207912 0.978148<216.765 638.995 945.537 1244.05>
LayerCount: 2
Fore
SplineSet
166 -20 m 1,0,-1
 156 -20 l 1,1,-1
 414 1197 l 1,2,-1
 284 1197 l 1,3,-1
 287 1207 l 1,4,-1
 404 1377 l 1,5,-1
 453 1377 l 1,6,-1
 454 1383 l 1,7,-1
 795 1530 l 1,8,-1
 805 1530 l 1,9,-1
 773 1377 l 1,10,-1
 1253 1377 l 1,11,-1
 1254 1383 l 1,12,-1
 1595 1530 l 1,13,-1
 1605 1530 l 1,14,-1
 1573 1377 l 1,15,-1
 1703 1377 l 1,16,-1
 1701 1367 l 1,17,-1
 1583 1197 l 1,18,-1
 1534 1197 l 1,19,-1
 1307 127 l 1,20,-1
 966 -20 l 1,21,-1
 956 -20 l 1,22,-1
 1089 605 l 1,23,-1
 609 605 l 1,24,-1
 507 127 l 1,25,-1
 166 -20 l 1,0,-1
734 1197 m 1,26,-1
 672 905 l 1,27,-1
 1152 905 l 1,28,-1
 1214 1197 l 1,29,-1
 734 1197 l 1,26,-1
EndSplineSet
Validated: 1
EndChar

StartChar: IJ
Encoding: 306 306 198
Width: 1831
Flags: W
HStem: -20 300<1085.79 1405.96> 1210 300<1203 1648> 1510 20G<748.605 805>
DStem2: 156 -20 475.754 -20 0.207912 0.978148<216.765 1434.3> 1386.56 -20 1706.39 -20 0.207912 0.978148<351.108 1257.48>
LayerCount: 2
Fore
SplineSet
1202 -20 m 0,0,1
 992 -20 992 -20 841 82 c 0,2,3
 728 158 728 158 728 315 c 0,4,5
 728 352 728 352 734 393 c 1,6,-1
 1065 535 l 1,7,-1
 1075 535 l 1,8,-1
 1056 445 l 2,9,10
 1051 420 1051 420 1051 399 c 0,11,12
 1051 344 1051 344 1087 321 c 0,13,14
 1153 280 1153 280 1235.5 280 c 128,-1,15
 1318 280 1318 280 1401 321 c 0,16,17
 1467 353 1467 353 1486 445 c 2,18,-1
 1648 1210 l 1,19,-1
 1003 1210 l 1,20,-1
 1005 1220 l 1,21,-1
 1203 1510 l 1,22,-1
 2032 1510 l 1,23,-1
 1798 411 l 2,24,25
 1747 166 1747 166 1591 82 c 0,26,27
 1401 -20 1401 -20 1202 -20 c 0,0,1
166 -20 m 1,28,-1
 156 -20 l 1,29,-1
 454 1383 l 1,30,-1
 795 1530 l 1,31,-1
 805 1530 l 1,32,-1
 507 127 l 1,33,-1
 166 -20 l 1,28,-1
EndSplineSet
Validated: 1
EndChar

StartChar: lslash
Encoding: 322 322 199
Width: 766
Flags: W
HStem: -20 21G<229 285.232> 1510 20G<801.768 858>
DStem2: 229 -20 528.667 -20 0.207912 0.978148<203.387 621.534 823.94 827.086 1029.49 1443.52>
LayerCount: 2
Fore
SplineSet
239 -20 m 1,0,-1
 229 -20 l 1,1,-1
 358 588 l 1,2,-1
 161 505 l 1,3,-1
 159 514 l 1,4,-1
 199 701 l 1,5,-1
 400 786 l 1,6,-1
 529 1392 l 1,7,-1
 848 1530 l 1,8,-1
 858 1530 l 1,9,-1
 730 926 l 1,10,-1
 926 1009 l 1,11,-1
 929 1000 l 1,12,-1
 889 813 l 1,13,-1
 688 728 l 1,14,-1
 558 118 l 1,15,-1
 239 -20 l 1,0,-1
EndSplineSet
Validated: 1
EndChar

StartChar: Lslash
Encoding: 321 321 200
Width: 1100
Flags: W
HStem: 0 300<544 954> 1510 20G<748.288 805>
DStem2: 160.219 0 480.233 0 0.207912 0.978148<373.237 552.064 754.469 770.785 973.398 1414.84>
LayerCount: 2
Fore
SplineSet
160 0 m 1,0,-1
 275 540 l 1,1,-1
 191 505 l 1,2,-1
 189 514 l 1,3,-1
 229 701 l 1,4,-1
 317 738 l 1,5,-1
 454 1384 l 1,6,-1
 795 1530 l 1,7,-1
 805 1530 l 1,8,-1
 669 887 l 1,9,-1
 956 1009 l 1,10,-1
 959 1000 l 1,11,-1
 919 813 l 1,12,-1
 626 689 l 1,13,-1
 544 300 l 1,14,-1
 1154 300 l 1,15,-1
 1152 290 l 1,16,-1
 954 0 l 1,17,-1
 160 0 l 1,0,-1
EndSplineSet
Validated: 1
EndChar

StartChar: Eng
Encoding: 330 330 201
Width: 1410
Flags: W
HStem: -410 21G<559 762> -20 21G<136 192.395> 1230 300<766.695 1145.94>
VStem: 1182 333<950.969 1273>
DStem2: 53.1029 -410 372.857 -410 0.207912 0.978148<615.478 1698.88> 862.479 -410 1182.39 -410 0.207912 0.978148<350.564 1554.53>
LayerCount: 2
Fore
SplineSet
146 -20 m 1,0,-1
 136 -20 l 1,1,-1
 374 1099 l 2,2,3
 426 1344 426 1344 582 1428 c 0,4,5
 772 1530 772 1530 1000 1530 c 128,-1,6
 1228 1530 1228 1530 1390 1428 c 0,7,8
 1515 1349 1515 1349 1515 1197 c 0,9,10
 1515 1151 1515 1151 1504 1099 c 2,11,-1
 1274 21 l 2,12,13
 1222 -225 1222 -225 1066 -308 c 0,14,15
 876 -410 876 -410 648 -410 c 2,16,-1
 559 -410 l 1,17,-1
 561 -400 l 1,18,-1
 766 -103 l 1,19,20
 828 -93 828 -93 877 -69 c 0,21,22
 943 -37 943 -37 962 55 c 2,23,-1
 1176 1065 l 2,24,25
 1182 1091 1182 1091 1182 1112 c 0,26,27
 1182 1166 1182 1166 1145 1189 c 0,28,29
 1079 1230 1079 1230 966.5 1230 c 128,-1,30
 854 1230 854 1230 771 1189 c 0,31,32
 705 1157 705 1157 686 1065 c 2,33,-1
 487 127 l 1,34,-1
 146 -20 l 1,0,-1
EndSplineSet
Validated: 1
EndChar

StartChar: OE
Encoding: 338 338 202
Width: 1714
Flags: W
HStem: -20 300<564.264 837.197> 0 300<1158 1568> 605 300<1286 1647> 1210 300<1351 1775> 1230 300<746.74 1032.93>
VStem: 197 332<242.5 571.594>
DStem2: 115.388 -20 436.161 -20 0.207912 0.978148<495.504 1300.92> 769.745 -20 1089.98 -20 0.207912 0.978148<393.73 705.579 1012.12 1270.78>
LayerCount: 2
Fore
SplineSet
1568 0 m 1,0,-1
 878 0 l 1,1,2
 786 -20 786 -20 696 -20 c 0,3,4
 466 -20 466 -20 320 82 c 0,5,6
 197 167 197 167 197 318 c 0,7,8
 197 362 197 362 207 411 c 2,9,-1
 354 1099 l 2,10,11
 408 1345 408 1345 562 1428 c 0,12,13
 752 1530 752 1530 980 1530 c 0,14,15
 1116 1530 1116 1530 1200 1510 c 1,16,-1
 1975 1510 l 1,17,-1
 1973 1500 l 1,18,-1
 1775 1210 l 1,19,-1
 1351 1210 l 1,20,-1
 1286 905 l 1,21,-1
 1846 905 l 1,22,-1
 1844 895 l 1,23,-1
 1647 605 l 1,24,-1
 1223 605 l 1,25,-1
 1158 300 l 1,26,-1
 1768 300 l 1,27,-1
 1766 290 l 1,28,-1
 1568 0 l 1,0,-1
1034 1223 m 1,29,30
 994 1230 994 1230 946 1230 c 0,31,32
 834 1230 834 1230 751 1189 c 0,33,34
 686 1157 686 1157 666 1065 c 2,35,-1
 535 445 l 2,36,37
 529 419 529 419 529 398 c 0,38,39
 529 344 529 344 566 321 c 0,40,41
 632 280 632 280 745 280 c 0,42,43
 793 280 793 280 835 287 c 1,44,-1
 1034 1223 l 1,29,30
EndSplineSet
Validated: 1
EndChar

StartChar: Thorn
Encoding: 222 222 203
Width: 1270
Flags: W
HStem: -20 21G<156 212.395> 220 300<591 983.525> 990 300<754 1061.93> 1510 20G<748.605 805>
DStem2: 156 -20 475.754 -20 0.207912 0.978148<216.765 311.891 618.641 1098.95 1405.7 1434.3>
LayerCount: 2
Fore
SplineSet
166 -20 m 1,0,-1
 156 -20 l 1,1,-1
 454 1383 l 1,2,-1
 795 1530 l 1,3,-1
 805 1530 l 1,4,-1
 754 1290 l 1,5,-1
 919 1290 l 2,6,7
 1148 1290 1148 1290 1294 1188 c 0,8,9
 1432 1092 1432 1092 1432 941 c 0,10,11
 1432 902 1432 902 1423 859 c 2,12,-1
 1378 651 l 2,13,14
 1324 405 1324 405 1170 322 c 0,15,16
 980 220 980 220 752 220 c 2,17,-1
 527 220 l 1,18,-1
 507 127 l 1,19,-1
 166 -20 l 1,0,-1
591 520 m 1,20,-1
 786 520 l 2,21,22
 899 520 899 520 981 561 c 0,23,24
 1046 593 1046 593 1066 685 c 2,25,-1
 1095 825 l 2,26,27
 1101 851 1101 851 1101 872 c 0,28,29
 1101 926 1101 926 1064 949 c 0,30,31
 998 990 998 990 885 990 c 2,32,-1
 690 990 l 1,33,-1
 591 520 l 1,20,-1
EndSplineSet
Validated: 1
EndChar

StartChar: Tbar
Encoding: 358 358 204
Width: 1190
Flags: W
HStem: -20 21G<431 487.712> 416 180<448 523 882 957> 1210 300<467 692 1012 1301>
DStem2: 431 -20 750.967 -20 0.207912 0.978148<215.787 445.6 696.307 1257.39>
LayerCount: 2
Fore
SplineSet
441 -20 m 1,0,-1
 431 -20 l 1,1,-1
 523 416 l 1,2,-1
 328 416 l 1,3,-1
 331 426 l 1,4,-1
 448 596 l 1,5,-1
 562 596 l 1,6,-1
 692 1210 l 1,7,-1
 267 1210 l 1,8,-1
 269 1220 l 1,9,-1
 467 1510 l 1,10,-1
 1501 1510 l 1,11,-1
 1499 1500 l 1,12,-1
 1301 1210 l 1,13,-1
 1012 1210 l 1,14,-1
 882 596 l 1,15,-1
 1077 596 l 1,16,-1
 1075 586 l 1,17,-1
 957 416 l 1,18,-1
 843 416 l 1,19,-1
 782 126 l 1,20,-1
 441 -20 l 1,0,-1
EndSplineSet
Validated: 1
EndChar

StartChar: tbar
Encoding: 359 359 205
Width: 890
Flags: W
HStem: -20 21G<296 352.316> 416 180<303 388 717 802> 820 280<373 474 824 925> 1510 20G<858.684 915>
DStem2: 296 -20 585.73 -20 0.207912 0.978148<196.21 445.6 690.07 858.652 1205.3 1448.62>
LayerCount: 2
Fore
SplineSet
183 416 m 1,0,-1
 186 426 l 1,1,-1
 303 596 l 1,2,-1
 427 596 l 1,3,-1
 474 820 l 1,4,-1
 184 820 l 1,5,-1
 186 830 l 1,6,-1
 373 1100 l 1,7,-1
 534 1100 l 1,8,-1
 597 1397 l 1,9,-1
 905 1530 l 1,10,-1
 915 1530 l 1,11,-1
 824 1100 l 1,12,-1
 1114 1100 l 1,13,-1
 1112 1090 l 1,14,-1
 925 820 l 1,15,-1
 764 820 l 1,16,-1
 717 596 l 1,17,-1
 922 596 l 1,18,-1
 920 586 l 1,19,-1
 802 416 l 1,20,-1
 678 416 l 1,21,-1
 614 113 l 1,22,-1
 306 -20 l 1,23,-1
 296 -20 l 1,24,-1
 388 416 l 1,25,-1
 183 416 l 1,0,-1
EndSplineSet
Validated: 1
EndChar

